<?xml version="1.0" encoding="utf-8"?>
<!-- Generator: Adobe Illustrator 23.0.2, SVG Export Plug-In . SVG Version: 6.00 Build 0)  -->
<svg version="1.1" xmlns="http://www.w3.org/2000/svg" xmlns:xlink="http://www.w3.org/1999/xlink" x="0px" y="0px"
	 viewBox="0 0 1870 1015.43" style="enable-background:new 0 0 1870 1015.43;" xml:space="preserve">
<style type="text/css">
	.st0{display:none;}
	.st1{fill:none;stroke:#000000;stroke-width:2.3809;stroke-miterlimit:10;}
	.st2{fill:#484899;}
	.st3{fill:#FFFFFF;}
	.st4{fill:#4A994A;}
	.st5{fill:#844B99;}
	.st6{fill:none;stroke:#484899;stroke-width:4;stroke-miterlimit:10;}
	.st7{fill:none;stroke:#484899;stroke-width:4;stroke-miterlimit:10;stroke-dasharray:5.9702,5.9702;}
	.st8{fill:none;stroke:#666666;stroke-width:0.9239;stroke-miterlimit:10;}
	.st9{fill:#666666;}
	.st10{fill:none;stroke:#000000;stroke-width:1.9326;stroke-miterlimit:10;}
	.st11{fill:none;stroke:#484899;stroke-width:4;stroke-linejoin:round;stroke-dasharray:6,6;}
	.st12{fill:none;stroke:#666666;stroke-width:1.1234;stroke-miterlimit:10;}
</style>
<g id="Layer_1" class="st0">
	<image style="display:inline;overflow:visible;" width="1870" height="818" xlink:href="3410B388.jpg" >
	</image>
</g>
<g id="Layer_2">
	<g>
		<g>
			<g>
				<g>
					<g>
						<path class="st1" d="M688.66,368.63H114.04c-3.73,0-6.75-3.02-6.75-6.75V146.55c0-3.73,3.02-6.75,6.75-6.75h574.62
							c3.73,0,6.75,3.02,6.75,6.75v215.33C695.41,365.61,692.38,368.63,688.66,368.63z"/>
						<g>
							<path class="st2" d="M695.41,195.41H107.29v-44.27c0-6.26,5.08-11.34,11.34-11.34h565.44c6.26,0,11.34,5.08,11.34,11.34
								V195.41z"/>
							<g>
								<path class="st3" d="M274.41,166.65c-2.41-0.69-4.17-1.55-5.27-2.56s-1.65-2.26-1.65-3.74c0-1.68,0.67-3.07,2.01-4.17
									s3.09-1.65,5.24-1.65c1.46,0,2.77,0.28,3.92,0.85s2.04,1.35,2.67,2.34s0.94,2.08,0.94,3.27h-2.83
									c0-1.29-0.41-2.31-1.23-3.05s-1.98-1.11-3.47-1.11c-1.39,0-2.47,0.31-3.24,0.92c-0.78,0.61-1.16,1.46-1.16,2.55
									c0,0.87,0.37,1.61,1.11,2.21s1.99,1.15,3.76,1.65s3.16,1.05,4.16,1.65s1.74,1.3,2.23,2.1s0.73,1.74,0.73,2.83
									c0,1.73-0.67,3.11-2.02,4.15s-3.15,1.56-5.41,1.56c-1.46,0-2.83-0.28-4.1-0.84s-2.25-1.33-2.94-2.31s-1.03-2.08-1.03-3.33
									h2.83c0,1.29,0.48,2.31,1.43,3.05s2.22,1.12,3.82,1.12c1.48,0,2.62-0.3,3.41-0.91s1.19-1.43,1.19-2.48s-0.37-1.85-1.1-2.42
									S276.33,167.21,274.41,166.65z"/>
								<path class="st3" d="M289.18,156.47v3.84h2.96v2.09h-2.96v9.84c0,0.64,0.13,1.11,0.4,1.43s0.71,0.48,1.35,0.48
									c0.31,0,0.74-0.06,1.29-0.18v2.18c-0.71,0.19-1.41,0.29-2.08,0.29c-1.21,0-2.12-0.37-2.74-1.1s-0.92-1.77-0.92-3.12v-9.83
									h-2.89v-2.09h2.89v-3.84H289.18z"/>
								<path class="st3" d="M302.96,162.74c-0.41-0.07-0.85-0.1-1.33-0.1c-1.78,0-2.98,0.76-3.62,2.27v11.25h-2.71v-15.85h2.64
									l0.04,1.83c0.89-1.42,2.15-2.12,3.78-2.12c0.53,0,0.93,0.07,1.2,0.21V162.74z"/>
								<path class="st3" d="M311.75,176.45c-2.15,0-3.9-0.71-5.24-2.12s-2.02-3.3-2.02-5.66v-0.5c0-1.57,0.3-2.98,0.9-4.21
									s1.44-2.2,2.52-2.9s2.25-1.05,3.51-1.05c2.06,0,3.66,0.68,4.8,2.04s1.71,3.3,1.71,5.83v1.13h-10.74
									c0.04,1.56,0.5,2.82,1.37,3.79s1.98,1.44,3.33,1.44c0.96,0,1.77-0.2,2.43-0.59s1.25-0.91,1.74-1.55l1.66,1.29
									C316.4,175.43,314.41,176.45,311.75,176.45z M311.41,162.24c-1.09,0-2.01,0.4-2.75,1.19s-1.2,1.91-1.38,3.35h7.94v-0.21
									c-0.08-1.38-0.45-2.44-1.11-3.2S312.55,162.24,311.41,162.24z"/>
								<path class="st3" d="M330.85,176.16c-0.16-0.31-0.28-0.87-0.38-1.67c-1.26,1.31-2.76,1.96-4.51,1.96
									c-1.56,0-2.84-0.44-3.85-1.33s-1.5-2-1.5-3.36c0-1.65,0.63-2.93,1.88-3.85s3.02-1.37,5.3-1.37h2.64v-1.25
									c0-0.95-0.28-1.7-0.85-2.26s-1.4-0.84-2.5-0.84c-0.97,0-1.78,0.24-2.43,0.73s-0.98,1.08-0.98,1.77h-2.72
									c0-0.79,0.28-1.56,0.84-2.29s1.32-1.32,2.29-1.75s2.02-0.64,3.17-0.64c1.83,0,3.26,0.46,4.29,1.37s1.57,2.17,1.61,3.77v7.29
									c0,1.46,0.19,2.61,0.56,3.47v0.23H330.85z M326.35,174.09c0.85,0,1.66-0.22,2.42-0.66s1.31-1.01,1.66-1.71v-3.25h-2.12
									c-3.32,0-4.98,0.97-4.98,2.92c0,0.85,0.28,1.51,0.85,1.99S325.47,174.09,326.35,174.09z"/>
								<path class="st3" d="M339.93,160.31l0.07,1.76c1.16-1.37,2.73-2.05,4.7-2.05c2.22,0,3.73,0.85,4.53,2.55
									c0.53-0.76,1.21-1.38,2.06-1.85s1.84-0.7,3-0.7c3.48,0,5.24,1.84,5.3,5.52v10.62h-2.71V165.7c0-1.13-0.26-1.98-0.78-2.54
									s-1.39-0.84-2.61-0.84c-1.01,0-1.84,0.3-2.5,0.9s-1.05,1.41-1.16,2.42v10.52h-2.72v-10.39c0-2.3-1.13-3.46-3.38-3.46
									c-1.78,0-2.99,0.76-3.65,2.27v11.57h-2.71v-15.85H339.93z"/>
								<path class="st3" d="M363.69,156.1c0-0.44,0.13-0.81,0.4-1.11s0.67-0.45,1.19-0.45s0.93,0.15,1.2,0.45s0.41,0.67,0.41,1.11
									s-0.14,0.81-0.41,1.1s-0.67,0.44-1.2,0.44s-0.93-0.15-1.19-0.44S363.69,156.54,363.69,156.1z M366.62,176.16h-2.71v-15.85
									h2.71V176.16z"/>
								<path class="st3" d="M373.52,160.31l0.09,1.99c1.21-1.52,2.79-2.29,4.75-2.29c3.35,0,5.04,1.89,5.07,5.67v10.47h-2.71
									v-10.49c-0.01-1.14-0.27-1.99-0.78-2.53s-1.31-0.82-2.4-0.82c-0.88,0-1.65,0.23-2.31,0.7s-1.18,1.08-1.55,1.85v11.29h-2.71
									v-15.85H373.52z"/>
								<path class="st3" d="M386.87,168.1c0-2.47,0.57-4.44,1.71-5.9s2.66-2.19,4.54-2.19c1.93,0,3.44,0.68,4.53,2.05l0.13-1.76
									h2.48v15.47c0,2.05-0.61,3.67-1.82,4.85s-2.85,1.77-4.9,1.77c-1.14,0-2.26-0.24-3.35-0.73s-1.93-1.16-2.5-2.01l1.41-1.63
									c1.16,1.44,2.58,2.15,4.26,2.15c1.32,0,2.35-0.37,3.08-1.11s1.11-1.79,1.11-3.13v-1.36c-1.08,1.25-2.56,1.88-4.44,1.88
									c-1.86,0-3.36-0.75-4.5-2.24S386.87,170.68,386.87,168.1z M389.59,168.41c0,1.79,0.37,3.19,1.1,4.21s1.76,1.53,3.08,1.53
									c1.71,0,2.96-0.78,3.76-2.33v-7.24c-0.83-1.51-2.08-2.27-3.74-2.27c-1.32,0-2.35,0.51-3.09,1.54S389.59,166.4,389.59,168.41
									z"/>
								<path class="st3" d="M427.88,169.39c-0.26,2.26-1.1,4-2.5,5.22s-3.26,1.84-5.59,1.84c-2.52,0-4.54-0.9-6.06-2.71
									s-2.28-4.22-2.28-7.25v-2.05c0-1.98,0.35-3.73,1.06-5.23s1.71-2.66,3.01-3.46s2.8-1.21,4.51-1.21c2.27,0,4.08,0.63,5.45,1.9
									s2.16,3.02,2.39,5.25h-2.83c-0.24-1.7-0.77-2.94-1.59-3.7s-1.96-1.15-3.42-1.15c-1.8,0-3.21,0.66-4.23,1.99
									c-1.02,1.33-1.53,3.22-1.53,5.67v2.07c0,2.32,0.48,4.16,1.45,5.53s2.32,2.05,4.06,2.05c1.56,0,2.76-0.35,3.6-1.06
									s1.39-1.94,1.66-3.7H427.88z"/>
								<path class="st3" d="M430.58,168.09c0-1.55,0.31-2.95,0.92-4.19s1.46-2.2,2.55-2.87s2.33-1.01,3.73-1.01
									c2.16,0,3.9,0.75,5.24,2.24s2,3.48,2,5.96v0.19c0,1.54-0.3,2.93-0.89,4.15s-1.44,2.18-2.53,2.86s-2.36,1.03-3.79,1.03
									c-2.15,0-3.89-0.75-5.22-2.24s-2-3.47-2-5.93V168.09z M433.3,168.41c0,1.76,0.41,3.17,1.22,4.23s1.91,1.6,3.27,1.6
									c1.38,0,2.47-0.54,3.28-1.62s1.22-2.59,1.22-4.53c0-1.74-0.41-3.15-1.24-4.23s-1.92-1.62-3.29-1.62
									c-1.34,0-2.42,0.53-3.24,1.6S433.3,166.43,433.3,168.41z"/>
								<path class="st3" d="M450.95,160.31l0.07,1.76c1.16-1.37,2.73-2.05,4.7-2.05c2.22,0,3.73,0.85,4.53,2.55
									c0.53-0.76,1.21-1.38,2.06-1.85s1.84-0.7,3-0.7c3.48,0,5.24,1.84,5.3,5.52v10.62h-2.71V165.7c0-1.13-0.26-1.98-0.78-2.54
									s-1.39-0.84-2.61-0.84c-1.01,0-1.84,0.3-2.5,0.9s-1.05,1.41-1.16,2.42v10.52h-2.72v-10.39c0-2.3-1.13-3.46-3.38-3.46
									c-1.78,0-2.99,0.76-3.65,2.27v11.57h-2.71v-15.85H450.95z"/>
								<path class="st3" d="M488.09,168.41c0,2.41-0.55,4.36-1.66,5.83s-2.6,2.21-4.48,2.21c-1.92,0-3.44-0.61-4.54-1.83v7.63
									h-2.71v-21.94h2.48l0.13,1.76c1.1-1.37,2.64-2.05,4.6-2.05c1.9,0,3.41,0.72,4.52,2.15s1.66,3.43,1.66,5.99V168.41z
									 M485.38,168.1c0-1.79-0.38-3.2-1.14-4.23s-1.81-1.55-3.13-1.55c-1.64,0-2.87,0.73-3.69,2.18v7.57
									c0.81,1.45,2.05,2.17,3.72,2.17c1.3,0,2.33-0.52,3.1-1.55S485.38,170.13,485.38,168.1z"/>
								<path class="st3" d="M501.31,174.59c-1.05,1.24-2.6,1.86-4.64,1.86c-1.69,0-2.98-0.49-3.86-1.47s-1.33-2.43-1.34-4.36
									v-10.31h2.71v10.24c0,2.4,0.98,3.6,2.93,3.6c2.07,0,3.45-0.77,4.13-2.31v-11.53h2.71v15.85h-2.58L501.31,174.59z"/>
								<path class="st3" d="M511.74,156.47v3.84h2.96v2.09h-2.96v9.84c0,0.64,0.13,1.11,0.4,1.43s0.71,0.48,1.35,0.48
									c0.31,0,0.74-0.06,1.29-0.18v2.18c-0.71,0.19-1.41,0.29-2.08,0.29c-1.21,0-2.12-0.37-2.74-1.1s-0.92-1.77-0.92-3.12v-9.83
									h-2.89v-2.09h2.89v-3.84H511.74z"/>
								<path class="st3" d="M524.44,176.45c-2.15,0-3.9-0.71-5.24-2.12s-2.02-3.3-2.02-5.66v-0.5c0-1.57,0.3-2.98,0.9-4.21
									s1.44-2.2,2.52-2.9s2.25-1.05,3.51-1.05c2.06,0,3.66,0.68,4.8,2.04s1.71,3.3,1.71,5.83v1.13h-10.74
									c0.04,1.56,0.5,2.82,1.37,3.79s1.98,1.44,3.33,1.44c0.96,0,1.77-0.2,2.43-0.59s1.25-0.91,1.74-1.55l1.66,1.29
									C529.09,175.43,527.1,176.45,524.44,176.45z M524.11,162.24c-1.09,0-2.01,0.4-2.75,1.19s-1.2,1.91-1.38,3.35h7.94v-0.21
									c-0.08-1.38-0.45-2.44-1.11-3.2S525.24,162.24,524.11,162.24z"/>
								<path class="st3" d="M541.42,162.74c-0.41-0.07-0.85-0.1-1.33-0.1c-1.78,0-2.98,0.76-3.62,2.27v11.25h-2.71v-15.85h2.64
									l0.04,1.83c0.89-1.42,2.15-2.12,3.78-2.12c0.53,0,0.93,0.07,1.2,0.21V162.74z"/>
							</g>
						</g>
					</g>
					<g>
						<rect x="127.96" y="214.65" class="st4" width="546.77" height="55.6"/>
						<g>
							<path class="st3" d="M287.63,242.46c0,2.09-0.35,3.91-1.05,5.47s-1.7,2.75-2.99,3.57s-2.79,1.23-4.51,1.23
								c-1.68,0-3.17-0.41-4.47-1.24s-2.31-2-3.02-3.53s-1.09-3.3-1.11-5.31v-1.54c0-2.05,0.36-3.86,1.07-5.43s1.72-2.78,3.02-3.61
								s2.8-1.25,4.48-1.25c1.71,0,3.22,0.41,4.52,1.24s2.31,2.02,3.01,3.59s1.05,3.39,1.05,5.47V242.46z M284.84,241.08
								c0-2.53-0.51-4.47-1.52-5.82s-2.44-2.03-4.26-2.03c-1.78,0-3.18,0.68-4.2,2.03s-1.55,3.23-1.57,5.63v1.57
								c0,2.45,0.52,4.38,1.55,5.78s2.45,2.1,4.26,2.1c1.82,0,3.22-0.66,4.22-1.98s1.51-3.22,1.54-5.69V241.08z"/>
							<path class="st3" d="M291.85,252.44v-21.33h6.97c2.31,0,4.06,0.48,5.22,1.44s1.75,2.37,1.75,4.25c0,1-0.28,1.88-0.85,2.64
								s-1.34,1.36-2.31,1.78c1.15,0.32,2.06,0.94,2.73,1.84s1,1.98,1,3.23c0,1.91-0.62,3.42-1.86,4.51s-2.99,1.64-5.26,1.64H291.85
								z M294.67,240.2h4.25c1.23,0,2.21-0.31,2.95-0.92s1.11-1.45,1.11-2.51c0-1.17-0.34-2.03-1.03-2.56s-1.72-0.8-3.12-0.8h-4.16
								V240.2z M294.67,242.46v7.68h4.64c1.31,0,2.34-0.34,3.1-1.02s1.14-1.61,1.14-2.81c0-2.57-1.4-3.85-4.19-3.85H294.67z"/>
							<path class="st3" d="M316.81,242.93c-2.41-0.69-4.17-1.55-5.27-2.56s-1.65-2.26-1.65-3.74c0-1.68,0.67-3.07,2.01-4.17
								s3.09-1.65,5.24-1.65c1.46,0,2.77,0.28,3.92,0.85s2.04,1.35,2.67,2.34s0.94,2.08,0.94,3.27h-2.83c0-1.29-0.41-2.31-1.23-3.05
								s-1.98-1.11-3.47-1.11c-1.39,0-2.47,0.31-3.24,0.92c-0.78,0.61-1.16,1.46-1.16,2.55c0,0.87,0.37,1.61,1.11,2.21
								s1.99,1.15,3.76,1.65s3.16,1.05,4.16,1.65s1.74,1.3,2.23,2.1s0.73,1.74,0.73,2.83c0,1.73-0.67,3.11-2.02,4.15
								s-3.15,1.56-5.41,1.56c-1.46,0-2.83-0.28-4.1-0.84s-2.25-1.33-2.94-2.31s-1.03-2.08-1.03-3.33h2.83
								c0,1.29,0.48,2.31,1.43,3.05s2.22,1.12,3.82,1.12c1.48,0,2.62-0.3,3.41-0.91s1.19-1.43,1.19-2.48s-0.37-1.85-1.1-2.42
								S318.74,243.48,316.81,242.93z"/>
							<path class="st3" d="M351.44,245.67c-0.26,2.26-1.1,4-2.5,5.22s-3.26,1.84-5.59,1.84c-2.52,0-4.54-0.9-6.06-2.71
								s-2.28-4.22-2.28-7.25v-2.05c0-1.98,0.35-3.73,1.06-5.23s1.71-2.66,3.01-3.46s2.8-1.21,4.51-1.21c2.27,0,4.08,0.63,5.45,1.9
								s2.16,3.02,2.39,5.25h-2.83c-0.24-1.7-0.77-2.94-1.59-3.7s-1.96-1.15-3.42-1.15c-1.8,0-3.21,0.66-4.23,1.99
								c-1.02,1.33-1.53,3.22-1.53,5.67v2.07c0,2.32,0.48,4.16,1.45,5.53s2.32,2.05,4.06,2.05c1.56,0,2.76-0.35,3.6-1.06
								s1.39-1.94,1.66-3.7H351.44z"/>
							<path class="st3" d="M364.64,252.44c-0.16-0.31-0.28-0.87-0.38-1.67c-1.26,1.31-2.76,1.96-4.51,1.96
								c-1.56,0-2.84-0.44-3.85-1.33s-1.5-2-1.5-3.36c0-1.65,0.63-2.93,1.88-3.85s3.02-1.37,5.3-1.37h2.64v-1.25
								c0-0.95-0.28-1.7-0.85-2.26s-1.4-0.84-2.5-0.84c-0.97,0-1.78,0.24-2.43,0.73s-0.98,1.08-0.98,1.77h-2.72
								c0-0.79,0.28-1.56,0.84-2.29s1.32-1.32,2.29-1.75s2.02-0.64,3.17-0.64c1.83,0,3.26,0.46,4.29,1.37s1.57,2.17,1.61,3.77v7.29
								c0,1.46,0.19,2.61,0.56,3.47v0.23H364.64z M360.14,250.37c0.85,0,1.66-0.22,2.42-0.66s1.31-1.01,1.66-1.71v-3.25h-2.12
								c-3.32,0-4.98,0.97-4.98,2.92c0,0.85,0.28,1.51,0.85,1.99S359.26,250.37,360.14,250.37z"/>
							<path class="st3" d="M384.56,244.69c0,2.41-0.55,4.36-1.66,5.83s-2.6,2.21-4.48,2.21c-1.92,0-3.44-0.61-4.54-1.83v7.63h-2.71
								v-21.94h2.48l0.13,1.76c1.1-1.37,2.64-2.05,4.6-2.05c1.9,0,3.41,0.72,4.52,2.15s1.66,3.43,1.66,5.99V244.69z M381.85,244.38
								c0-1.79-0.38-3.2-1.14-4.23s-1.81-1.55-3.13-1.55c-1.64,0-2.87,0.73-3.69,2.18v7.57c0.81,1.45,2.05,2.17,3.72,2.17
								c1.3,0,2.33-0.52,3.1-1.55S381.85,246.41,381.85,244.38z"/>
							<path class="st3" d="M391.68,232.75v3.84h2.96v2.09h-2.96v9.84c0,0.64,0.13,1.11,0.4,1.43s0.71,0.48,1.35,0.48
								c0.31,0,0.74-0.06,1.29-0.18v2.18c-0.71,0.19-1.41,0.29-2.08,0.29c-1.21,0-2.12-0.37-2.74-1.1s-0.92-1.77-0.92-3.12v-9.83
								h-2.89v-2.09h2.89v-3.84H391.68z"/>
							<path class="st3" d="M407.59,250.87c-1.05,1.24-2.6,1.86-4.64,1.86c-1.69,0-2.98-0.49-3.86-1.47s-1.33-2.43-1.34-4.36v-10.31
								h2.71v10.24c0,2.4,0.98,3.6,2.93,3.6c2.07,0,3.45-0.77,4.13-2.31v-11.53h2.71v15.85h-2.58L407.59,250.87z"/>
							<path class="st3" d="M422,239.02c-0.41-0.07-0.85-0.1-1.33-0.1c-1.78,0-2.98,0.76-3.62,2.27v11.25h-2.71v-15.85h2.64
								l0.04,1.83c0.89-1.42,2.15-2.12,3.78-2.12c0.53,0,0.93,0.07,1.2,0.21V239.02z"/>
							<path class="st3" d="M430.79,252.73c-2.15,0-3.9-0.71-5.24-2.12s-2.02-3.3-2.02-5.66v-0.5c0-1.57,0.3-2.98,0.9-4.21
								s1.44-2.2,2.52-2.9s2.25-1.05,3.51-1.05c2.06,0,3.66,0.68,4.8,2.04s1.71,3.3,1.71,5.83v1.13h-10.74
								c0.04,1.56,0.5,2.82,1.37,3.79s1.98,1.44,3.33,1.44c0.96,0,1.77-0.2,2.43-0.59s1.25-0.91,1.74-1.55l1.66,1.29
								C435.44,251.71,433.45,252.73,430.79,252.73z M430.46,238.52c-1.09,0-2.01,0.4-2.75,1.19s-1.2,1.91-1.38,3.35h7.94v-0.21
								c-0.08-1.38-0.45-2.44-1.11-3.2S431.59,238.52,430.46,238.52z"/>
							<path class="st3" d="M446.97,246.71c0-1.03,0.29-1.97,0.86-2.83s1.66-1.86,3.27-3c-0.95-1.15-1.58-2.08-1.9-2.78
								s-0.48-1.4-0.48-2.09c0-1.62,0.48-2.89,1.44-3.81s2.26-1.38,3.9-1.38c1.46,0,2.68,0.43,3.63,1.28s1.44,1.93,1.44,3.23
								c0,0.86-0.22,1.65-0.65,2.38s-1.19,1.49-2.28,2.29l-1.57,1.16l4.75,5.67c0.66-1.27,1-2.68,1-4.23h2.45
								c0,2.49-0.6,4.56-1.8,6.2l3.05,3.65h-3.25l-1.42-1.68c-0.72,0.64-1.57,1.14-2.54,1.47s-1.96,0.51-2.97,0.51
								c-2.08,0-3.75-0.55-5.01-1.66S446.97,248.51,446.97,246.71z M453.86,250.52c1.44,0,2.75-0.55,3.94-1.64l-5.2-6.23l-0.48,0.35
								c-1.63,1.2-2.45,2.44-2.45,3.71c0,1.15,0.37,2.08,1.12,2.77S452.57,250.52,453.86,250.52z M451.42,235.91
								c0,0.94,0.58,2.11,1.73,3.52l1.73-1.22c0.66-0.47,1.12-0.92,1.36-1.34s0.37-0.94,0.37-1.55c0-0.65-0.24-1.2-0.73-1.63
								s-1.1-0.65-1.85-0.65c-0.8,0-1.44,0.27-1.9,0.81S451.42,235.08,451.42,235.91z"/>
							<path class="st3" d="M480.32,242.93c-2.41-0.69-4.17-1.55-5.27-2.56s-1.65-2.26-1.65-3.74c0-1.68,0.67-3.07,2.01-4.17
								s3.09-1.65,5.24-1.65c1.46,0,2.77,0.28,3.92,0.85s2.04,1.35,2.67,2.34s0.94,2.08,0.94,3.27h-2.83c0-1.29-0.41-2.31-1.23-3.05
								s-1.98-1.11-3.47-1.11c-1.39,0-2.47,0.31-3.24,0.92c-0.78,0.61-1.16,1.46-1.16,2.55c0,0.87,0.37,1.61,1.11,2.21
								s1.99,1.15,3.76,1.65s3.16,1.05,4.16,1.65s1.74,1.3,2.23,2.1s0.73,1.74,0.73,2.83c0,1.73-0.67,3.11-2.02,4.15
								s-3.15,1.56-5.41,1.56c-1.46,0-2.83-0.28-4.1-0.84s-2.25-1.33-2.94-2.31s-1.03-2.08-1.03-3.33h2.83
								c0,1.29,0.48,2.31,1.43,3.05s2.22,1.12,3.82,1.12c1.48,0,2.62-0.3,3.41-0.91s1.19-1.43,1.19-2.48s-0.37-1.85-1.1-2.42
								S482.24,243.48,480.32,242.93z"/>
							<path class="st3" d="M495.09,232.75v3.84h2.96v2.09h-2.96v9.84c0,0.64,0.13,1.11,0.4,1.43s0.71,0.48,1.35,0.48
								c0.31,0,0.74-0.06,1.29-0.18v2.18c-0.71,0.19-1.41,0.29-2.08,0.29c-1.21,0-2.12-0.37-2.74-1.1s-0.92-1.77-0.92-3.12v-9.83
								h-2.89v-2.09h2.89v-3.84H495.09z"/>
							<path class="st3" d="M508.87,239.02c-0.41-0.07-0.85-0.1-1.33-0.1c-1.78,0-2.98,0.76-3.62,2.27v11.25h-2.71v-15.85h2.64
								l0.04,1.83c0.89-1.42,2.15-2.12,3.78-2.12c0.53,0,0.93,0.07,1.2,0.21V239.02z"/>
							<path class="st3" d="M517.66,252.73c-2.15,0-3.9-0.71-5.24-2.12s-2.02-3.3-2.02-5.66v-0.5c0-1.57,0.3-2.98,0.9-4.21
								s1.44-2.2,2.52-2.9s2.25-1.05,3.51-1.05c2.06,0,3.66,0.68,4.8,2.04s1.71,3.3,1.71,5.83v1.13H513.1
								c0.04,1.56,0.5,2.82,1.37,3.79s1.98,1.44,3.33,1.44c0.96,0,1.77-0.2,2.43-0.59s1.25-0.91,1.74-1.55l1.66,1.29
								C522.31,251.71,520.31,252.73,517.66,252.73z M517.32,238.52c-1.09,0-2.01,0.4-2.75,1.19s-1.2,1.91-1.38,3.35h7.94v-0.21
								c-0.08-1.38-0.45-2.44-1.11-3.2S518.45,238.52,517.32,238.52z"/>
							<path class="st3" d="M536.76,252.44c-0.16-0.31-0.28-0.87-0.38-1.67c-1.26,1.31-2.76,1.96-4.51,1.96
								c-1.56,0-2.84-0.44-3.85-1.33s-1.5-2-1.5-3.36c0-1.65,0.63-2.93,1.88-3.85s3.02-1.37,5.3-1.37h2.64v-1.25
								c0-0.95-0.28-1.7-0.85-2.26s-1.4-0.84-2.5-0.84c-0.97,0-1.78,0.24-2.43,0.73s-0.98,1.08-0.98,1.77h-2.72
								c0-0.79,0.28-1.56,0.84-2.29s1.32-1.32,2.29-1.75s2.02-0.64,3.17-0.64c1.83,0,3.26,0.46,4.29,1.37s1.57,2.17,1.61,3.77v7.29
								c0,1.46,0.19,2.61,0.56,3.47v0.23H536.76z M532.26,250.37c0.85,0,1.66-0.22,2.42-0.66s1.31-1.01,1.66-1.71v-3.25h-2.12
								c-3.32,0-4.98,0.97-4.98,2.92c0,0.85,0.28,1.51,0.85,1.99S531.37,250.37,532.26,250.37z"/>
							<path class="st3" d="M545.84,236.59l0.07,1.76c1.16-1.37,2.73-2.05,4.7-2.05c2.22,0,3.73,0.85,4.53,2.55
								c0.53-0.76,1.21-1.38,2.06-1.85s1.84-0.7,3-0.7c3.48,0,5.24,1.84,5.3,5.52v10.62h-2.71v-10.46c0-1.13-0.26-1.98-0.78-2.54
								s-1.39-0.84-2.61-0.84c-1.01,0-1.84,0.3-2.5,0.9s-1.05,1.41-1.16,2.42v10.52h-2.72v-10.39c0-2.3-1.13-3.46-3.38-3.46
								c-1.78,0-2.99,0.76-3.65,2.27v11.57h-2.71v-15.85H545.84z"/>
						</g>
					</g>
					<g>
						<rect x="127.96" y="289.5" class="st4" width="546.77" height="55.6"/>
						<g>
							<path class="st3" d="M308.15,324.99h10.11v2.3h-12.93v-21.33h2.83V324.99z"/>
							<path class="st3" d="M321.05,307.23c0-0.44,0.13-0.81,0.4-1.11s0.67-0.45,1.19-0.45s0.93,0.15,1.2,0.45s0.41,0.67,0.41,1.11
								s-0.14,0.81-0.41,1.1s-0.67,0.44-1.2,0.44s-0.93-0.15-1.19-0.44S321.05,307.67,321.05,307.23z M323.98,327.29h-2.71v-15.85
								h2.71V327.29z"/>
							<path class="st3" d="M333.55,323.61l3.93-12.17h2.77l-5.68,15.85h-2.07l-5.74-15.85h2.77L333.55,323.61z"/>
							<path class="st3" d="M349.23,327.58c-2.15,0-3.9-0.71-5.24-2.12s-2.02-3.3-2.02-5.66v-0.5c0-1.57,0.3-2.98,0.9-4.21
								s1.44-2.2,2.52-2.9s2.25-1.05,3.51-1.05c2.06,0,3.66,0.68,4.8,2.04s1.71,3.3,1.71,5.83v1.13h-10.74
								c0.04,1.56,0.5,2.82,1.37,3.79s1.98,1.44,3.33,1.44c0.96,0,1.77-0.2,2.43-0.59s1.25-0.91,1.74-1.55l1.66,1.29
								C353.88,326.56,351.89,327.58,349.23,327.58z M348.9,313.37c-1.09,0-2.01,0.4-2.75,1.19s-1.2,1.91-1.38,3.35h7.94v-0.21
								c-0.08-1.38-0.45-2.44-1.11-3.2S350.03,313.37,348.9,313.37z"/>
							<path class="st3" d="M365.26,317.78c-2.41-0.69-4.17-1.55-5.27-2.56s-1.65-2.26-1.65-3.74c0-1.68,0.67-3.07,2.01-4.17
								s3.09-1.65,5.24-1.65c1.46,0,2.77,0.28,3.92,0.85s2.04,1.35,2.67,2.34s0.94,2.08,0.94,3.27h-2.83c0-1.29-0.41-2.31-1.23-3.05
								s-1.98-1.11-3.47-1.11c-1.39,0-2.47,0.31-3.24,0.92c-0.78,0.61-1.16,1.46-1.16,2.55c0,0.87,0.37,1.61,1.11,2.21
								s1.99,1.15,3.76,1.65s3.16,1.05,4.16,1.65s1.74,1.3,2.23,2.1s0.73,1.74,0.73,2.83c0,1.73-0.67,3.11-2.02,4.15
								s-3.15,1.56-5.41,1.56c-1.46,0-2.83-0.28-4.1-0.84s-2.25-1.33-2.94-2.31s-1.03-2.08-1.03-3.33h2.83
								c0,1.29,0.48,2.31,1.43,3.05s2.22,1.12,3.82,1.12c1.48,0,2.62-0.3,3.41-0.91s1.19-1.43,1.19-2.48s-0.37-1.85-1.1-2.42
								S367.18,318.34,365.26,317.78z"/>
							<path class="st3" d="M389.74,319.54c0,2.41-0.55,4.36-1.66,5.83s-2.6,2.21-4.48,2.21c-1.92,0-3.44-0.61-4.54-1.83v7.63h-2.71
								v-21.94h2.48l0.13,1.76c1.1-1.37,2.64-2.05,4.6-2.05c1.9,0,3.41,0.72,4.52,2.15s1.66,3.43,1.66,5.99V319.54z M387.03,319.23
								c0-1.79-0.38-3.2-1.14-4.23s-1.81-1.55-3.13-1.55c-1.64,0-2.87,0.73-3.69,2.18v7.57c0.81,1.45,2.05,2.17,3.72,2.17
								c1.3,0,2.33-0.52,3.1-1.55S387.03,321.26,387.03,319.23z"/>
							<path class="st3" d="M396.12,327.29h-2.71v-22.5h2.71V327.29z"/>
							<path class="st3" d="M400.47,307.23c0-0.44,0.13-0.81,0.4-1.11s0.67-0.45,1.19-0.45s0.93,0.15,1.2,0.45s0.41,0.67,0.41,1.11
								s-0.14,0.81-0.41,1.1s-0.67,0.44-1.2,0.44s-0.93-0.15-1.19-0.44S400.47,307.67,400.47,307.23z M403.4,327.29h-2.71v-15.85
								h2.71V327.29z"/>
							<path class="st3" d="M411.42,307.6v3.84h2.96v2.09h-2.96v9.84c0,0.64,0.13,1.11,0.4,1.43s0.71,0.48,1.35,0.48
								c0.31,0,0.74-0.06,1.29-0.18v2.18c-0.71,0.19-1.41,0.29-2.08,0.29c-1.21,0-2.12-0.37-2.74-1.1s-0.92-1.77-0.92-3.12v-9.83
								h-2.89v-2.09h2.89v-3.84H411.42z"/>
							<path class="st3" d="M439.54,308.26h-6.86v19.03h-2.8v-19.03h-6.84v-2.3h16.49V308.26z"/>
							<path class="st3" d="M442.3,307.23c0-0.44,0.13-0.81,0.4-1.11s0.67-0.45,1.19-0.45s0.93,0.15,1.2,0.45s0.41,0.67,0.41,1.11
								s-0.14,0.81-0.41,1.1s-0.67,0.44-1.2,0.44s-0.93-0.15-1.19-0.44S442.3,307.67,442.3,307.23z M445.23,327.29h-2.71v-15.85
								h2.71V327.29z"/>
							<path class="st3" d="M452.11,311.44l0.07,1.76c1.16-1.37,2.73-2.05,4.7-2.05c2.22,0,3.73,0.85,4.53,2.55
								c0.53-0.76,1.21-1.38,2.06-1.85s1.84-0.7,3-0.7c3.48,0,5.24,1.84,5.3,5.52v10.62h-2.71v-10.46c0-1.13-0.26-1.98-0.78-2.54
								s-1.39-0.84-2.61-0.84c-1.01,0-1.84,0.3-2.5,0.9s-1.05,1.41-1.16,2.42v10.52h-2.72V316.9c0-2.3-1.13-3.46-3.38-3.46
								c-1.78,0-2.99,0.76-3.65,2.27v11.57h-2.71v-15.85H452.11z"/>
							<path class="st3" d="M482.43,327.58c-2.15,0-3.9-0.71-5.24-2.12s-2.02-3.3-2.02-5.66v-0.5c0-1.57,0.3-2.98,0.9-4.21
								s1.44-2.2,2.52-2.9s2.25-1.05,3.51-1.05c2.06,0,3.66,0.68,4.8,2.04s1.71,3.3,1.71,5.83v1.13h-10.74
								c0.04,1.56,0.5,2.82,1.37,3.79s1.98,1.44,3.33,1.44c0.96,0,1.77-0.2,2.43-0.59s1.25-0.91,1.74-1.55l1.66,1.29
								C487.08,326.56,485.09,327.58,482.43,327.58z M482.1,313.37c-1.09,0-2.01,0.4-2.75,1.19s-1.2,1.91-1.38,3.35h7.94v-0.21
								c-0.08-1.38-0.45-2.44-1.11-3.2S483.23,313.37,482.1,313.37z"/>
							<path class="st3" d="M499.41,313.87c-0.41-0.07-0.85-0.1-1.33-0.1c-1.78,0-2.98,0.76-3.62,2.27v11.25h-2.71v-15.85h2.64
								l0.04,1.83c0.89-1.42,2.15-2.12,3.78-2.12c0.53,0,0.93,0.07,1.2,0.21V313.87z"/>
						</g>
					</g>
				</g>
				<g>
					<g>
						<path class="st1" d="M1750.36,368.63h-574.62c-3.73,0-6.75-3.02-6.75-6.75V146.55c0-3.73,3.02-6.75,6.75-6.75h574.62
							c3.73,0,6.75,3.02,6.75,6.75v215.33C1757.11,365.61,1754.09,368.63,1750.36,368.63z"/>
						<g>
							<path class="st2" d="M1757.11,195.41h-588.12v-44.27c0-6.26,5.08-11.34,11.34-11.34h565.44c6.26,0,11.34,5.08,11.34,11.34
								V195.41z"/>
							<g>
								<path class="st3" d="M1361.34,173.36c-0.72,1.04-1.73,1.81-3.03,2.32s-2.8,0.77-4.52,0.77c-1.74,0-3.28-0.41-4.63-1.22
									s-2.39-1.98-3.13-3.48s-1.12-3.25-1.13-5.23v-1.86c0-3.21,0.75-5.7,2.25-7.47s3.61-2.65,6.32-2.65
									c2.23,0,4.02,0.57,5.38,1.71s2.19,2.75,2.49,4.84h-2.81c-0.53-2.83-2.21-4.25-5.04-4.25c-1.88,0-3.31,0.66-4.29,1.99
									s-1.46,3.24-1.47,5.75v1.74c0,2.39,0.55,4.3,1.64,5.71c1.09,1.41,2.57,2.12,4.44,2.12c1.05,0,1.98-0.12,2.77-0.35
									s1.45-0.63,1.96-1.18v-4.78h-4.94v-2.3h7.73V173.36z"/>
								<path class="st3" d="M1375.38,176.16c-0.16-0.31-0.28-0.87-0.38-1.67c-1.26,1.31-2.76,1.96-4.51,1.96
									c-1.56,0-2.84-0.44-3.84-1.33s-1.5-2-1.5-3.36c0-1.65,0.63-2.93,1.88-3.85s3.02-1.37,5.3-1.37h2.64v-1.25
									c0-0.95-0.28-1.7-0.85-2.26s-1.4-0.84-2.51-0.84c-0.97,0-1.78,0.24-2.43,0.73s-0.98,1.08-0.98,1.77h-2.72
									c0-0.79,0.28-1.56,0.84-2.29s1.32-1.32,2.29-1.75s2.02-0.64,3.17-0.64c1.83,0,3.26,0.46,4.29,1.37s1.57,2.17,1.61,3.77v7.29
									c0,1.46,0.19,2.61,0.56,3.47v0.23H1375.38z M1370.89,174.09c0.85,0,1.65-0.22,2.42-0.66s1.31-1.01,1.66-1.71v-3.25h-2.13
									c-3.32,0-4.98,0.97-4.98,2.92c0,0.85,0.28,1.51,0.85,1.99S1370,174.09,1370.89,174.09z"/>
								<path class="st3" d="M1384.46,160.31l0.07,1.76c1.16-1.37,2.73-2.05,4.7-2.05c2.22,0,3.73,0.85,4.53,2.55
									c0.53-0.76,1.21-1.38,2.06-1.85s1.84-0.7,3-0.7c3.48,0,5.24,1.84,5.3,5.52v10.62h-2.71V165.7c0-1.13-0.26-1.98-0.78-2.54
									s-1.39-0.84-2.61-0.84c-1.01,0-1.84,0.3-2.5,0.9s-1.05,1.41-1.16,2.42v10.52h-2.72v-10.39c0-2.3-1.13-3.46-3.38-3.46
									c-1.78,0-2.99,0.76-3.65,2.27v11.57h-2.71v-15.85H1384.46z"/>
								<path class="st3" d="M1408.22,156.1c0-0.44,0.13-0.81,0.4-1.11s0.67-0.45,1.19-0.45s0.93,0.15,1.2,0.45s0.41,0.67,0.41,1.11
									s-0.14,0.81-0.41,1.1s-0.67,0.44-1.2,0.44s-0.93-0.15-1.19-0.44S1408.22,156.54,1408.22,156.1z M1411.15,176.16h-2.71
									v-15.85h2.71V176.16z"/>
								<path class="st3" d="M1418.05,160.31l0.09,1.99c1.21-1.52,2.79-2.29,4.75-2.29c3.35,0,5.04,1.89,5.07,5.67v10.47h-2.71
									v-10.49c-0.01-1.14-0.27-1.99-0.78-2.53s-1.31-0.82-2.39-0.82c-0.88,0-1.65,0.23-2.31,0.7s-1.18,1.08-1.55,1.85v11.29h-2.71
									v-15.85H1418.05z"/>
								<path class="st3" d="M1431.4,168.1c0-2.47,0.57-4.44,1.71-5.9s2.66-2.19,4.54-2.19c1.93,0,3.44,0.68,4.53,2.05l0.13-1.76
									h2.47v15.47c0,2.05-0.61,3.67-1.82,4.85s-2.85,1.77-4.9,1.77c-1.14,0-2.26-0.24-3.36-0.73s-1.93-1.16-2.5-2.01l1.41-1.63
									c1.16,1.44,2.58,2.15,4.26,2.15c1.32,0,2.35-0.37,3.08-1.11s1.11-1.79,1.11-3.13v-1.36c-1.08,1.25-2.56,1.88-4.44,1.88
									c-1.86,0-3.36-0.75-4.5-2.24S1431.4,170.68,1431.4,168.1z M1434.12,168.41c0,1.79,0.37,3.19,1.1,4.21s1.76,1.53,3.08,1.53
									c1.71,0,2.96-0.78,3.76-2.33v-7.24c-0.83-1.51-2.07-2.27-3.73-2.27c-1.32,0-2.35,0.51-3.09,1.54
									S1434.12,166.4,1434.12,168.41z"/>
								<path class="st3" d="M1472.41,169.39c-0.26,2.26-1.1,4-2.5,5.22s-3.26,1.84-5.59,1.84c-2.52,0-4.54-0.9-6.06-2.71
									s-2.28-4.22-2.28-7.25v-2.05c0-1.98,0.35-3.73,1.06-5.23s1.71-2.66,3.01-3.46s2.8-1.21,4.51-1.21c2.27,0,4.08,0.63,5.45,1.9
									s2.16,3.02,2.39,5.25h-2.83c-0.24-1.7-0.77-2.94-1.59-3.7s-1.96-1.15-3.42-1.15c-1.8,0-3.21,0.66-4.23,1.99
									c-1.02,1.33-1.53,3.22-1.53,5.67v2.07c0,2.32,0.48,4.16,1.45,5.53s2.32,2.05,4.06,2.05c1.56,0,2.76-0.35,3.6-1.06
									s1.39-1.94,1.66-3.7H1472.41z"/>
								<path class="st3" d="M1475.11,168.09c0-1.55,0.31-2.95,0.92-4.19s1.46-2.2,2.55-2.87s2.33-1.01,3.73-1.01
									c2.16,0,3.9,0.75,5.24,2.24s2,3.48,2,5.96v0.19c0,1.54-0.3,2.93-0.89,4.15s-1.44,2.18-2.53,2.86s-2.36,1.03-3.79,1.03
									c-2.15,0-3.89-0.75-5.22-2.24s-2-3.47-2-5.93V168.09z M1477.83,168.41c0,1.76,0.41,3.17,1.22,4.23s1.91,1.6,3.27,1.6
									c1.38,0,2.47-0.54,3.28-1.62s1.21-2.59,1.21-4.53c0-1.74-0.41-3.15-1.24-4.23s-1.92-1.62-3.29-1.62
									c-1.34,0-2.42,0.53-3.24,1.6S1477.83,166.43,1477.83,168.41z"/>
								<path class="st3" d="M1495.49,160.31l0.07,1.76c1.16-1.37,2.73-2.05,4.7-2.05c2.22,0,3.72,0.85,4.53,2.55
									c0.53-0.76,1.21-1.38,2.06-1.85s1.84-0.7,3-0.7c3.48,0,5.24,1.84,5.3,5.52v10.62h-2.71V165.7c0-1.13-0.26-1.98-0.78-2.54
									s-1.39-0.84-2.61-0.84c-1.01,0-1.84,0.3-2.51,0.9s-1.05,1.41-1.16,2.42v10.52h-2.72v-10.39c0-2.3-1.13-3.46-3.38-3.46
									c-1.78,0-2.99,0.76-3.65,2.27v11.57h-2.71v-15.85H1495.49z"/>
								<path class="st3" d="M1532.62,168.41c0,2.41-0.55,4.36-1.65,5.83s-2.6,2.21-4.48,2.21c-1.92,0-3.44-0.61-4.54-1.83v7.63
									h-2.71v-21.94h2.48l0.13,1.76c1.1-1.37,2.64-2.05,4.6-2.05c1.9,0,3.41,0.72,4.52,2.15s1.66,3.43,1.66,5.99V168.41z
									 M1529.91,168.1c0-1.79-0.38-3.2-1.14-4.23s-1.81-1.55-3.13-1.55c-1.64,0-2.87,0.73-3.69,2.18v7.57
									c0.81,1.45,2.05,2.17,3.72,2.17c1.3,0,2.33-0.52,3.1-1.55S1529.91,170.13,1529.91,168.1z"/>
								<path class="st3" d="M1545.85,174.59c-1.05,1.24-2.6,1.86-4.64,1.86c-1.69,0-2.98-0.49-3.86-1.47s-1.33-2.43-1.34-4.36
									v-10.31h2.71v10.24c0,2.4,0.98,3.6,2.93,3.6c2.07,0,3.45-0.77,4.13-2.31v-11.53h2.71v15.85h-2.58L1545.85,174.59z"/>
								<path class="st3" d="M1556.28,156.47v3.84h2.96v2.09h-2.96v9.84c0,0.64,0.13,1.11,0.39,1.43s0.71,0.48,1.35,0.48
									c0.31,0,0.74-0.06,1.29-0.18v2.18c-0.71,0.19-1.41,0.29-2.08,0.29c-1.21,0-2.12-0.37-2.74-1.1s-0.92-1.77-0.92-3.12v-9.83
									h-2.88v-2.09h2.88v-3.84H1556.28z"/>
								<path class="st3" d="M1568.98,176.45c-2.15,0-3.9-0.71-5.24-2.12s-2.02-3.3-2.02-5.66v-0.5c0-1.57,0.3-2.98,0.9-4.21
									s1.44-2.2,2.52-2.9s2.25-1.05,3.51-1.05c2.06,0,3.66,0.68,4.8,2.04s1.71,3.3,1.71,5.83v1.13h-10.74
									c0.04,1.56,0.5,2.82,1.37,3.79s1.98,1.44,3.33,1.44c0.96,0,1.77-0.2,2.43-0.59s1.25-0.91,1.74-1.55l1.65,1.29
									C1573.63,175.43,1571.63,176.45,1568.98,176.45z M1568.64,162.24c-1.09,0-2.01,0.4-2.75,1.19s-1.2,1.91-1.38,3.35h7.94
									v-0.21c-0.08-1.38-0.45-2.44-1.11-3.2S1569.77,162.24,1568.64,162.24z"/>
								<path class="st3" d="M1585.96,162.74c-0.41-0.07-0.86-0.1-1.33-0.1c-1.78,0-2.98,0.76-3.62,2.27v11.25h-2.71v-15.85h2.64
									l0.04,1.83c0.89-1.42,2.15-2.12,3.78-2.12c0.53,0,0.93,0.07,1.2,0.21V162.74z"/>
							</g>
						</g>
					</g>
					<g>
						<rect x="1189.67" y="215.26" class="st4" width="546.77" height="55.6"/>
						<g>
							<path class="st3" d="M1442.05,249.03c-0.72,1.04-1.73,1.81-3.02,2.32s-2.8,0.77-4.52,0.77c-1.74,0-3.28-0.41-4.63-1.22
								s-2.39-1.98-3.13-3.48s-1.12-3.25-1.14-5.23v-1.86c0-3.21,0.75-5.7,2.25-7.47s3.61-2.65,6.32-2.65
								c2.23,0,4.02,0.57,5.38,1.71s2.19,2.75,2.49,4.84h-2.81c-0.53-2.83-2.21-4.25-5.04-4.25c-1.88,0-3.31,0.66-4.28,1.99
								s-1.46,3.24-1.47,5.75v1.74c0,2.39,0.55,4.3,1.64,5.71c1.09,1.41,2.57,2.12,4.44,2.12c1.05,0,1.98-0.12,2.77-0.35
								s1.45-0.63,1.96-1.18v-4.78h-4.94v-2.3h7.73V249.03z"/>
							<path class="st3" d="M1456.1,251.83c-0.16-0.31-0.28-0.87-0.38-1.67c-1.26,1.31-2.76,1.96-4.51,1.96
								c-1.56,0-2.84-0.44-3.84-1.33s-1.5-2-1.5-3.36c0-1.65,0.63-2.93,1.88-3.85s3.02-1.37,5.29-1.37h2.64v-1.25
								c0-0.95-0.28-1.7-0.85-2.26s-1.4-0.84-2.5-0.84c-0.97,0-1.78,0.24-2.43,0.73s-0.98,1.08-0.98,1.77h-2.72
								c0-0.79,0.28-1.56,0.84-2.29s1.32-1.32,2.29-1.75s2.02-0.64,3.17-0.64c1.83,0,3.26,0.46,4.29,1.37s1.57,2.17,1.61,3.77v7.29
								c0,1.46,0.19,2.61,0.56,3.47v0.23H1456.1z M1451.61,249.76c0.85,0,1.66-0.22,2.42-0.66s1.31-1.01,1.66-1.71v-3.25h-2.12
								c-3.32,0-4.98,0.97-4.98,2.92c0,0.85,0.28,1.51,0.85,1.99S1450.72,249.76,1451.61,249.76z"/>
							<path class="st3" d="M1465.18,235.98l0.07,1.76c1.16-1.37,2.73-2.05,4.7-2.05c2.22,0,3.73,0.85,4.53,2.55
								c0.53-0.76,1.21-1.38,2.06-1.85s1.84-0.7,3-0.7c3.48,0,5.24,1.84,5.3,5.52v10.62h-2.71v-10.46c0-1.13-0.26-1.98-0.78-2.54
								s-1.39-0.84-2.61-0.84c-1.01,0-1.84,0.3-2.5,0.9s-1.05,1.41-1.16,2.42v10.52h-2.72v-10.39c0-2.3-1.13-3.46-3.38-3.46
								c-1.78,0-2.99,0.76-3.65,2.27v11.57h-2.71v-15.85H1465.18z"/>
							<path class="st3" d="M1495.51,252.12c-2.15,0-3.9-0.71-5.24-2.12s-2.02-3.3-2.02-5.66v-0.5c0-1.57,0.3-2.98,0.9-4.21
								s1.44-2.2,2.52-2.9s2.25-1.05,3.51-1.05c2.06,0,3.66,0.68,4.8,2.04s1.71,3.3,1.71,5.83v1.13h-10.74
								c0.04,1.56,0.5,2.82,1.37,3.79s1.98,1.44,3.33,1.44c0.96,0,1.77-0.2,2.43-0.59s1.25-0.91,1.74-1.55l1.66,1.29
								C1500.16,251.1,1498.16,252.12,1495.51,252.12z M1495.17,237.91c-1.09,0-2.01,0.4-2.75,1.19s-1.2,1.91-1.38,3.35h7.94v-0.21
								c-0.08-1.38-0.45-2.44-1.11-3.2S1496.3,237.91,1495.17,237.91z"/>
						</g>
					</g>
					<g>
						<rect x="1189.67" y="294.39" class="st5" width="546.77" height="55.6"/>
						<g>
							<path class="st3" d="M1442.15,328.66h10.11v2.3h-12.93v-21.33h2.83V328.66z"/>
							<path class="st3" d="M1461.75,321.45c-2.41-0.69-4.17-1.55-5.27-2.56s-1.65-2.26-1.65-3.74c0-1.68,0.67-3.07,2.01-4.17
								s3.09-1.65,5.24-1.65c1.46,0,2.77,0.28,3.92,0.85s2.04,1.35,2.67,2.34s0.95,2.08,0.95,3.27h-2.83c0-1.29-0.41-2.31-1.23-3.05
								s-1.98-1.11-3.47-1.11c-1.39,0-2.47,0.31-3.25,0.92c-0.78,0.61-1.16,1.46-1.16,2.55c0,0.87,0.37,1.61,1.11,2.21
								s1.99,1.15,3.76,1.65s3.16,1.05,4.16,1.65s1.74,1.3,2.23,2.1s0.73,1.74,0.73,2.83c0,1.73-0.67,3.11-2.02,4.15
								s-3.15,1.56-5.41,1.56c-1.46,0-2.83-0.28-4.1-0.84s-2.25-1.33-2.94-2.31s-1.03-2.08-1.03-3.33h2.83
								c0,1.29,0.48,2.31,1.43,3.05s2.22,1.12,3.82,1.12c1.48,0,2.62-0.3,3.41-0.91s1.19-1.43,1.19-2.48s-0.37-1.85-1.1-2.42
								S1463.67,322.01,1461.75,321.45z"/>
							<path class="st3" d="M1481.09,322.33h-5.01v8.63h-2.83v-21.33h7.06c2.4,0,4.25,0.55,5.54,1.64s1.94,2.69,1.94,4.78
								c0,1.33-0.36,2.49-1.08,3.47s-1.72,1.72-3,2.21l5.01,9.05v0.18h-3.02L1481.09,322.33z M1476.08,320.03h4.32
								c1.4,0,2.51-0.36,3.33-1.09c0.83-0.72,1.24-1.69,1.24-2.91c0-1.32-0.39-2.33-1.18-3.04s-1.92-1.06-3.41-1.07h-4.31V320.03z"
								/>
						</g>
					</g>
				</g>
				<g>
					<g>
						<line class="st6" x1="1138.1" y1="254.22" x2="1135.1" y2="254.22"/>
						<line class="st7" x1="1129.13" y1="254.22" x2="750.02" y2="254.22"/>
						<line class="st6" x1="747.03" y1="254.22" x2="744.03" y2="254.22"/>
						<g>
							<polygon class="st2" points="748.7,238.26 721.07,254.22 748.7,270.17 							"/>
						</g>
					</g>
				</g>
			</g>
			<path class="st8" d="M1773.48,396.73H87.82c-5.79,0-10.48-4.69-10.48-10.48V62.89c0-5.79,4.69-10.48,10.48-10.48h1685.66
				c5.79,0,10.48,4.69,10.48,10.48v323.36C1783.96,392.04,1779.27,396.73,1773.48,396.73z"/>
			<g>
				<path class="st9" d="M117.15,90.98c0-0.73-0.28-1.3-0.83-1.71s-1.51-0.75-2.89-1.05s-2.46-0.64-3.27-1.05s-1.4-0.9-1.79-1.46
					s-0.58-1.24-0.58-2.02c0-1.3,0.55-2.4,1.65-3.3s2.5-1.35,4.21-1.35c1.8,0,3.25,0.46,4.37,1.39s1.68,2.11,1.68,3.56h-2.72
					c0-0.74-0.31-1.38-0.94-1.92s-1.42-0.81-2.38-0.81c-0.99,0-1.76,0.21-2.31,0.64s-0.83,0.99-0.83,1.68
					c0,0.65,0.26,1.15,0.78,1.48s1.45,0.65,2.81,0.95s2.45,0.66,3.29,1.08s1.46,0.93,1.87,1.52s0.61,1.31,0.61,2.16
					c0,1.42-0.57,2.55-1.7,3.41s-2.6,1.28-4.41,1.28c-1.27,0-2.39-0.22-3.37-0.67s-1.74-1.08-2.29-1.88s-0.83-1.68-0.83-2.61h2.71
					c0.05,0.91,0.41,1.63,1.09,2.16s1.57,0.8,2.69,0.8c1.03,0,1.85-0.21,2.47-0.62S117.15,91.68,117.15,90.98z"/>
				<path class="st9" d="M129.97,95.48c-2.15,0-3.9-0.71-5.24-2.12s-2.02-3.3-2.02-5.66v-0.5c0-1.57,0.3-2.98,0.9-4.21
					s1.44-2.2,2.52-2.9s2.25-1.05,3.51-1.05c2.06,0,3.66,0.68,4.8,2.04s1.71,3.3,1.71,5.83v1.13h-10.74
					c0.04,1.56,0.5,2.82,1.37,3.79s1.98,1.44,3.33,1.44c0.96,0,1.77-0.2,2.43-0.59s1.25-0.91,1.74-1.55l1.66,1.29
					C134.62,94.46,132.63,95.48,129.97,95.48z M129.63,81.27c-1.09,0-2.01,0.4-2.75,1.19s-1.2,1.91-1.38,3.35h7.94v-0.21
					c-0.08-1.38-0.45-2.44-1.11-3.2S130.77,81.27,129.63,81.27z"/>
				<path class="st9" d="M142.96,75.5v3.84h2.96v2.09h-2.96v9.84c0,0.64,0.13,1.11,0.4,1.43s0.71,0.48,1.35,0.48
					c0.31,0,0.74-0.06,1.29-0.18v2.18c-0.71,0.19-1.41,0.29-2.08,0.29c-1.21,0-2.12-0.37-2.74-1.1s-0.92-1.77-0.92-3.12v-9.83h-2.89
					v-2.09h2.89V75.5H142.96z"/>
				<path class="st9" d="M158.87,93.62c-1.05,1.24-2.6,1.86-4.64,1.86c-1.69,0-2.98-0.49-3.86-1.47s-1.33-2.43-1.34-4.36V79.34h2.71
					v10.24c0,2.4,0.98,3.6,2.93,3.6c2.07,0,3.45-0.77,4.13-2.31V79.34h2.71v15.85h-2.58L158.87,93.62z"/>
				<path class="st9" d="M179.01,87.44c0,2.41-0.55,4.36-1.66,5.83s-2.6,2.21-4.48,2.21c-1.92,0-3.44-0.61-4.54-1.83v7.63h-2.71
					V79.34h2.48l0.13,1.76c1.1-1.37,2.64-2.05,4.6-2.05c1.9,0,3.41,0.72,4.52,2.15s1.66,3.43,1.66,5.99V87.44z M176.3,87.13
					c0-1.79-0.38-3.2-1.14-4.23s-1.81-1.55-3.13-1.55c-1.64,0-2.87,0.73-3.69,2.18v7.57c0.81,1.45,2.05,2.17,3.72,2.17
					c1.3,0,2.33-0.52,3.1-1.55S176.3,89.16,176.3,87.13z"/>
				<path class="st9" d="M198.51,95.19h-2.72V77.13l-5.46,2.01v-2.46l7.76-2.92h0.42V95.19z"/>
			</g>
		</g>
		<g>
			<g>
				<g>
					<g>
						<path class="st1" d="M688.66,776.06H114.04c-3.73,0-6.75-3.02-6.75-6.75V553.98c0-3.73,3.02-6.75,6.75-6.75h574.62
							c3.73,0,6.75,3.02,6.75,6.75v215.33C695.41,773.04,692.38,776.06,688.66,776.06z"/>
						<g>
							<path class="st2" d="M695.41,602.83H107.29v-44.27c0-6.26,5.08-11.34,11.34-11.34h565.44c6.26,0,11.34,5.08,11.34,11.34
								V602.83z"/>
							<g>
								<path class="st3" d="M274.41,574.08c-2.41-0.69-4.17-1.55-5.27-2.56s-1.65-2.26-1.65-3.74c0-1.68,0.67-3.07,2.01-4.17
									s3.09-1.65,5.24-1.65c1.46,0,2.77,0.28,3.92,0.85s2.04,1.35,2.67,2.34s0.94,2.09,0.94,3.27h-2.83
									c0-1.29-0.41-2.31-1.23-3.05s-1.98-1.11-3.47-1.11c-1.39,0-2.47,0.3-3.24,0.92c-0.78,0.61-1.16,1.46-1.16,2.55
									c0,0.87,0.37,1.61,1.11,2.21s1.99,1.15,3.76,1.65s3.16,1.05,4.16,1.65s1.74,1.3,2.23,2.1s0.73,1.74,0.73,2.83
									c0,1.73-0.67,3.11-2.02,4.15s-3.15,1.56-5.41,1.56c-1.46,0-2.83-0.28-4.1-0.84s-2.25-1.33-2.94-2.31s-1.03-2.09-1.03-3.33
									h2.83c0,1.29,0.48,2.31,1.43,3.05s2.22,1.12,3.82,1.12c1.48,0,2.62-0.3,3.41-0.91s1.19-1.43,1.19-2.48s-0.37-1.85-1.1-2.42
									S276.33,574.63,274.41,574.08z"/>
								<path class="st3" d="M289.18,563.89v3.84h2.96v2.1h-2.96v9.84c0,0.64,0.13,1.11,0.4,1.43c0.26,0.32,0.71,0.48,1.35,0.48
									c0.31,0,0.74-0.06,1.29-0.18v2.18c-0.71,0.19-1.41,0.29-2.08,0.29c-1.21,0-2.12-0.37-2.74-1.1s-0.92-1.77-0.92-3.12v-9.83
									h-2.89v-2.1h2.89v-3.84H289.18z"/>
								<path class="st3" d="M302.96,570.16c-0.41-0.07-0.85-0.1-1.33-0.1c-1.78,0-2.98,0.76-3.62,2.27v11.25h-2.71v-15.85h2.64
									l0.04,1.83c0.89-1.42,2.15-2.13,3.78-2.13c0.53,0,0.93,0.07,1.2,0.21V570.16z"/>
								<path class="st3" d="M311.75,583.88c-2.15,0-3.9-0.71-5.24-2.12s-2.02-3.3-2.02-5.66v-0.5c0-1.57,0.3-2.98,0.9-4.21
									s1.44-2.2,2.52-2.9s2.25-1.05,3.51-1.05c2.06,0,3.66,0.68,4.8,2.04s1.71,3.3,1.71,5.83v1.13h-10.74
									c0.04,1.56,0.5,2.83,1.37,3.79s1.98,1.44,3.33,1.44c0.96,0,1.77-0.2,2.43-0.59s1.25-0.91,1.74-1.55l1.66,1.29
									C316.4,582.86,314.41,583.88,311.75,583.88z M311.41,569.67c-1.09,0-2.01,0.4-2.75,1.19s-1.2,1.91-1.38,3.35h7.94V574
									c-0.08-1.38-0.45-2.44-1.11-3.2S312.55,569.67,311.41,569.67z"/>
								<path class="st3" d="M330.85,583.58c-0.16-0.31-0.28-0.87-0.38-1.67c-1.26,1.31-2.76,1.96-4.51,1.96
									c-1.56,0-2.84-0.44-3.85-1.33s-1.5-2-1.5-3.36c0-1.65,0.63-2.93,1.88-3.84s3.02-1.37,5.3-1.37h2.64v-1.24
									c0-0.95-0.28-1.7-0.85-2.26s-1.4-0.84-2.5-0.84c-0.97,0-1.78,0.24-2.43,0.73s-0.98,1.08-0.98,1.77h-2.72
									c0-0.79,0.28-1.55,0.84-2.29s1.32-1.32,2.29-1.75s2.02-0.64,3.17-0.64c1.83,0,3.26,0.46,4.29,1.37s1.57,2.17,1.61,3.77v7.29
									c0,1.46,0.19,2.61,0.56,3.47v0.23H330.85z M326.35,581.52c0.85,0,1.66-0.22,2.42-0.66s1.31-1.01,1.66-1.71v-3.25h-2.12
									c-3.32,0-4.98,0.97-4.98,2.91c0,0.85,0.28,1.51,0.85,1.99S325.47,581.52,326.35,581.52z"/>
								<path class="st3" d="M339.93,567.73l0.07,1.76c1.16-1.37,2.73-2.05,4.7-2.05c2.22,0,3.73,0.85,4.53,2.55
									c0.53-0.76,1.21-1.38,2.06-1.85s1.84-0.7,3-0.7c3.48,0,5.24,1.84,5.3,5.52v10.62h-2.71v-10.46c0-1.13-0.26-1.98-0.78-2.54
									s-1.39-0.84-2.61-0.84c-1.01,0-1.84,0.3-2.5,0.9s-1.05,1.41-1.16,2.42v10.52h-2.72V573.2c0-2.3-1.13-3.46-3.38-3.46
									c-1.78,0-2.99,0.76-3.65,2.27v11.57h-2.71v-15.85H339.93z"/>
								<path class="st3" d="M363.69,563.53c0-0.44,0.13-0.81,0.4-1.11s0.67-0.46,1.19-0.46s0.93,0.15,1.2,0.46s0.41,0.67,0.41,1.11
									s-0.14,0.8-0.41,1.1s-0.67,0.44-1.2,0.44s-0.93-0.15-1.19-0.44S363.69,563.97,363.69,563.53z M366.62,583.58h-2.71v-15.85
									h2.71V583.58z"/>
								<path class="st3" d="M373.52,567.73l0.09,1.99c1.21-1.52,2.79-2.29,4.75-2.29c3.35,0,5.04,1.89,5.07,5.67v10.47h-2.71
									v-10.49c-0.01-1.14-0.27-1.99-0.78-2.53s-1.31-0.82-2.4-0.82c-0.88,0-1.65,0.23-2.31,0.7s-1.18,1.08-1.55,1.85v11.29h-2.71
									v-15.85H373.52z"/>
								<path class="st3" d="M386.87,575.53c0-2.47,0.57-4.44,1.71-5.9s2.66-2.19,4.54-2.19c1.93,0,3.44,0.68,4.53,2.05l0.13-1.76
									h2.48v15.47c0,2.05-0.61,3.67-1.82,4.85s-2.85,1.77-4.9,1.77c-1.14,0-2.26-0.24-3.35-0.73s-1.93-1.16-2.5-2.01l1.41-1.63
									c1.16,1.44,2.58,2.15,4.26,2.15c1.32,0,2.35-0.37,3.08-1.11s1.11-1.79,1.11-3.13V582c-1.08,1.25-2.56,1.88-4.44,1.88
									c-1.86,0-3.36-0.75-4.5-2.24S386.87,578.1,386.87,575.53z M389.59,575.83c0,1.79,0.37,3.19,1.1,4.21s1.76,1.53,3.08,1.53
									c1.71,0,2.96-0.78,3.76-2.33v-7.24c-0.83-1.51-2.08-2.27-3.74-2.27c-1.32,0-2.35,0.51-3.09,1.54
									S389.59,573.82,389.59,575.83z"/>
								<path class="st3" d="M427.88,576.81c-0.26,2.26-1.1,4-2.5,5.22s-3.26,1.84-5.59,1.84c-2.52,0-4.54-0.9-6.06-2.71
									s-2.28-4.22-2.28-7.25v-2.05c0-1.98,0.35-3.72,1.06-5.23s1.71-2.66,3.01-3.46s2.8-1.21,4.51-1.21c2.27,0,4.08,0.63,5.45,1.9
									s2.16,3.01,2.39,5.25h-2.83c-0.24-1.7-0.77-2.94-1.59-3.7s-1.96-1.15-3.42-1.15c-1.8,0-3.21,0.66-4.23,1.99
									c-1.02,1.33-1.53,3.22-1.53,5.67V574c0,2.32,0.48,4.16,1.45,5.53s2.32,2.05,4.06,2.05c1.56,0,2.76-0.35,3.6-1.06
									s1.39-1.94,1.66-3.7H427.88z"/>
								<path class="st3" d="M430.58,575.51c0-1.55,0.31-2.95,0.92-4.19s1.46-2.2,2.55-2.87s2.33-1.01,3.73-1.01
									c2.16,0,3.9,0.75,5.24,2.24s2,3.48,2,5.96v0.19c0,1.54-0.3,2.93-0.89,4.15s-1.44,2.18-2.53,2.86s-2.36,1.03-3.79,1.03
									c-2.15,0-3.89-0.75-5.22-2.24s-2-3.47-2-5.93V575.51z M433.3,575.83c0,1.76,0.41,3.17,1.22,4.23s1.91,1.6,3.27,1.6
									c1.38,0,2.47-0.54,3.28-1.62s1.22-2.59,1.22-4.53c0-1.74-0.41-3.15-1.24-4.23s-1.92-1.62-3.29-1.62
									c-1.34,0-2.42,0.53-3.24,1.6S433.3,573.85,433.3,575.83z"/>
								<path class="st3" d="M450.95,567.73l0.07,1.76c1.16-1.37,2.73-2.05,4.7-2.05c2.22,0,3.73,0.85,4.53,2.55
									c0.53-0.76,1.21-1.38,2.06-1.85s1.84-0.7,3-0.7c3.48,0,5.24,1.84,5.3,5.52v10.62h-2.71v-10.46c0-1.13-0.26-1.98-0.78-2.54
									s-1.39-0.84-2.61-0.84c-1.01,0-1.84,0.3-2.5,0.9s-1.05,1.41-1.16,2.42v10.52h-2.72V573.2c0-2.3-1.13-3.46-3.38-3.46
									c-1.78,0-2.99,0.76-3.65,2.27v11.57h-2.71v-15.85H450.95z"/>
								<path class="st3" d="M488.09,575.83c0,2.41-0.55,4.36-1.66,5.83s-2.6,2.21-4.48,2.21c-1.92,0-3.44-0.61-4.54-1.83v7.63
									h-2.71v-21.94h2.48l0.13,1.76c1.1-1.37,2.64-2.05,4.6-2.05c1.9,0,3.41,0.72,4.52,2.15s1.66,3.43,1.66,5.99V575.83z
									 M485.38,575.53c0-1.79-0.38-3.2-1.14-4.23s-1.81-1.55-3.13-1.55c-1.64,0-2.87,0.73-3.69,2.18v7.57
									c0.81,1.45,2.05,2.17,3.72,2.17c1.3,0,2.33-0.52,3.1-1.55S485.38,577.56,485.38,575.53z"/>
								<path class="st3" d="M501.31,582.02c-1.05,1.24-2.6,1.86-4.64,1.86c-1.69,0-2.98-0.49-3.86-1.47s-1.33-2.43-1.34-4.36
									v-10.31h2.71v10.24c0,2.4,0.98,3.6,2.93,3.6c2.07,0,3.45-0.77,4.13-2.31v-11.53h2.71v15.85h-2.58L501.31,582.02z"/>
								<path class="st3" d="M511.74,563.89v3.84h2.96v2.1h-2.96v9.84c0,0.64,0.13,1.11,0.4,1.43c0.26,0.32,0.71,0.48,1.35,0.48
									c0.31,0,0.74-0.06,1.29-0.18v2.18c-0.71,0.19-1.41,0.29-2.08,0.29c-1.21,0-2.12-0.37-2.74-1.1s-0.92-1.77-0.92-3.12v-9.83
									h-2.89v-2.1h2.89v-3.84H511.74z"/>
								<path class="st3" d="M524.44,583.88c-2.15,0-3.9-0.71-5.24-2.12s-2.02-3.3-2.02-5.66v-0.5c0-1.57,0.3-2.98,0.9-4.21
									s1.44-2.2,2.52-2.9s2.25-1.05,3.51-1.05c2.06,0,3.66,0.68,4.8,2.04s1.71,3.3,1.71,5.83v1.13h-10.74
									c0.04,1.56,0.5,2.83,1.37,3.79s1.98,1.44,3.33,1.44c0.96,0,1.77-0.2,2.43-0.59s1.25-0.91,1.74-1.55l1.66,1.29
									C529.09,582.86,527.1,583.88,524.44,583.88z M524.11,569.67c-1.09,0-2.01,0.4-2.75,1.19s-1.2,1.91-1.38,3.35h7.94V574
									c-0.08-1.38-0.45-2.44-1.11-3.2S525.24,569.67,524.11,569.67z"/>
								<path class="st3" d="M541.42,570.16c-0.41-0.07-0.85-0.1-1.33-0.1c-1.78,0-2.98,0.76-3.62,2.27v11.25h-2.71v-15.85h2.64
									l0.04,1.83c0.89-1.42,2.15-2.13,3.78-2.13c0.53,0,0.93,0.07,1.2,0.21V570.16z"/>
							</g>
						</g>
					</g>
					<g>
						<rect x="127.96" y="622.08" class="st4" width="546.77" height="55.6"/>
						<g>
							<path class="st3" d="M287.63,649.88c0,2.09-0.35,3.91-1.05,5.47s-1.7,2.75-2.99,3.57s-2.79,1.23-4.51,1.23
								c-1.68,0-3.17-0.41-4.47-1.24s-2.31-2-3.02-3.53s-1.09-3.3-1.11-5.31v-1.54c0-2.05,0.36-3.86,1.07-5.43s1.72-2.78,3.02-3.61
								s2.8-1.25,4.48-1.25c1.71,0,3.22,0.41,4.52,1.24s2.31,2.02,3.01,3.59s1.05,3.39,1.05,5.47V649.88z M284.84,648.51
								c0-2.53-0.51-4.47-1.52-5.82s-2.44-2.03-4.26-2.03c-1.78,0-3.18,0.68-4.2,2.03s-1.55,3.23-1.57,5.63v1.57
								c0,2.45,0.52,4.38,1.55,5.78s2.45,2.1,4.26,2.1c1.82,0,3.22-0.66,4.22-1.98s1.51-3.22,1.54-5.69V648.51z"/>
							<path class="st3" d="M291.85,659.86v-21.33h6.97c2.31,0,4.06,0.48,5.22,1.44s1.75,2.37,1.75,4.25c0,1-0.28,1.88-0.85,2.64
								s-1.34,1.36-2.31,1.78c1.15,0.32,2.06,0.94,2.73,1.84s1,1.98,1,3.23c0,1.91-0.62,3.42-1.86,4.51s-2.99,1.64-5.26,1.64H291.85
								z M294.67,647.63h4.25c1.23,0,2.21-0.31,2.95-0.92c0.74-0.62,1.11-1.45,1.11-2.51c0-1.17-0.34-2.03-1.03-2.56
								s-1.72-0.8-3.12-0.8h-4.16V647.63z M294.67,649.88v7.68h4.64c1.31,0,2.34-0.34,3.1-1.02s1.14-1.61,1.14-2.81
								c0-2.57-1.4-3.85-4.19-3.85H294.67z"/>
							<path class="st3" d="M316.81,650.35c-2.41-0.69-4.17-1.54-5.27-2.56s-1.65-2.26-1.65-3.74c0-1.68,0.67-3.07,2.01-4.17
								s3.09-1.65,5.24-1.65c1.46,0,2.77,0.28,3.92,0.85s2.04,1.35,2.67,2.34s0.94,2.08,0.94,3.27h-2.83c0-1.29-0.41-2.31-1.23-3.05
								c-0.82-0.74-1.98-1.11-3.47-1.11c-1.39,0-2.47,0.31-3.24,0.92c-0.78,0.61-1.16,1.46-1.16,2.55c0,0.87,0.37,1.61,1.11,2.21
								s1.99,1.15,3.76,1.65s3.16,1.05,4.16,1.65s1.74,1.3,2.23,2.1s0.73,1.74,0.73,2.83c0,1.73-0.67,3.11-2.02,4.15
								s-3.15,1.56-5.41,1.56c-1.46,0-2.83-0.28-4.1-0.84s-2.25-1.33-2.94-2.31s-1.03-2.08-1.03-3.33h2.83
								c0,1.29,0.48,2.31,1.43,3.05s2.22,1.12,3.82,1.12c1.48,0,2.62-0.3,3.41-0.91s1.19-1.43,1.19-2.48s-0.37-1.85-1.1-2.42
								S318.74,650.91,316.81,650.35z"/>
							<path class="st3" d="M351.44,653.09c-0.26,2.26-1.1,4-2.5,5.22s-3.26,1.84-5.59,1.84c-2.52,0-4.54-0.9-6.06-2.71
								s-2.28-4.22-2.28-7.25v-2.05c0-1.98,0.35-3.73,1.06-5.23s1.71-2.66,3.01-3.46s2.8-1.21,4.51-1.21c2.27,0,4.08,0.63,5.45,1.9
								s2.16,3.01,2.39,5.25h-2.83c-0.24-1.7-0.77-2.94-1.59-3.7c-0.82-0.76-1.96-1.15-3.42-1.15c-1.8,0-3.21,0.67-4.23,1.99
								s-1.53,3.22-1.53,5.67v2.07c0,2.32,0.48,4.16,1.45,5.53s2.32,2.05,4.06,2.05c1.56,0,2.76-0.35,3.6-1.06s1.39-1.94,1.66-3.7
								H351.44z"/>
							<path class="st3" d="M364.64,659.86c-0.16-0.31-0.28-0.87-0.38-1.67c-1.26,1.31-2.76,1.96-4.51,1.96
								c-1.56,0-2.84-0.44-3.85-1.33s-1.5-2-1.5-3.36c0-1.65,0.63-2.93,1.88-3.84s3.02-1.37,5.3-1.37h2.64V649
								c0-0.95-0.28-1.7-0.85-2.26s-1.4-0.84-2.5-0.84c-0.97,0-1.78,0.24-2.43,0.73s-0.98,1.08-0.98,1.77h-2.72
								c0-0.79,0.28-1.55,0.84-2.29s1.32-1.32,2.29-1.75s2.02-0.64,3.17-0.64c1.83,0,3.26,0.46,4.29,1.37s1.57,2.17,1.61,3.77v7.29
								c0,1.46,0.19,2.61,0.56,3.47v0.23H364.64z M360.14,657.79c0.85,0,1.66-0.22,2.42-0.66s1.31-1.01,1.66-1.71v-3.25h-2.12
								c-3.32,0-4.98,0.97-4.98,2.92c0,0.85,0.28,1.51,0.85,1.99S359.26,657.79,360.14,657.79z"/>
							<path class="st3" d="M384.56,652.11c0,2.41-0.55,4.36-1.66,5.83s-2.6,2.21-4.48,2.21c-1.92,0-3.44-0.61-4.54-1.83v7.63h-2.71
								v-21.94h2.48l0.13,1.76c1.1-1.37,2.64-2.05,4.6-2.05c1.9,0,3.41,0.72,4.52,2.15s1.66,3.43,1.66,5.99V652.11z M381.85,651.8
								c0-1.79-0.38-3.2-1.14-4.23s-1.81-1.55-3.13-1.55c-1.64,0-2.87,0.73-3.69,2.18v7.57c0.81,1.45,2.05,2.17,3.72,2.17
								c1.3,0,2.33-0.51,3.1-1.54S381.85,653.83,381.85,651.8z"/>
							<path class="st3" d="M391.68,640.17v3.84h2.96v2.09h-2.96v9.84c0,0.64,0.13,1.11,0.4,1.43c0.26,0.32,0.71,0.48,1.35,0.48
								c0.31,0,0.74-0.06,1.29-0.18v2.18c-0.71,0.19-1.41,0.29-2.08,0.29c-1.21,0-2.12-0.37-2.74-1.1s-0.92-1.77-0.92-3.12v-9.83
								h-2.89v-2.09h2.89v-3.84H391.68z"/>
							<path class="st3" d="M407.59,658.29c-1.05,1.24-2.6,1.86-4.64,1.86c-1.69,0-2.98-0.49-3.86-1.47s-1.33-2.43-1.34-4.36v-10.31
								h2.71v10.24c0,2.4,0.98,3.6,2.93,3.6c2.07,0,3.45-0.77,4.13-2.31v-11.53h2.71v15.85h-2.58L407.59,658.29z"/>
							<path class="st3" d="M422,646.44c-0.41-0.07-0.85-0.1-1.33-0.1c-1.78,0-2.98,0.76-3.62,2.27v11.25h-2.71v-15.85h2.64
								l0.04,1.83c0.89-1.42,2.15-2.12,3.78-2.12c0.53,0,0.93,0.07,1.2,0.21V646.44z"/>
							<path class="st3" d="M430.79,660.15c-2.15,0-3.9-0.71-5.24-2.12s-2.02-3.3-2.02-5.66v-0.5c0-1.57,0.3-2.98,0.9-4.21
								s1.44-2.2,2.52-2.9s2.25-1.05,3.51-1.05c2.06,0,3.66,0.68,4.8,2.04s1.71,3.3,1.71,5.83v1.13h-10.74
								c0.04,1.56,0.5,2.83,1.37,3.79s1.98,1.44,3.33,1.44c0.96,0,1.77-0.2,2.43-0.59s1.25-0.91,1.74-1.55l1.66,1.29
								C435.44,659.13,433.45,660.15,430.79,660.15z M430.46,645.94c-1.09,0-2.01,0.4-2.75,1.19s-1.2,1.91-1.38,3.35h7.94v-0.21
								c-0.08-1.38-0.45-2.44-1.11-3.2S431.59,645.94,430.46,645.94z"/>
							<path class="st3" d="M446.97,654.13c0-1.03,0.29-1.97,0.86-2.83s1.66-1.86,3.27-3c-0.95-1.15-1.58-2.08-1.9-2.78
								s-0.48-1.4-0.48-2.09c0-1.62,0.48-2.89,1.44-3.81s2.26-1.38,3.9-1.38c1.46,0,2.68,0.43,3.63,1.28s1.44,1.93,1.44,3.23
								c0,0.86-0.22,1.65-0.65,2.38s-1.19,1.49-2.28,2.29l-1.57,1.16l4.75,5.67c0.66-1.27,1-2.68,1-4.23h2.45
								c0,2.49-0.6,4.56-1.8,6.2l3.05,3.65h-3.25l-1.42-1.68c-0.72,0.64-1.57,1.14-2.54,1.47s-1.96,0.5-2.97,0.5
								c-2.08,0-3.75-0.55-5.01-1.66S446.97,655.94,446.97,654.13z M453.86,657.94c1.44,0,2.75-0.55,3.94-1.64l-5.2-6.23l-0.48,0.35
								c-1.63,1.2-2.45,2.44-2.45,3.71c0,1.15,0.37,2.08,1.12,2.77S452.57,657.94,453.86,657.94z M451.42,643.34
								c0,0.94,0.58,2.11,1.73,3.52l1.73-1.22c0.66-0.47,1.12-0.92,1.36-1.34s0.37-0.94,0.37-1.55c0-0.65-0.24-1.2-0.73-1.63
								s-1.1-0.65-1.85-0.65c-0.8,0-1.44,0.27-1.9,0.81S451.42,642.51,451.42,643.34z"/>
							<path class="st3" d="M480.32,650.35c-2.41-0.69-4.17-1.54-5.27-2.56s-1.65-2.26-1.65-3.74c0-1.68,0.67-3.07,2.01-4.17
								s3.09-1.65,5.24-1.65c1.46,0,2.77,0.28,3.92,0.85s2.04,1.35,2.67,2.34s0.94,2.08,0.94,3.27h-2.83c0-1.29-0.41-2.31-1.23-3.05
								c-0.82-0.74-1.98-1.11-3.47-1.11c-1.39,0-2.47,0.31-3.24,0.92c-0.78,0.61-1.16,1.46-1.16,2.55c0,0.87,0.37,1.61,1.11,2.21
								s1.99,1.15,3.76,1.65s3.16,1.05,4.16,1.65s1.74,1.3,2.23,2.1s0.73,1.74,0.73,2.83c0,1.73-0.67,3.11-2.02,4.15
								s-3.15,1.56-5.41,1.56c-1.46,0-2.83-0.28-4.1-0.84s-2.25-1.33-2.94-2.31s-1.03-2.08-1.03-3.33h2.83
								c0,1.29,0.48,2.31,1.43,3.05s2.22,1.12,3.82,1.12c1.48,0,2.62-0.3,3.41-0.91s1.19-1.43,1.19-2.48s-0.37-1.85-1.1-2.42
								S482.24,650.91,480.32,650.35z"/>
							<path class="st3" d="M495.09,640.17v3.84h2.96v2.09h-2.96v9.84c0,0.64,0.13,1.11,0.4,1.43c0.26,0.32,0.71,0.48,1.35,0.48
								c0.31,0,0.74-0.06,1.29-0.18v2.18c-0.71,0.19-1.41,0.29-2.08,0.29c-1.21,0-2.12-0.37-2.74-1.1s-0.92-1.77-0.92-3.12v-9.83
								h-2.89v-2.09h2.89v-3.84H495.09z"/>
							<path class="st3" d="M508.87,646.44c-0.41-0.07-0.85-0.1-1.33-0.1c-1.78,0-2.98,0.76-3.62,2.27v11.25h-2.71v-15.85h2.64
								l0.04,1.83c0.89-1.42,2.15-2.12,3.78-2.12c0.53,0,0.93,0.07,1.2,0.21V646.44z"/>
							<path class="st3" d="M517.66,660.15c-2.15,0-3.9-0.71-5.24-2.12s-2.02-3.3-2.02-5.66v-0.5c0-1.57,0.3-2.98,0.9-4.21
								s1.44-2.2,2.52-2.9s2.25-1.05,3.51-1.05c2.06,0,3.66,0.68,4.8,2.04s1.71,3.3,1.71,5.83v1.13H513.1
								c0.04,1.56,0.5,2.83,1.37,3.79s1.98,1.44,3.33,1.44c0.96,0,1.77-0.2,2.43-0.59s1.25-0.91,1.74-1.55l1.66,1.29
								C522.31,659.13,520.31,660.15,517.66,660.15z M517.32,645.94c-1.09,0-2.01,0.4-2.75,1.19s-1.2,1.91-1.38,3.35h7.94v-0.21
								c-0.08-1.38-0.45-2.44-1.11-3.2S518.45,645.94,517.32,645.94z"/>
							<path class="st3" d="M536.76,659.86c-0.16-0.31-0.28-0.87-0.38-1.67c-1.26,1.31-2.76,1.96-4.51,1.96
								c-1.56,0-2.84-0.44-3.85-1.33s-1.5-2-1.5-3.36c0-1.65,0.63-2.93,1.88-3.84s3.02-1.37,5.3-1.37h2.64V649
								c0-0.95-0.28-1.7-0.85-2.26s-1.4-0.84-2.5-0.84c-0.97,0-1.78,0.24-2.43,0.73s-0.98,1.08-0.98,1.77h-2.72
								c0-0.79,0.28-1.55,0.84-2.29s1.32-1.32,2.29-1.75s2.02-0.64,3.17-0.64c1.83,0,3.26,0.46,4.29,1.37s1.57,2.17,1.61,3.77v7.29
								c0,1.46,0.19,2.61,0.56,3.47v0.23H536.76z M532.26,657.79c0.85,0,1.66-0.22,2.42-0.66s1.31-1.01,1.66-1.71v-3.25h-2.12
								c-3.32,0-4.98,0.97-4.98,2.92c0,0.85,0.28,1.51,0.85,1.99S531.37,657.79,532.26,657.79z"/>
							<path class="st3" d="M545.84,644.01l0.07,1.76c1.16-1.37,2.73-2.05,4.7-2.05c2.22,0,3.73,0.85,4.53,2.55
								c0.53-0.76,1.21-1.38,2.06-1.85s1.84-0.7,3-0.7c3.48,0,5.24,1.84,5.3,5.52v10.62h-2.71V649.4c0-1.13-0.26-1.98-0.78-2.54
								s-1.39-0.84-2.61-0.84c-1.01,0-1.84,0.3-2.5,0.9s-1.05,1.41-1.16,2.42v10.52h-2.72v-10.39c0-2.3-1.13-3.46-3.38-3.46
								c-1.78,0-2.99,0.76-3.65,2.27v11.57h-2.71v-15.85H545.84z"/>
						</g>
					</g>
					<g>
						<rect x="127.96" y="696.93" class="st4" width="546.77" height="55.6"/>
						<g>
							<path class="st3" d="M311.81,732.41h10.11v2.3h-12.93v-21.33h2.83V732.41z"/>
							<path class="st3" d="M324.71,714.66c0-0.44,0.13-0.81,0.4-1.11s0.67-0.45,1.19-0.45s0.93,0.15,1.2,0.45s0.41,0.67,0.41,1.11
								s-0.14,0.81-0.41,1.1s-0.67,0.44-1.2,0.44s-0.93-0.15-1.19-0.44S324.71,715.1,324.71,714.66z M327.64,734.71h-2.71v-15.85
								h2.71V734.71z"/>
							<path class="st3" d="M337.21,731.03l3.93-12.17h2.77l-5.68,15.85h-2.07l-5.74-15.85h2.77L337.21,731.03z"/>
							<path class="st3" d="M352.9,735c-2.15,0-3.9-0.71-5.24-2.12s-2.02-3.3-2.02-5.66v-0.5c0-1.57,0.3-2.98,0.9-4.21
								s1.44-2.2,2.52-2.9s2.25-1.05,3.51-1.05c2.06,0,3.66,0.68,4.8,2.04s1.71,3.3,1.71,5.83v1.13h-10.74
								c0.04,1.56,0.5,2.82,1.37,3.79s1.98,1.44,3.33,1.44c0.96,0,1.77-0.2,2.43-0.59s1.25-0.91,1.74-1.55l1.66,1.29
								C357.55,733.98,355.55,735,352.9,735z M352.56,720.79c-1.09,0-2.01,0.4-2.75,1.19s-1.2,1.91-1.38,3.35h7.94v-0.21
								c-0.08-1.38-0.45-2.44-1.11-3.2S353.69,720.79,352.56,720.79z"/>
							<path class="st3" d="M368.92,725.2c-2.41-0.69-4.17-1.55-5.27-2.56s-1.65-2.26-1.65-3.74c0-1.68,0.67-3.07,2.01-4.17
								s3.09-1.65,5.24-1.65c1.46,0,2.77,0.28,3.92,0.85s2.04,1.35,2.67,2.34s0.94,2.08,0.94,3.27h-2.83c0-1.29-0.41-2.31-1.23-3.05
								c-0.82-0.74-1.98-1.11-3.47-1.11c-1.39,0-2.47,0.31-3.24,0.92s-1.16,1.46-1.16,2.55c0,0.87,0.37,1.61,1.11,2.21
								s1.99,1.15,3.76,1.65s3.16,1.05,4.16,1.65s1.74,1.3,2.23,2.1s0.73,1.74,0.73,2.83c0,1.73-0.67,3.11-2.02,4.15
								s-3.15,1.56-5.41,1.56c-1.46,0-2.83-0.28-4.1-0.84s-2.25-1.33-2.94-2.31s-1.03-2.08-1.03-3.33h2.83
								c0,1.29,0.48,2.31,1.43,3.05s2.22,1.12,3.82,1.12c1.48,0,2.62-0.3,3.41-0.91s1.19-1.43,1.19-2.48s-0.37-1.85-1.1-2.42
								S370.85,725.76,368.92,725.2z"/>
							<path class="st3" d="M393.4,726.96c0,2.41-0.55,4.36-1.66,5.83s-2.6,2.21-4.48,2.21c-1.92,0-3.44-0.61-4.54-1.83v7.63h-2.71
								v-21.94h2.48l0.13,1.76c1.1-1.37,2.64-2.05,4.6-2.05c1.9,0,3.41,0.72,4.52,2.15s1.66,3.43,1.66,5.99V726.96z M390.69,726.65
								c0-1.79-0.38-3.2-1.14-4.23s-1.81-1.55-3.13-1.55c-1.64,0-2.87,0.73-3.69,2.18v7.57c0.81,1.45,2.05,2.17,3.72,2.17
								c1.3,0,2.33-0.52,3.1-1.55S390.69,728.69,390.69,726.65z"/>
							<path class="st3" d="M399.79,734.71h-2.71v-22.5h2.71V734.71z"/>
							<path class="st3" d="M404.14,714.66c0-0.44,0.13-0.81,0.4-1.11s0.67-0.45,1.19-0.45s0.93,0.15,1.2,0.45s0.41,0.67,0.41,1.11
								s-0.14,0.81-0.41,1.1s-0.67,0.44-1.2,0.44s-0.93-0.15-1.19-0.44S404.14,715.1,404.14,714.66z M407.07,734.71h-2.71v-15.85
								h2.71V734.71z"/>
							<path class="st3" d="M415.08,715.02v3.84h2.96v2.09h-2.96v9.84c0,0.64,0.13,1.11,0.4,1.43c0.26,0.32,0.71,0.48,1.35,0.48
								c0.31,0,0.74-0.06,1.29-0.18v2.18c-0.71,0.19-1.41,0.29-2.08,0.29c-1.21,0-2.12-0.37-2.74-1.1s-0.92-1.77-0.92-3.12v-9.83
								h-2.89v-2.09h2.89v-3.84H415.08z"/>
							<path class="st3" d="M443.2,715.68h-6.86v19.03h-2.8v-19.03h-6.84v-2.3h16.49V715.68z"/>
							<path class="st3" d="M445.96,714.66c0-0.44,0.13-0.81,0.4-1.11s0.67-0.45,1.19-0.45s0.93,0.15,1.2,0.45s0.41,0.67,0.41,1.11
								s-0.14,0.81-0.41,1.1s-0.67,0.44-1.2,0.44s-0.93-0.15-1.19-0.44S445.96,715.1,445.96,714.66z M448.89,734.71h-2.71v-15.85
								h2.71V734.71z"/>
							<path class="st3" d="M455.77,718.86l0.07,1.76c1.16-1.37,2.73-2.05,4.7-2.05c2.22,0,3.73,0.85,4.53,2.55
								c0.53-0.76,1.21-1.38,2.06-1.85s1.84-0.7,3-0.7c3.48,0,5.24,1.84,5.3,5.52v10.62h-2.71v-10.46c0-1.13-0.26-1.98-0.78-2.54
								s-1.39-0.84-2.61-0.84c-1.01,0-1.84,0.3-2.5,0.9s-1.05,1.41-1.16,2.42v10.52h-2.72v-10.39c0-2.3-1.13-3.46-3.38-3.46
								c-1.78,0-2.99,0.76-3.65,2.27v11.57h-2.71v-15.85H455.77z"/>
							<path class="st3" d="M486.1,735c-2.15,0-3.9-0.71-5.24-2.12s-2.02-3.3-2.02-5.66v-0.5c0-1.57,0.3-2.98,0.9-4.21
								s1.44-2.2,2.52-2.9s2.25-1.05,3.51-1.05c2.06,0,3.66,0.68,4.8,2.04s1.71,3.3,1.71,5.83v1.13h-10.74
								c0.04,1.56,0.5,2.82,1.37,3.79s1.98,1.44,3.33,1.44c0.96,0,1.77-0.2,2.43-0.59s1.25-0.91,1.74-1.55l1.66,1.29
								C490.74,733.98,488.75,735,486.1,735z M485.76,720.79c-1.09,0-2.01,0.4-2.75,1.19s-1.2,1.91-1.38,3.35h7.94v-0.21
								c-0.08-1.38-0.45-2.44-1.11-3.2S486.89,720.79,485.76,720.79z"/>
							<path class="st3" d="M503.07,721.29c-0.41-0.07-0.85-0.1-1.33-0.1c-1.78,0-2.98,0.76-3.62,2.27v11.25h-2.71v-15.85h2.64
								l0.04,1.83c0.89-1.42,2.15-2.12,3.78-2.12c0.53,0,0.93,0.07,1.2,0.21V721.29z"/>
						</g>
					</g>
				</g>
				<g>
					<rect x="1187.97" y="582.79" class="st4" width="546.77" height="55.6"/>
					<g>
						<path class="st1" d="M1748.67,736.77h-574.62c-3.73,0-6.75-3.02-6.75-6.75V514.69c0-3.73,3.02-6.75,6.75-6.75h574.62
							c3.73,0,6.75,3.02,6.75,6.75v215.33C1755.42,733.75,1752.4,736.77,1748.67,736.77z"/>
						<g>
							<path class="st2" d="M1755.42,563.54H1167.3v-44.27c0-6.26,5.08-11.34,11.34-11.34h565.44c6.26,0,11.34,5.08,11.34,11.34
								V563.54z"/>
							<g>
								<path class="st3" d="M1420.29,542h10.11v2.3h-12.93v-21.33h2.83V542z"/>
								<path class="st3" d="M1442.97,544.3c-0.16-0.31-0.28-0.87-0.38-1.67c-1.26,1.31-2.76,1.96-4.51,1.96
									c-1.56,0-2.84-0.44-3.84-1.33c-1-0.88-1.5-2-1.5-3.36c0-1.65,0.63-2.93,1.88-3.84c1.25-0.91,3.02-1.37,5.29-1.37h2.64v-1.25
									c0-0.95-0.28-1.7-0.85-2.26c-0.57-0.56-1.4-0.84-2.5-0.84c-0.97,0-1.78,0.24-2.43,0.73s-0.98,1.08-0.98,1.77h-2.72
									c0-0.79,0.28-1.56,0.84-2.29c0.56-0.74,1.32-1.32,2.29-1.75s2.02-0.64,3.17-0.64c1.83,0,3.26,0.46,4.29,1.37
									c1.04,0.91,1.57,2.17,1.61,3.77v7.29c0,1.46,0.19,2.61,0.56,3.47v0.23H1442.97z M1438.47,542.23c0.85,0,1.66-0.22,2.42-0.66
									s1.31-1.01,1.66-1.71v-3.25h-2.12c-3.32,0-4.98,0.97-4.98,2.92c0,0.85,0.28,1.51,0.85,1.99S1437.58,542.23,1438.47,542.23z"
									/>
								<path class="st3" d="M1462.89,536.55c0,2.41-0.55,4.36-1.66,5.83s-2.6,2.21-4.48,2.21c-1.92,0-3.44-0.61-4.54-1.83v7.63
									h-2.71v-21.94h2.48l0.13,1.76c1.1-1.37,2.64-2.05,4.6-2.05c1.9,0,3.41,0.72,4.52,2.15s1.66,3.43,1.66,5.99V536.55z
									 M1460.18,536.24c0-1.79-0.38-3.2-1.14-4.23s-1.81-1.55-3.13-1.55c-1.64,0-2.87,0.73-3.69,2.18v7.57
									c0.81,1.45,2.05,2.17,3.72,2.17c1.3,0,2.33-0.52,3.1-1.54C1459.79,539.8,1460.18,538.27,1460.18,536.24z"/>
								<path class="st3" d="M1470.01,524.61v3.84h2.96v2.09h-2.96v9.84c0,0.63,0.13,1.11,0.4,1.43s0.71,0.48,1.35,0.48
									c0.31,0,0.74-0.06,1.29-0.18v2.18c-0.71,0.19-1.41,0.29-2.08,0.29c-1.21,0-2.12-0.37-2.74-1.1s-0.92-1.77-0.92-3.12v-9.83
									h-2.89v-2.09h2.89v-3.84H1470.01z"/>
								<path class="st3" d="M1475.12,536.22c0-1.55,0.31-2.95,0.92-4.19s1.46-2.2,2.55-2.87s2.33-1.01,3.73-1.01
									c2.16,0,3.9,0.75,5.24,2.24s2,3.48,2,5.96v0.19c0,1.54-0.29,2.93-0.89,4.15c-0.59,1.23-1.44,2.18-2.53,2.86
									s-2.36,1.03-3.79,1.03c-2.15,0-3.89-0.75-5.22-2.24s-2-3.47-2-5.93V536.22z M1477.84,536.55c0,1.76,0.41,3.17,1.22,4.23
									s1.91,1.6,3.27,1.6c1.38,0,2.47-0.54,3.28-1.62c0.81-1.08,1.22-2.59,1.22-4.53c0-1.74-0.41-3.15-1.24-4.23
									c-0.83-1.08-1.92-1.62-3.29-1.62c-1.34,0-2.42,0.53-3.24,1.6S1477.84,534.56,1477.84,536.55z"/>
								<path class="st3" d="M1506.33,536.55c0,2.41-0.55,4.36-1.66,5.83s-2.6,2.21-4.48,2.21c-1.92,0-3.44-0.61-4.54-1.83v7.63
									h-2.71v-21.94h2.48l0.13,1.76c1.1-1.37,2.64-2.05,4.6-2.05c1.9,0,3.41,0.72,4.52,2.15s1.66,3.43,1.66,5.99V536.55z
									 M1503.63,536.24c0-1.79-0.38-3.2-1.14-4.23s-1.81-1.55-3.13-1.55c-1.64,0-2.87,0.73-3.69,2.18v7.57
									c0.81,1.45,2.05,2.17,3.72,2.17c1.3,0,2.33-0.52,3.1-1.54C1503.24,539.8,1503.63,538.27,1503.63,536.24z"/>
							</g>
						</g>
					</g>
					<g>
						<path class="st3" d="M1444.61,613.81c-0.26,2.26-1.1,4-2.5,5.22s-3.26,1.84-5.59,1.84c-2.52,0-4.54-0.9-6.06-2.71
							s-2.28-4.22-2.28-7.25v-2.05c0-1.98,0.35-3.73,1.06-5.23s1.71-2.66,3.01-3.46s2.8-1.21,4.51-1.21c2.27,0,4.08,0.63,5.45,1.9
							s2.16,3.02,2.39,5.25h-2.83c-0.24-1.7-0.77-2.94-1.59-3.7c-0.82-0.76-1.96-1.15-3.42-1.15c-1.8,0-3.21,0.66-4.23,1.99
							c-1.02,1.33-1.53,3.22-1.53,5.67v2.07c0,2.32,0.48,4.16,1.45,5.53s2.32,2.05,4.06,2.05c1.56,0,2.76-0.35,3.6-1.06
							s1.39-1.94,1.66-3.7H1444.61z"/>
						<path class="st3" d="M1450.74,606.64c1.2-1.47,2.76-2.21,4.69-2.21c3.35,0,5.04,1.89,5.07,5.67v10.47h-2.71v-10.49
							c-0.01-1.14-0.27-1.99-0.78-2.53s-1.31-0.82-2.39-0.82c-0.88,0-1.65,0.23-2.31,0.7s-1.18,1.08-1.55,1.85v11.29h-2.71v-22.5
							h2.71V606.64z"/>
						<path class="st3" d="M1474.33,620.57c-0.16-0.31-0.28-0.87-0.38-1.67c-1.26,1.31-2.76,1.96-4.51,1.96
							c-1.56,0-2.84-0.44-3.85-1.33s-1.5-2-1.5-3.36c0-1.65,0.63-2.93,1.88-3.85s3.02-1.37,5.3-1.37h2.64v-1.25
							c0-0.95-0.28-1.7-0.85-2.26s-1.4-0.84-2.5-0.84c-0.97,0-1.78,0.24-2.43,0.73s-0.98,1.08-0.98,1.77h-2.72
							c0-0.79,0.28-1.56,0.84-2.29s1.32-1.32,2.29-1.75s2.02-0.64,3.17-0.64c1.83,0,3.26,0.46,4.29,1.37s1.57,2.17,1.61,3.77v7.29
							c0,1.46,0.19,2.61,0.56,3.47v0.23H1474.33z M1469.84,618.51c0.85,0,1.66-0.22,2.42-0.66s1.31-1.01,1.66-1.71v-3.25h-2.12
							c-3.32,0-4.98,0.97-4.98,2.92c0,0.85,0.28,1.51,0.85,1.99S1468.95,618.51,1469.84,618.51z"/>
						<path class="st3" d="M1484.54,600.89v3.84h2.96v2.09h-2.96v9.84c0,0.64,0.13,1.11,0.4,1.43c0.26,0.32,0.71,0.48,1.35,0.48
							c0.31,0,0.74-0.06,1.29-0.18v2.18c-0.71,0.19-1.41,0.29-2.08,0.29c-1.21,0-2.12-0.37-2.74-1.1s-0.92-1.77-0.92-3.12v-9.83
							h-2.89v-2.09h2.89v-3.84H1484.54z"/>
					</g>
					<rect x="1187.97" y="662.53" class="st5" width="546.77" height="55.6"/>
					<g>
						<path class="st3" d="M1436.84,696.8h10.11v2.3h-12.93v-21.33h2.83V696.8z"/>
						<path class="st3" d="M1456.44,689.59c-2.41-0.69-4.17-1.55-5.27-2.56s-1.65-2.26-1.65-3.74c0-1.68,0.67-3.07,2.01-4.17
							s3.09-1.65,5.24-1.65c1.46,0,2.77,0.28,3.92,0.85s2.04,1.35,2.67,2.34s0.94,2.08,0.94,3.27h-2.83c0-1.29-0.41-2.31-1.23-3.05
							c-0.82-0.74-1.98-1.11-3.47-1.11c-1.39,0-2.47,0.31-3.24,0.92s-1.17,1.46-1.17,2.55c0,0.87,0.37,1.61,1.11,2.21
							s1.99,1.15,3.76,1.65s3.16,1.05,4.16,1.65s1.74,1.3,2.23,2.1s0.72,1.74,0.72,2.83c0,1.73-0.67,3.11-2.02,4.15
							s-3.15,1.56-5.41,1.56c-1.46,0-2.83-0.28-4.1-0.84s-2.25-1.33-2.94-2.31s-1.03-2.08-1.03-3.33h2.83
							c0,1.29,0.48,2.31,1.43,3.05s2.22,1.12,3.82,1.12c1.48,0,2.62-0.3,3.41-0.91s1.19-1.43,1.19-2.48s-0.37-1.85-1.1-2.42
							S1458.36,690.15,1456.44,689.59z"/>
						<path class="st3" d="M1475.78,690.47h-5.01v8.63h-2.83v-21.33h7.06c2.4,0,4.25,0.55,5.54,1.64s1.94,2.69,1.94,4.78
							c0,1.33-0.36,2.49-1.08,3.47s-1.72,1.72-3,2.21l5.01,9.05v0.18h-3.02L1475.78,690.47z M1470.77,688.17h4.32
							c1.4,0,2.51-0.36,3.33-1.09s1.24-1.69,1.24-2.91c0-1.32-0.39-2.33-1.18-3.04c-0.79-0.71-1.92-1.06-3.41-1.07h-4.31V688.17z"/>
					</g>
				</g>
				<g>
					<rect x="1188.36" y="841.56" class="st4" width="546.77" height="55.6"/>
					<g>
						<path class="st10" d="M1750.33,917.48h-577.16c-3.03,0-5.48-2.45-5.48-5.48V772.19c0-3.03,2.45-5.48,5.48-5.48h577.16
							c3.03,0,5.48,2.45,5.48,5.48v139.82C1755.81,915.03,1753.35,917.48,1750.33,917.48z"/>
						<g>
							<path class="st2" d="M1755.81,822.32h-588.12v-44.27c0-6.26,5.08-11.34,11.34-11.34h565.44c6.26,0,11.34,5.08,11.34,11.34
								V822.32z"/>
							<g>
								<path class="st3" d="M1382.31,800.27c-0.72,1.04-1.73,1.81-3.03,2.32c-1.29,0.51-2.8,0.77-4.52,0.77
									c-1.74,0-3.28-0.41-4.63-1.22s-2.39-1.97-3.13-3.48c-0.74-1.5-1.12-3.25-1.13-5.23v-1.86c0-3.21,0.75-5.7,2.25-7.47
									c1.5-1.77,3.61-2.65,6.32-2.65c2.23,0,4.02,0.57,5.38,1.71s2.19,2.75,2.49,4.84h-2.81c-0.53-2.83-2.21-4.25-5.04-4.25
									c-1.88,0-3.31,0.66-4.29,1.99c-0.97,1.32-1.46,3.24-1.47,5.75v1.74c0,2.39,0.55,4.3,1.64,5.71
									c1.09,1.41,2.57,2.12,4.44,2.12c1.05,0,1.98-0.12,2.77-0.35c0.79-0.23,1.45-0.63,1.96-1.18v-4.78h-4.94v-2.3h7.73V800.27z"
									/>
								<path class="st3" d="M1396.36,803.07c-0.16-0.31-0.28-0.87-0.38-1.67c-1.26,1.31-2.76,1.96-4.51,1.96
									c-1.56,0-2.84-0.44-3.84-1.33c-1-0.88-1.5-2-1.5-3.36c0-1.65,0.63-2.93,1.88-3.85c1.25-0.91,3.02-1.37,5.29-1.37h2.64v-1.25
									c0-0.95-0.28-1.7-0.85-2.26s-1.4-0.84-2.5-0.84c-0.97,0-1.78,0.24-2.43,0.73s-0.98,1.08-0.98,1.77h-2.72
									c0-0.79,0.28-1.56,0.84-2.29c0.56-0.74,1.32-1.32,2.29-1.75c0.96-0.43,2.02-0.64,3.17-0.64c1.83,0,3.26,0.46,4.29,1.37
									s1.57,2.17,1.61,3.77v7.29c0,1.46,0.19,2.61,0.56,3.47v0.23H1396.36z M1391.87,801c0.85,0,1.66-0.22,2.42-0.66
									s1.31-1.01,1.66-1.71v-3.25h-2.12c-3.32,0-4.98,0.97-4.98,2.92c0,0.85,0.28,1.51,0.85,1.99S1390.98,801,1391.87,801z"/>
								<path class="st3" d="M1405.44,787.22l0.07,1.76c1.16-1.37,2.73-2.05,4.7-2.05c2.22,0,3.73,0.85,4.53,2.55
									c0.53-0.76,1.21-1.38,2.06-1.85c0.84-0.47,1.84-0.7,3-0.7c3.48,0,5.24,1.84,5.3,5.52v10.62h-2.71v-10.46
									c0-1.13-0.26-1.98-0.78-2.54s-1.39-0.84-2.61-0.84c-1.01,0-1.84,0.3-2.5,0.9s-1.05,1.41-1.16,2.42v10.52h-2.72v-10.39
									c0-2.3-1.13-3.46-3.38-3.46c-1.78,0-2.99,0.76-3.65,2.27v11.57h-2.71v-15.85H1405.44z"/>
								<path class="st3" d="M1435.77,803.36c-2.15,0-3.9-0.71-5.24-2.12s-2.02-3.3-2.02-5.66v-0.5c0-1.57,0.3-2.98,0.9-4.21
									c0.6-1.24,1.44-2.2,2.52-2.9c1.08-0.7,2.25-1.05,3.51-1.05c2.06,0,3.66,0.68,4.8,2.04s1.71,3.3,1.71,5.83v1.13h-10.74
									c0.04,1.56,0.5,2.82,1.37,3.79c0.88,0.96,1.99,1.44,3.33,1.44c0.96,0,1.77-0.2,2.43-0.59s1.25-0.91,1.74-1.55l1.66,1.29
									C1440.42,802.34,1438.42,803.36,1435.77,803.36z M1435.43,789.15c-1.09,0-2.01,0.4-2.75,1.19s-1.2,1.91-1.38,3.35h7.94
									v-0.21c-0.08-1.38-0.45-2.44-1.11-3.2S1436.56,789.15,1435.43,789.15z"/>
								<path class="st3" d="M1468.62,796.3c-0.26,2.26-1.1,4-2.5,5.22c-1.4,1.23-3.26,1.84-5.59,1.84c-2.52,0-4.54-0.9-6.06-2.71
									c-1.52-1.81-2.28-4.22-2.28-7.25v-2.05c0-1.98,0.35-3.73,1.06-5.23c0.71-1.5,1.71-2.66,3.01-3.46s2.8-1.21,4.51-1.21
									c2.27,0,4.08,0.63,5.45,1.9s2.16,3.02,2.39,5.25h-2.83c-0.24-1.7-0.77-2.94-1.59-3.7c-0.82-0.76-1.96-1.15-3.42-1.15
									c-1.8,0-3.21,0.66-4.23,1.99c-1.02,1.33-1.53,3.22-1.53,5.67v2.07c0,2.32,0.48,4.16,1.45,5.53s2.32,2.05,4.06,2.05
									c1.56,0,2.76-0.35,3.6-1.06c0.84-0.71,1.39-1.94,1.66-3.7H1468.62z"/>
								<path class="st3" d="M1471.32,795c0-1.55,0.3-2.95,0.92-4.19c0.61-1.24,1.46-2.2,2.55-2.87c1.09-0.67,2.33-1.01,3.73-1.01
									c2.16,0,3.9,0.75,5.24,2.24c1.33,1.49,2,3.48,2,5.96v0.19c0,1.54-0.3,2.93-0.89,4.15c-0.59,1.23-1.44,2.18-2.54,2.86
									c-1.1,0.68-2.36,1.03-3.79,1.03c-2.15,0-3.89-0.75-5.22-2.24c-1.33-1.49-2-3.47-2-5.93V795z M1474.04,795.32
									c0,1.76,0.41,3.17,1.22,4.23c0.82,1.06,1.91,1.6,3.27,1.6c1.38,0,2.47-0.54,3.28-1.62s1.22-2.59,1.22-4.53
									c0-1.74-0.41-3.15-1.24-4.23c-0.82-1.08-1.92-1.62-3.29-1.62c-1.34,0-2.42,0.53-3.24,1.6S1474.04,793.34,1474.04,795.32z"/>
								<path class="st3" d="M1491.71,787.22l0.09,1.99c1.21-1.52,2.79-2.29,4.75-2.29c3.35,0,5.04,1.89,5.07,5.67v10.47h-2.71
									v-10.49c-0.01-1.14-0.27-1.99-0.78-2.53c-0.51-0.55-1.31-0.82-2.39-0.82c-0.88,0-1.65,0.23-2.31,0.7s-1.18,1.08-1.55,1.85
									v11.29h-2.71v-15.85H1491.71z"/>
								<path class="st3" d="M1514.93,798.86c0-0.73-0.28-1.3-0.83-1.71c-0.55-0.41-1.51-0.75-2.89-1.05
									c-1.37-0.29-2.46-0.64-3.27-1.05c-0.81-0.41-1.4-0.9-1.79-1.46c-0.39-0.57-0.58-1.24-0.58-2.02c0-1.3,0.55-2.4,1.65-3.3
									c1.1-0.9,2.5-1.35,4.21-1.35c1.8,0,3.25,0.46,4.37,1.39c1.12,0.93,1.68,2.11,1.68,3.56h-2.72c0-0.74-0.31-1.38-0.95-1.92
									c-0.63-0.54-1.42-0.81-2.38-0.81c-0.99,0-1.76,0.21-2.31,0.64s-0.83,0.99-0.83,1.68c0,0.65,0.26,1.15,0.78,1.48
									s1.45,0.65,2.81,0.95c1.35,0.3,2.45,0.66,3.29,1.08s1.46,0.92,1.87,1.52c0.4,0.59,0.61,1.31,0.61,2.16
									c0,1.42-0.57,2.55-1.7,3.41s-2.6,1.28-4.41,1.28c-1.27,0-2.39-0.22-3.37-0.67s-1.74-1.08-2.29-1.88
									c-0.55-0.81-0.83-1.68-0.83-2.61h2.71c0.05,0.91,0.41,1.63,1.09,2.16c0.68,0.53,1.58,0.8,2.69,0.8
									c1.03,0,1.85-0.21,2.47-0.62C1514.62,800.11,1514.93,799.56,1514.93,798.86z"/>
								<path class="st3" d="M1520.45,795c0-1.55,0.3-2.95,0.92-4.19c0.61-1.24,1.46-2.2,2.55-2.87c1.09-0.67,2.33-1.01,3.73-1.01
									c2.16,0,3.9,0.75,5.24,2.24c1.33,1.49,2,3.48,2,5.96v0.19c0,1.54-0.3,2.93-0.89,4.15c-0.59,1.23-1.44,2.18-2.54,2.86
									c-1.1,0.68-2.36,1.03-3.79,1.03c-2.15,0-3.89-0.75-5.22-2.24c-1.33-1.49-2-3.47-2-5.93V795z M1523.17,795.32
									c0,1.76,0.41,3.17,1.22,4.23c0.82,1.06,1.91,1.6,3.27,1.6c1.38,0,2.47-0.54,3.28-1.62s1.22-2.59,1.22-4.53
									c0-1.74-0.41-3.15-1.24-4.23c-0.82-1.08-1.92-1.62-3.29-1.62c-1.34,0-2.42,0.53-3.24,1.6S1523.17,793.34,1523.17,795.32z"/>
								<path class="st3" d="M1541.22,803.07h-2.71v-22.5h2.71V803.07z"/>
								<path class="st3" d="M1552.13,803.36c-2.15,0-3.9-0.71-5.24-2.12s-2.02-3.3-2.02-5.66v-0.5c0-1.57,0.3-2.98,0.9-4.21
									c0.6-1.24,1.44-2.2,2.52-2.9c1.08-0.7,2.25-1.05,3.51-1.05c2.06,0,3.66,0.68,4.8,2.04s1.71,3.3,1.71,5.83v1.13h-10.74
									c0.04,1.56,0.5,2.82,1.37,3.79c0.88,0.96,1.99,1.44,3.33,1.44c0.96,0,1.77-0.2,2.43-0.59s1.25-0.91,1.74-1.55l1.66,1.29
									C1556.78,802.34,1554.79,803.36,1552.13,803.36z M1551.8,789.15c-1.09,0-2.01,0.4-2.75,1.19s-1.2,1.91-1.38,3.35h7.94v-0.21
									c-0.08-1.38-0.45-2.44-1.11-3.2S1552.93,789.15,1551.8,789.15z"/>
							</g>
						</g>
					</g>
					<g>
						<path class="st3" d="M1444.67,876.55c-0.72,1.04-1.73,1.81-3.03,2.32s-2.8,0.77-4.52,0.77c-1.74,0-3.28-0.41-4.63-1.22
							s-2.39-1.98-3.13-3.48s-1.12-3.25-1.13-5.23v-1.86c0-3.21,0.75-5.7,2.25-7.47s3.61-2.65,6.32-2.65c2.23,0,4.02,0.57,5.38,1.71
							s2.19,2.75,2.49,4.84h-2.81c-0.53-2.83-2.21-4.25-5.04-4.25c-1.88,0-3.31,0.66-4.29,1.99s-1.46,3.24-1.47,5.75v1.74
							c0,2.39,0.55,4.3,1.64,5.71c1.09,1.41,2.57,2.12,4.44,2.12c1.05,0,1.98-0.12,2.77-0.35c0.79-0.23,1.45-0.63,1.96-1.18v-4.78
							h-4.94v-2.3h7.73V876.55z"/>
						<path class="st3" d="M1458.72,879.35c-0.16-0.31-0.28-0.87-0.38-1.67c-1.26,1.31-2.76,1.96-4.51,1.96
							c-1.56,0-2.84-0.44-3.85-1.33s-1.5-2-1.5-3.36c0-1.65,0.63-2.93,1.88-3.85s3.02-1.37,5.3-1.37h2.64v-1.25
							c0-0.95-0.28-1.7-0.85-2.26s-1.4-0.84-2.5-0.84c-0.97,0-1.78,0.24-2.43,0.73s-0.98,1.08-0.98,1.77h-2.72
							c0-0.79,0.28-1.56,0.84-2.29s1.32-1.32,2.29-1.75s2.02-0.64,3.17-0.64c1.83,0,3.26,0.46,4.29,1.37s1.57,2.17,1.61,3.77v7.29
							c0,1.46,0.19,2.61,0.56,3.47v0.23H1458.72z M1454.22,877.28c0.85,0,1.66-0.22,2.42-0.66s1.31-1.01,1.66-1.71v-3.25h-2.12
							c-3.32,0-4.98,0.97-4.98,2.92c0,0.85,0.28,1.51,0.85,1.99S1453.33,877.28,1454.22,877.28z"/>
						<path class="st3" d="M1467.8,863.5l0.07,1.76c1.16-1.37,2.73-2.05,4.7-2.05c2.22,0,3.73,0.85,4.53,2.55
							c0.53-0.76,1.21-1.38,2.06-1.85s1.84-0.7,3-0.7c3.48,0,5.24,1.84,5.3,5.52v10.62h-2.71v-10.46c0-1.13-0.26-1.98-0.78-2.54
							s-1.39-0.84-2.61-0.84c-1.01,0-1.84,0.3-2.5,0.9s-1.05,1.41-1.16,2.42v10.52h-2.72v-10.39c0-2.3-1.13-3.46-3.38-3.46
							c-1.78,0-2.99,0.76-3.65,2.27v11.57h-2.71V863.5H1467.8z"/>
						<path class="st3" d="M1498.12,879.64c-2.15,0-3.9-0.71-5.24-2.12s-2.02-3.3-2.02-5.66v-0.5c0-1.57,0.3-2.98,0.9-4.21
							s1.44-2.2,2.52-2.9s2.25-1.05,3.51-1.05c2.06,0,3.66,0.68,4.8,2.04s1.71,3.3,1.71,5.83v1.13h-10.74
							c0.04,1.56,0.5,2.82,1.37,3.79s1.99,1.44,3.33,1.44c0.96,0,1.77-0.2,2.43-0.59s1.25-0.91,1.74-1.55l1.66,1.29
							C1502.77,878.62,1500.78,879.64,1498.12,879.64z M1497.79,865.43c-1.09,0-2.01,0.4-2.75,1.19s-1.2,1.91-1.38,3.35h7.94v-0.21
							c-0.08-1.38-0.45-2.44-1.11-3.2S1498.92,865.43,1497.79,865.43z"/>
					</g>
				</g>
				<g>
					<g>
						<line class="st6" x1="1138.1" y1="638.39" x2="1135.1" y2="638.39"/>
						<line class="st7" x1="1129.13" y1="638.39" x2="750.02" y2="638.39"/>
						<line class="st6" x1="747.03" y1="638.39" x2="744.03" y2="638.39"/>
						<g>
							<polygon class="st2" points="748.7,622.44 721.07,638.39 748.7,654.35 							"/>
						</g>
					</g>
				</g>
				<g>
					<g>
						<path class="st11" d="M744.03,703.98h115.4c6.26,0,11.34,5.08,11.34,11.34v126.67c0,6.26,5.08,11.34,11.34,11.34h255.99"/>
						<g>
							<polygon class="st2" points="748.7,719.94 721.07,703.98 748.7,688.02 							"/>
						</g>
					</g>
				</g>
			</g>
			<path class="st12" d="M1771.22,947.43H90.08c-7.03,0-12.74-5.7-12.74-12.74V451.17c0-7.03,5.7-12.74,12.74-12.74h1681.14
				c7.03,0,12.74,5.7,12.74,12.74v483.52C1783.96,941.72,1778.26,947.43,1771.22,947.43z"/>
			<g>
				<path class="st9" d="M117.15,477c0-0.73-0.28-1.3-0.83-1.71s-1.51-0.75-2.89-1.05s-2.46-0.64-3.27-1.05s-1.4-0.9-1.79-1.46
					s-0.58-1.24-0.58-2.02c0-1.3,0.55-2.4,1.65-3.3s2.5-1.35,4.21-1.35c1.8,0,3.25,0.46,4.37,1.39s1.68,2.11,1.68,3.56h-2.72
					c0-0.74-0.31-1.38-0.94-1.92s-1.42-0.81-2.38-0.81c-0.99,0-1.76,0.21-2.31,0.64s-0.83,0.99-0.83,1.68
					c0,0.65,0.26,1.15,0.78,1.48s1.45,0.65,2.81,0.95s2.45,0.66,3.29,1.08s1.46,0.92,1.87,1.52s0.61,1.31,0.61,2.16
					c0,1.42-0.57,2.55-1.7,3.41s-2.6,1.28-4.41,1.28c-1.27,0-2.39-0.22-3.37-0.67s-1.74-1.08-2.29-1.88s-0.83-1.68-0.83-2.61h2.71
					c0.05,0.91,0.41,1.63,1.09,2.16s1.57,0.8,2.69,0.8c1.03,0,1.85-0.21,2.47-0.62S117.15,477.7,117.15,477z"/>
				<path class="st9" d="M129.97,481.5c-2.15,0-3.9-0.71-5.24-2.12s-2.02-3.3-2.02-5.66v-0.5c0-1.57,0.3-2.98,0.9-4.21
					s1.44-2.2,2.52-2.9s2.25-1.05,3.51-1.05c2.06,0,3.66,0.68,4.8,2.04s1.71,3.3,1.71,5.83v1.13h-10.74
					c0.04,1.56,0.5,2.82,1.37,3.79s1.98,1.44,3.33,1.44c0.96,0,1.77-0.2,2.43-0.59s1.25-0.91,1.74-1.55l1.66,1.29
					C134.62,480.48,132.63,481.5,129.97,481.5z M129.63,467.29c-1.09,0-2.01,0.4-2.75,1.19s-1.2,1.91-1.38,3.35h7.94v-0.21
					c-0.08-1.38-0.45-2.44-1.11-3.2S130.77,467.29,129.63,467.29z"/>
				<path class="st9" d="M142.96,461.52v3.84h2.96v2.09h-2.96v9.84c0,0.64,0.13,1.11,0.4,1.43c0.26,0.32,0.71,0.48,1.35,0.48
					c0.31,0,0.74-0.06,1.29-0.18v2.18c-0.71,0.19-1.41,0.29-2.08,0.29c-1.21,0-2.12-0.37-2.74-1.1s-0.92-1.77-0.92-3.12v-9.83h-2.89
					v-2.09h2.89v-3.84H142.96z"/>
				<path class="st9" d="M158.87,479.64c-1.05,1.24-2.6,1.86-4.64,1.86c-1.69,0-2.98-0.49-3.86-1.47s-1.33-2.43-1.34-4.36v-10.31
					h2.71v10.24c0,2.4,0.98,3.6,2.93,3.6c2.07,0,3.45-0.77,4.13-2.31v-11.53h2.71v15.85h-2.58L158.87,479.64z"/>
				<path class="st9" d="M179.01,473.46c0,2.41-0.55,4.36-1.66,5.83s-2.6,2.21-4.48,2.21c-1.92,0-3.44-0.61-4.54-1.83v7.63h-2.71
					v-21.94h2.48l0.13,1.76c1.1-1.37,2.64-2.05,4.6-2.05c1.9,0,3.41,0.72,4.52,2.15s1.66,3.43,1.66,5.99V473.46z M176.3,473.15
					c0-1.79-0.38-3.2-1.14-4.23s-1.81-1.55-3.13-1.55c-1.64,0-2.87,0.73-3.69,2.18v7.57c0.81,1.45,2.05,2.17,3.72,2.17
					c1.3,0,2.33-0.52,3.1-1.55S176.3,475.18,176.3,473.15z"/>
				<path class="st9" d="M203.58,481.21H189.6v-1.95l7.38-8.2c1.09-1.24,1.85-2.25,2.26-3.03s0.62-1.58,0.62-2.41
					c0-1.11-0.34-2.03-1.01-2.74s-1.57-1.07-2.7-1.07c-1.35,0-2.4,0.38-3.14,1.15s-1.12,1.83-1.12,3.2h-2.71
					c0-1.96,0.63-3.55,1.9-4.76s2.96-1.82,5.08-1.82c1.98,0,3.55,0.52,4.7,1.56s1.73,2.42,1.73,4.15c0,2.1-1.34,4.6-4.01,7.5
					l-5.71,6.2h10.71V481.21z"/>
			</g>
		</g>
	</g>
	<g>
	</g>
	<g>
	</g>
	<g>
	</g>
	<g>
	</g>
	<g>
	</g>
	<g>
	</g>
	<g>
	</g>
</g>
</svg>
