<?xml version="1.0" encoding="utf-8"?>
<!-- Generator: Adobe Illustrator 23.0.2, SVG Export Plug-In . SVG Version: 6.00 Build 0)  -->
<svg version="1.1" xmlns="http://www.w3.org/2000/svg" xmlns:xlink="http://www.w3.org/1999/xlink" x="0px" y="0px"
	 viewBox="0 0 1870 1015.43" style="enable-background:new 0 0 1870 1015.43;" xml:space="preserve">
<style type="text/css">
	.st0{display:none;}
	.st1{fill:none;stroke:#000000;stroke-width:2.3809;stroke-miterlimit:10;}
	.st2{fill:#484899;}
	.st3{fill:#FFFFFF;}
	.st4{fill:#4A994A;}
	.st5{fill:#844B99;}
	.st6{fill:none;stroke:#484899;stroke-width:4;stroke-miterlimit:10;}
	.st7{fill:none;stroke:#484899;stroke-width:4;stroke-miterlimit:10;stroke-dasharray:5.9702,5.9702;}
	.st8{fill:none;stroke:#666666;stroke-width:0.9239;stroke-miterlimit:10;}
	.st9{fill:#666666;}
	.st10{fill:none;stroke:#000000;stroke-width:1.9326;stroke-miterlimit:10;}
	.st11{fill:none;stroke:#484899;stroke-width:4;stroke-linejoin:round;stroke-dasharray:6,6;}
	.st12{fill:none;stroke:#666666;stroke-width:1.1234;stroke-miterlimit:10;}
</style>
<g id="Layer_1" class="st0">
	<image style="display:inline;overflow:visible;" width="1870" height="818" xlink:href="3410B38B.jpg" >
	</image>
</g>
<g id="Layer_2">
	<g>
		<g>
			<g>
				<g>
					<g>
						<path class="st1" d="M688.66,368.63H114.04c-3.73,0-6.75-3.02-6.75-6.75V146.55c0-3.73,3.02-6.75,6.75-6.75h574.62
							c3.73,0,6.75,3.02,6.75,6.75v215.33C695.41,365.61,692.38,368.63,688.66,368.63z"/>
						<g>
							<path class="st2" d="M695.41,195.41H107.29v-44.27c0-6.26,5.08-11.34,11.34-11.34h565.44c6.26,0,11.34,5.08,11.34,11.34
								V195.41z"/>
							<g>
								<path class="st3" d="M281.35,171.05c0-0.91-0.21-1.68-0.64-2.31s-1.09-1.19-2.01-1.67s-2.29-0.98-4.14-1.49
									s-3.23-1.02-4.15-1.54s-1.6-1.12-2.03-1.8s-0.64-1.51-0.64-2.49c0-1.55,0.65-2.81,1.96-3.77s3.01-1.44,5.11-1.44
									c1.37,0,2.6,0.27,3.68,0.8s1.93,1.28,2.53,2.24s0.89,2.05,0.89,3.26h-0.79c0-1.59-0.59-2.91-1.76-3.95s-2.69-1.56-4.56-1.56
									c-1.88,0-3.39,0.42-4.55,1.25s-1.74,1.88-1.74,3.14c0,1.28,0.5,2.31,1.51,3.09s2.67,1.47,4.98,2.07s4.01,1.3,5.08,2.09
									c1.37,1.01,2.05,2.35,2.05,4.04c0,1.07-0.3,2.02-0.91,2.85s-1.46,1.46-2.58,1.91s-2.36,0.67-3.75,0.67
									c-1.54,0-2.93-0.26-4.16-0.77s-2.16-1.24-2.78-2.19s-0.93-2.07-0.93-3.35h0.79c0,1.75,0.65,3.11,1.96,4.07
									s3.01,1.45,5.11,1.45c1.87,0,3.4-0.43,4.61-1.28S281.35,172.41,281.35,171.05z"/>
								<path class="st3" d="M287.68,156.03v4.28h3.6v0.79h-3.6v11.26c0,1.12,0.18,1.96,0.55,2.49s0.98,0.81,1.84,0.81
									c0.43,0,0.95-0.04,1.57-0.13l0.13,0.75c-0.32,0.12-0.87,0.18-1.66,0.18c-1.15,0-1.98-0.32-2.48-0.96
									c-0.5-0.64-0.75-1.65-0.76-3.03V161.1h-2.93v-0.79h2.93v-4.28H287.68z"/>
								<path class="st3" d="M302.39,160.89l-1.03-0.09c-1.35,0-2.48,0.44-3.38,1.31c-0.91,0.87-1.5,2.1-1.79,3.67v10.38h-0.79
									v-15.85h0.79v3.3c0.43-1.1,1.07-1.98,1.93-2.62s1.94-0.97,3.24-0.97c0.46,0,0.83,0.05,1.11,0.16L302.39,160.89z"/>
								<path class="st3" d="M310.86,176.45c-1.28,0-2.45-0.34-3.52-1.03s-1.91-1.63-2.51-2.83s-0.91-2.53-0.91-4v-0.66
									c0-1.46,0.29-2.81,0.88-4.03s1.39-2.17,2.42-2.86s2.14-1.03,3.35-1.03c1.77,0,3.21,0.63,4.34,1.89s1.68,2.92,1.68,4.97v0.83
									H304.7v0.86c0,1.29,0.27,2.48,0.81,3.58c0.54,1.1,1.29,1.96,2.24,2.58s1.98,0.94,3.1,0.94c1.06,0,1.97-0.18,2.72-0.53
									c0.75-0.35,1.41-0.9,1.98-1.64l0.56,0.4C314.93,175.6,313.18,176.45,310.86,176.45z M310.56,160.81
									c-1.54,0-2.85,0.57-3.93,1.72s-1.7,2.61-1.89,4.39h11.04v-0.19c0-1.07-0.23-2.07-0.68-3s-1.08-1.64-1.88-2.15
									S311.55,160.81,310.56,160.81z"/>
								<path class="st3" d="M330.51,176.16c-0.2-0.67-0.29-1.64-0.29-2.9c-0.63,1.02-1.48,1.8-2.56,2.36s-2.31,0.83-3.68,0.83
									c-1.46,0-2.64-0.4-3.54-1.19s-1.34-1.83-1.34-3.11c0-1.46,0.66-2.62,1.97-3.49s3.06-1.32,5.24-1.34h3.91V165
									c0-1.33-0.42-2.36-1.25-3.09s-2.03-1.1-3.58-1.1c-1.45,0-2.65,0.37-3.62,1.11s-1.45,1.66-1.45,2.75l-0.79-0.03
									c0-1.29,0.57-2.38,1.7-3.28s2.52-1.35,4.16-1.35c1.71,0,3.07,0.43,4.07,1.28s1.52,2.06,1.55,3.61v7.57
									c0,1.74,0.14,2.92,0.41,3.54v0.13H330.51z M323.98,175.66c1.48,0,2.76-0.33,3.83-1s1.87-1.6,2.41-2.8v-3.76h-3.66
									c-2.27,0-4,0.45-5.2,1.35c-0.98,0.73-1.46,1.65-1.46,2.74c0,0.97,0.39,1.79,1.16,2.46S322.8,175.66,323.98,175.66z"/>
								<path class="st3" d="M347.45,176.16h-0.79v-10.64c-0.01-1.59-0.36-2.77-1.05-3.55s-1.78-1.16-3.29-1.16
									c-1.74,0-3.16,0.77-4.26,2.3c-0.65,0.92-1.09,1.93-1.3,3.04v10.01h-0.81v-15.85h0.81v3.75c0.54-1.29,1.3-2.29,2.3-2.99
									s2.1-1.05,3.31-1.05c1.33,0,2.41,0.29,3.26,0.88s1.4,1.54,1.66,2.87c0.47-1.14,1.23-2.05,2.29-2.73s2.24-1.02,3.54-1.02
									c1.71,0,2.98,0.48,3.82,1.45s1.26,2.42,1.27,4.35v10.34h-0.79v-10.27c0-1.74-0.35-3.02-1.05-3.86s-1.79-1.24-3.29-1.22
									c-1.92,0.03-3.45,0.79-4.57,2.3c-0.64,0.87-1,1.71-1.05,2.52V176.16z"/>
								<path class="st3" d="M362.78,155.36c0-0.22,0.08-0.42,0.23-0.58s0.35-0.24,0.57-0.24s0.42,0.08,0.58,0.24
									s0.24,0.35,0.24,0.58s-0.08,0.42-0.24,0.57s-0.35,0.23-0.58,0.23s-0.42-0.08-0.57-0.23S362.78,155.58,362.78,155.36z
									 M363.99,176.16h-0.79v-15.85h0.79V176.16z"/>
								<path class="st3" d="M369.98,164c0.52-1.23,1.28-2.2,2.29-2.92s2.12-1.07,3.34-1.07c1.7,0,2.96,0.48,3.79,1.44
									s1.24,2.41,1.25,4.36v10.34h-0.79V165.8c-0.01-1.7-0.36-2.95-1.04-3.77c-0.68-0.81-1.77-1.22-3.25-1.22
									c-1.37,0-2.55,0.49-3.55,1.46c-1,0.97-1.68,2.22-2.03,3.75v10.14h-0.79v-15.85h0.79V164z"/>
								<path class="st3" d="M384.86,168.07c0-2.53,0.53-4.5,1.6-5.93s2.52-2.13,4.38-2.13c1.18,0,2.23,0.27,3.15,0.81
									s1.66,1.34,2.21,2.38v-2.9H397v15.57c0,2.09-0.54,3.72-1.61,4.9s-2.53,1.77-4.38,1.77c-1.06,0-2.04-0.23-2.92-0.69
									c-0.88-0.46-1.64-1.12-2.26-1.98l0.56-0.53c0.62,0.78,1.29,1.38,2.02,1.79c0.73,0.41,1.59,0.62,2.58,0.62
									c1.63,0,2.9-0.49,3.81-1.48c0.91-0.99,1.38-2.39,1.41-4.19v-2.43c-0.55,0.9-1.29,1.59-2.22,2.07s-1.99,0.73-3.17,0.73
									c-1.84,0-3.29-0.73-4.35-2.18s-1.6-3.45-1.6-5.99V168.07z M385.67,168.38c0,2.27,0.45,4.05,1.35,5.34s2.16,1.94,3.78,1.94
									c1.34,0,2.48-0.31,3.41-0.93s1.6-1.49,1.99-2.61v-7.19c-0.86-2.74-2.65-4.12-5.38-4.12c-1.63,0-2.9,0.64-3.8,1.92
									S385.67,165.89,385.67,168.38z"/>
								<path class="st3" d="M424.15,169.63c-0.21,2.2-0.96,3.88-2.27,5.06s-3.09,1.77-5.33,1.77c-1.51,0-2.85-0.38-4.02-1.15
									s-2.07-1.86-2.72-3.27s-0.97-3.02-0.98-4.84v-3.3c0-1.82,0.32-3.44,0.95-4.87s1.54-2.54,2.72-3.32s2.53-1.17,4.05-1.17
									c2.23,0,4,0.59,5.32,1.76s2.08,2.85,2.29,5.04h-0.79c-0.22-1.96-0.91-3.45-2.05-4.48s-2.73-1.53-4.76-1.53
									c-2.07,0-3.74,0.78-5.02,2.34s-1.91,3.66-1.91,6.28v3.13c0,1.68,0.28,3.17,0.85,4.46s1.38,2.3,2.44,3.02
									s2.27,1.08,3.64,1.08c2.04,0,3.64-0.5,4.78-1.51s1.82-2.51,2.03-4.53H424.15z"/>
								<path class="st3" d="M427.47,167.93c0-1.51,0.29-2.87,0.87-4.08s1.4-2.15,2.46-2.82s2.26-1.01,3.6-1.01
									c1.33,0,2.52,0.33,3.57,0.98s1.88,1.58,2.47,2.78s0.89,2.55,0.9,4.06v0.7c0,1.52-0.29,2.89-0.86,4.09s-1.39,2.14-2.45,2.81
									s-2.26,1.01-3.6,1.01s-2.54-0.33-3.6-1s-1.88-1.59-2.47-2.79s-0.88-2.54-0.89-4.04V167.93z M428.26,168.54
									c0,1.32,0.26,2.53,0.78,3.63s1.25,1.96,2.18,2.57s2,0.92,3.2,0.92c1.81,0,3.28-0.68,4.42-2.04s1.71-3.11,1.71-5.24v-0.45
									c0-1.3-0.26-2.5-0.79-3.6s-1.26-1.97-2.19-2.59s-1.99-0.93-3.17-0.93c-1.81,0-3.28,0.69-4.42,2.07s-1.71,3.11-1.71,5.2
									V168.54z"/>
								<path class="st3" d="M456.52,176.16h-0.79v-10.64c-0.01-1.59-0.36-2.77-1.05-3.55s-1.78-1.16-3.29-1.16
									c-1.74,0-3.16,0.77-4.26,2.3c-0.65,0.92-1.09,1.93-1.3,3.04v10.01h-0.81v-15.85h0.81v3.75c0.54-1.29,1.3-2.29,2.3-2.99
									s2.1-1.05,3.31-1.05c1.33,0,2.41,0.29,3.26,0.88s1.4,1.54,1.66,2.87c0.47-1.14,1.23-2.05,2.29-2.73s2.24-1.02,3.54-1.02
									c1.71,0,2.98,0.48,3.82,1.45s1.26,2.42,1.27,4.35v10.34h-0.79v-10.27c0-1.74-0.35-3.02-1.05-3.86s-1.79-1.24-3.29-1.22
									c-1.92,0.03-3.45,0.79-4.57,2.3c-0.64,0.87-1,1.71-1.05,2.52V176.16z"/>
								<path class="st3" d="M484.19,168.38c0,2.47-0.53,4.43-1.6,5.89s-2.51,2.18-4.35,2.18c-1.2,0-2.27-0.24-3.21-0.73
									s-1.67-1.16-2.2-2.02v8.55h-0.79v-21.94h0.79v2.83c0.55-1.01,1.28-1.78,2.21-2.31s1.98-0.81,3.16-0.81
									c1.86,0,3.32,0.71,4.38,2.13s1.6,3.42,1.6,5.98V168.38z M483.39,168.07c0-2.28-0.45-4.06-1.35-5.34s-2.17-1.93-3.8-1.93
									c-1.33,0-2.46,0.34-3.38,1.03s-1.6,1.68-2.01,2.97v7.41c0.41,1.09,1.08,1.94,2.01,2.54s2.07,0.9,3.41,0.9
									c1.62,0,2.88-0.64,3.78-1.93S483.39,170.55,483.39,168.07z"/>
								<path class="st3" d="M499.12,176.16v-2.56c-0.47,0.88-1.15,1.57-2.05,2.09s-2.04,0.77-3.41,0.77
									c-1.73,0-3.02-0.51-3.89-1.52s-1.31-2.48-1.33-4.42v-10.21h0.79v10.24c0.02,1.68,0.4,2.95,1.14,3.82s1.83,1.3,3.25,1.3
									c1.51,0,2.74-0.36,3.69-1.07s1.55-1.76,1.8-3.13v-11.15h0.81v15.85H499.12z"/>
								<path class="st3" d="M506.69,156.03v4.28h3.6v0.79h-3.6v11.26c0,1.12,0.18,1.96,0.55,2.49s0.98,0.81,1.84,0.81
									c0.43,0,0.95-0.04,1.57-0.13l0.13,0.75c-0.32,0.12-0.87,0.18-1.66,0.18c-1.15,0-1.98-0.32-2.48-0.96
									c-0.5-0.64-0.75-1.65-0.76-3.03V161.1h-2.93v-0.79h2.93v-4.28H506.69z"/>
								<path class="st3" d="M520.11,176.45c-1.28,0-2.45-0.34-3.52-1.03s-1.91-1.63-2.51-2.83s-0.91-2.53-0.91-4v-0.66
									c0-1.46,0.29-2.81,0.88-4.03s1.39-2.17,2.42-2.86s2.14-1.03,3.35-1.03c1.77,0,3.21,0.63,4.34,1.89s1.68,2.92,1.68,4.97v0.83
									h-11.88v0.86c0,1.29,0.27,2.48,0.81,3.58c0.54,1.1,1.29,1.96,2.24,2.58s1.98,0.94,3.1,0.94c1.06,0,1.97-0.18,2.72-0.53
									c0.75-0.35,1.41-0.9,1.98-1.64l0.56,0.4C524.19,175.6,522.43,176.45,520.11,176.45z M519.82,160.81
									c-1.54,0-2.85,0.57-3.93,1.72s-1.7,2.61-1.89,4.39h11.04v-0.19c0-1.07-0.23-2.07-0.68-3s-1.08-1.64-1.88-2.15
									S520.8,160.81,519.82,160.81z"/>
								<path class="st3" d="M536.52,160.89l-1.03-0.09c-1.35,0-2.48,0.44-3.38,1.31c-0.91,0.87-1.5,2.1-1.79,3.67v10.38h-0.79
									v-15.85h0.79v3.3c0.43-1.1,1.07-1.98,1.93-2.62s1.94-0.97,3.24-0.97c0.46,0,0.83,0.05,1.11,0.16L536.52,160.89z"/>
							</g>
						</g>
					</g>
					<g>
						<rect x="127.96" y="214.65" class="st4" width="546.77" height="55.6"/>
						<g>
							<path class="st3" d="M286.78,243.37c0,1.85-0.33,3.48-0.99,4.9s-1.6,2.52-2.82,3.3s-2.63,1.16-4.22,1.16
								c-2.4,0-4.35-0.85-5.83-2.56s-2.23-4.01-2.23-6.91v-3.08c0-1.84,0.33-3.47,0.99-4.89s1.6-2.53,2.83-3.3s2.63-1.16,4.21-1.16
								c1.59,0,3,0.39,4.23,1.16s2.17,1.88,2.83,3.31s1,3.06,1,4.89V243.37z M285.99,240.15c0-2.58-0.65-4.65-1.96-6.2
								s-3.08-2.34-5.3-2.34c-2.2,0-3.95,0.77-5.26,2.32s-1.96,3.65-1.96,6.32v3.12c0,1.7,0.3,3.2,0.89,4.5s1.43,2.31,2.53,3.01
								s2.37,1.05,3.84,1.05c2.23,0,3.99-0.78,5.29-2.33s1.95-3.67,1.95-6.36V240.15z"/>
							<path class="st3" d="M291.66,252.44v-21.33h5.61c2.29,0,4.03,0.47,5.21,1.4s1.77,2.29,1.77,4.06c0,1.29-0.33,2.36-0.98,3.21
								s-1.58,1.39-2.77,1.63c1.35,0.18,2.47,0.76,3.37,1.75s1.35,2.13,1.35,3.41c0,1.82-0.59,3.25-1.77,4.3s-2.81,1.57-4.91,1.57
								H291.66z M292.45,241.11h5.11c1.94,0,3.41-0.37,4.39-1.12s1.48-1.91,1.48-3.48c0-3.03-2-4.57-5.99-4.61h-5V241.11z
								 M292.45,241.9v9.74h6.17c1.81,0,3.23-0.45,4.26-1.34s1.55-2.13,1.55-3.71c0-1.35-0.5-2.46-1.49-3.33s-2.33-1.33-4-1.35
								H292.45z"/>
							<path class="st3" d="M322.53,247.32c0-0.91-0.21-1.68-0.64-2.31s-1.09-1.19-2.01-1.67s-2.29-0.98-4.14-1.49
								s-3.23-1.02-4.15-1.54s-1.6-1.12-2.03-1.8s-0.64-1.51-0.64-2.49c0-1.55,0.65-2.81,1.96-3.77s3.01-1.44,5.11-1.44
								c1.37,0,2.6,0.27,3.68,0.8s1.93,1.28,2.53,2.24s0.89,2.05,0.89,3.26h-0.79c0-1.59-0.59-2.91-1.76-3.95s-2.69-1.56-4.56-1.56
								c-1.88,0-3.39,0.42-4.55,1.25s-1.74,1.88-1.74,3.14c0,1.28,0.5,2.31,1.51,3.09s2.67,1.47,4.98,2.07s4.01,1.3,5.08,2.09
								c1.37,1.01,2.05,2.35,2.05,4.04c0,1.07-0.3,2.02-0.91,2.85s-1.46,1.46-2.58,1.91s-2.36,0.67-3.75,0.67
								c-1.54,0-2.93-0.26-4.16-0.77s-2.16-1.24-2.78-2.19s-0.93-2.07-0.93-3.35h0.79c0,1.75,0.65,3.11,1.96,4.07
								s3.01,1.45,5.11,1.45c1.87,0,3.4-0.43,4.61-1.28S322.53,248.69,322.53,247.32z"/>
							<path class="st3" d="M349.17,245.9c-0.21,2.2-0.96,3.88-2.27,5.06s-3.09,1.77-5.33,1.77c-1.51,0-2.85-0.38-4.02-1.15
								s-2.07-1.86-2.72-3.27s-0.97-3.02-0.98-4.84v-3.3c0-1.82,0.32-3.44,0.95-4.87s1.54-2.54,2.72-3.32s2.53-1.17,4.05-1.17
								c2.23,0,4,0.59,5.32,1.76s2.08,2.85,2.29,5.04h-0.79c-0.22-1.96-0.91-3.45-2.05-4.48s-2.73-1.53-4.76-1.53
								c-2.07,0-3.74,0.78-5.02,2.34s-1.91,3.66-1.91,6.28v3.13c0,1.68,0.28,3.17,0.85,4.46s1.38,2.3,2.44,3.02s2.27,1.08,3.64,1.08
								c2.04,0,3.64-0.5,4.78-1.51s1.82-2.51,2.03-4.53H349.17z"/>
							<path class="st3" d="M363.94,252.44c-0.2-0.67-0.29-1.64-0.29-2.9c-0.63,1.02-1.48,1.8-2.56,2.36s-2.31,0.83-3.68,0.83
								c-1.46,0-2.64-0.4-3.54-1.19s-1.34-1.83-1.34-3.11c0-1.46,0.66-2.62,1.97-3.49s3.06-1.32,5.24-1.34h3.91v-2.31
								c0-1.33-0.42-2.36-1.25-3.09s-2.03-1.1-3.58-1.1c-1.45,0-2.65,0.37-3.62,1.11s-1.45,1.66-1.45,2.75l-0.79-0.03
								c0-1.29,0.57-2.38,1.7-3.28s2.52-1.35,4.16-1.35c1.71,0,3.07,0.43,4.07,1.28s1.52,2.06,1.55,3.61v7.57
								c0,1.74,0.14,2.92,0.41,3.54v0.13H363.94z M357.4,251.94c1.48,0,2.76-0.33,3.83-1s1.87-1.6,2.41-2.8v-3.76h-3.66
								c-2.27,0-4,0.45-5.2,1.35c-0.98,0.73-1.46,1.65-1.46,2.74c0,0.97,0.39,1.79,1.16,2.46S356.22,251.94,357.4,251.94z"/>
							<path class="st3" d="M381.65,244.66c0,2.47-0.53,4.43-1.6,5.89s-2.51,2.18-4.35,2.18c-1.2,0-2.27-0.24-3.21-0.73
								s-1.67-1.16-2.2-2.02v8.55h-0.79v-21.94h0.79v2.83c0.55-1.01,1.28-1.78,2.21-2.31s1.98-0.81,3.16-0.81
								c1.86,0,3.32,0.71,4.38,2.13s1.6,3.42,1.6,5.98V244.66z M380.84,244.35c0-2.28-0.45-4.06-1.35-5.34s-2.17-1.93-3.8-1.93
								c-1.33,0-2.46,0.34-3.38,1.03s-1.6,1.68-2.01,2.97v7.41c0.41,1.09,1.08,1.94,2.01,2.54s2.07,0.9,3.41,0.9
								c1.62,0,2.88-0.64,3.78-1.93S380.84,246.83,380.84,244.35z"/>
							<path class="st3" d="M387.73,232.31v4.28h3.6v0.79h-3.6v11.26c0,1.12,0.18,1.96,0.55,2.49s0.98,0.81,1.84,0.81
								c0.43,0,0.95-0.04,1.57-0.13l0.13,0.75c-0.32,0.12-0.87,0.18-1.66,0.18c-1.15,0-1.98-0.32-2.48-0.96
								c-0.5-0.64-0.75-1.65-0.76-3.03v-11.36h-2.93v-0.79h2.93v-4.28H387.73z"/>
							<path class="st3" d="M406.07,252.44v-2.56c-0.47,0.88-1.15,1.57-2.05,2.09s-2.04,0.77-3.41,0.77c-1.73,0-3.02-0.51-3.89-1.52
								s-1.31-2.48-1.33-4.42v-10.21h0.79v10.24c0.02,1.68,0.4,2.95,1.14,3.82s1.83,1.3,3.25,1.3c1.51,0,2.74-0.36,3.69-1.07
								s1.55-1.76,1.8-3.13v-11.15h0.81v15.85H406.07z"/>
							<path class="st3" d="M418.85,237.17l-1.03-0.09c-1.35,0-2.48,0.44-3.38,1.31c-0.91,0.87-1.5,2.1-1.79,3.67v10.38h-0.79
								v-15.85h0.79v3.3c0.43-1.1,1.07-1.98,1.93-2.62s1.94-0.97,3.24-0.97c0.46,0,0.83,0.05,1.11,0.16L418.85,237.17z"/>
							<path class="st3" d="M427.32,252.73c-1.28,0-2.45-0.34-3.52-1.03s-1.91-1.63-2.51-2.83s-0.91-2.53-0.91-4v-0.66
								c0-1.46,0.29-2.81,0.88-4.03s1.39-2.17,2.42-2.86s2.14-1.03,3.35-1.03c1.77,0,3.21,0.63,4.34,1.89s1.68,2.92,1.68,4.97v0.83
								h-11.88v0.86c0,1.29,0.27,2.48,0.81,3.58c0.54,1.1,1.29,1.96,2.24,2.58s1.98,0.94,3.1,0.94c1.06,0,1.97-0.18,2.72-0.53
								c0.75-0.35,1.41-0.9,1.98-1.64l0.56,0.4C431.4,251.87,429.65,252.73,427.32,252.73z M427.03,237.08
								c-1.54,0-2.85,0.57-3.93,1.72s-1.7,2.61-1.89,4.39h11.04V243c0-1.07-0.23-2.07-0.68-3s-1.08-1.64-1.88-2.15
								S428.02,237.08,427.03,237.08z"/>
							<path class="st3" d="M447.58,240.69c-0.86-1.05-1.48-2-1.85-2.84s-0.56-1.67-0.56-2.5c0-1.38,0.41-2.48,1.24-3.3
								s1.9-1.24,3.23-1.24c1.22,0,2.2,0.36,2.94,1.08s1.11,1.65,1.11,2.79c0,1.33-0.92,2.75-2.75,4.28l-2.29,1.82l6.96,7.9
								c1.12-1.56,1.68-3.39,1.68-5.48h0.81c0,2.31-0.65,4.35-1.95,6.09l2.78,3.16h-0.98l-2.3-2.58c-1.91,1.91-3.98,2.87-6.2,2.87
								c-1.96,0-3.51-0.49-4.65-1.47s-1.71-2.31-1.71-3.98c0-0.96,0.28-1.9,0.83-2.83s1.53-1.99,2.92-3.17L447.58,240.69z
								 M449.44,251.94c1.08,0,2.12-0.23,3.1-0.7s1.84-1.13,2.59-1.98l-7.08-8.01l-0.76,0.6c-1.15,1-2.01,1.93-2.57,2.8
								s-0.84,1.75-0.84,2.64c0,1.39,0.51,2.51,1.52,3.37S447.75,251.94,449.44,251.94z M445.97,235.31c0,1.54,0.73,3.18,2.2,4.91
								l2.56-2.04c1.42-1.18,2.12-2.35,2.12-3.52c0-0.9-0.3-1.64-0.9-2.21s-1.37-0.86-2.32-0.86c-1.1,0-1.99,0.34-2.66,1.03
								S445.97,234.21,445.97,235.31z"/>
							<path class="st3" d="M482.55,247.32c0-0.91-0.21-1.68-0.64-2.31s-1.09-1.19-2.01-1.67s-2.29-0.98-4.14-1.49
								s-3.23-1.02-4.15-1.54s-1.6-1.12-2.03-1.8s-0.64-1.51-0.64-2.49c0-1.55,0.65-2.81,1.96-3.77s3.01-1.44,5.11-1.44
								c1.37,0,2.6,0.27,3.68,0.8s1.93,1.28,2.53,2.24s0.89,2.05,0.89,3.26h-0.79c0-1.59-0.59-2.91-1.76-3.95s-2.69-1.56-4.56-1.56
								c-1.88,0-3.39,0.42-4.55,1.25s-1.74,1.88-1.74,3.14c0,1.28,0.5,2.31,1.51,3.09s2.67,1.47,4.98,2.07s4.01,1.3,5.08,2.09
								c1.37,1.01,2.05,2.35,2.05,4.04c0,1.07-0.3,2.02-0.91,2.85s-1.46,1.46-2.58,1.91s-2.36,0.67-3.75,0.67
								c-1.54,0-2.93-0.26-4.16-0.77s-2.16-1.24-2.78-2.19s-0.93-2.07-0.93-3.35h0.79c0,1.75,0.65,3.11,1.96,4.07
								s3.01,1.45,5.11,1.45c1.87,0,3.4-0.43,4.61-1.28S482.55,248.69,482.55,247.32z"/>
							<path class="st3" d="M488.87,232.31v4.28h3.6v0.79h-3.6v11.26c0,1.12,0.18,1.96,0.55,2.49s0.98,0.81,1.84,0.81
								c0.43,0,0.95-0.04,1.57-0.13l0.13,0.75c-0.32,0.12-0.87,0.18-1.66,0.18c-1.15,0-1.98-0.32-2.48-0.96
								c-0.5-0.64-0.75-1.65-0.76-3.03v-11.36h-2.93v-0.79h2.93v-4.28H488.87z"/>
							<path class="st3" d="M503.58,237.17l-1.03-0.09c-1.35,0-2.48,0.44-3.38,1.31c-0.91,0.87-1.5,2.1-1.79,3.67v10.38h-0.79
								v-15.85h0.79v3.3c0.43-1.1,1.07-1.98,1.93-2.62s1.94-0.97,3.24-0.97c0.46,0,0.83,0.05,1.11,0.16L503.58,237.17z"/>
							<path class="st3" d="M512.05,252.73c-1.28,0-2.45-0.34-3.52-1.03s-1.91-1.63-2.51-2.83s-0.91-2.53-0.91-4v-0.66
								c0-1.46,0.29-2.81,0.88-4.03s1.39-2.17,2.42-2.86s2.14-1.03,3.35-1.03c1.77,0,3.21,0.63,4.34,1.89s1.68,2.92,1.68,4.97v0.83
								H505.9v0.86c0,1.29,0.27,2.48,0.81,3.58c0.54,1.1,1.29,1.96,2.24,2.58s1.98,0.94,3.1,0.94c1.06,0,1.97-0.18,2.72-0.53
								c0.75-0.35,1.41-0.9,1.98-1.64l0.56,0.4C516.13,251.87,514.37,252.73,512.05,252.73z M511.76,237.08
								c-1.54,0-2.85,0.57-3.93,1.72s-1.7,2.61-1.89,4.39h11.04V243c0-1.07-0.23-2.07-0.68-3s-1.08-1.64-1.88-2.15
								S512.74,237.08,511.76,237.08z"/>
							<path class="st3" d="M531.71,252.44c-0.2-0.67-0.29-1.64-0.29-2.9c-0.63,1.02-1.48,1.8-2.56,2.36s-2.31,0.83-3.68,0.83
								c-1.46,0-2.64-0.4-3.54-1.19s-1.34-1.83-1.34-3.11c0-1.46,0.66-2.62,1.97-3.49s3.06-1.32,5.24-1.34h3.91v-2.31
								c0-1.33-0.42-2.36-1.25-3.09s-2.03-1.1-3.58-1.1c-1.45,0-2.65,0.37-3.62,1.11s-1.45,1.66-1.45,2.75l-0.79-0.03
								c0-1.29,0.57-2.38,1.7-3.28s2.52-1.35,4.16-1.35c1.71,0,3.07,0.43,4.07,1.28s1.52,2.06,1.55,3.61v7.57
								c0,1.74,0.14,2.92,0.41,3.54v0.13H531.71z M525.17,251.94c1.48,0,2.76-0.33,3.83-1s1.87-1.6,2.41-2.8v-3.76h-3.66
								c-2.27,0-4,0.45-5.2,1.35c-0.98,0.73-1.46,1.65-1.46,2.74c0,0.97,0.39,1.79,1.16,2.46S523.99,251.94,525.17,251.94z"/>
							<path class="st3" d="M548.64,252.44h-0.79V241.8c-0.01-1.59-0.36-2.77-1.05-3.55s-1.78-1.16-3.29-1.16
								c-1.74,0-3.16,0.77-4.26,2.3c-0.65,0.92-1.09,1.93-1.3,3.04v10.01h-0.81v-15.85h0.81v3.75c0.54-1.29,1.3-2.29,2.3-2.99
								s2.1-1.05,3.31-1.05c1.33,0,2.41,0.29,3.26,0.88s1.4,1.54,1.66,2.87c0.47-1.14,1.23-2.05,2.29-2.73s2.24-1.02,3.54-1.02
								c1.71,0,2.98,0.48,3.82,1.45s1.26,2.42,1.27,4.35v10.34h-0.79v-10.27c0-1.74-0.35-3.02-1.05-3.86s-1.79-1.24-3.29-1.22
								c-1.92,0.03-3.45,0.79-4.57,2.3c-0.64,0.87-1,1.71-1.05,2.52V252.44z"/>
						</g>
					</g>
					<g>
						<rect x="127.96" y="289.5" class="st4" width="546.77" height="55.6"/>
						<g>
							<path class="st3" d="M310.24,326.5h10.94v0.79h-11.75v-21.33h0.81V326.5z"/>
							<path class="st3" d="M324.29,306.49c0-0.22,0.08-0.42,0.23-0.58s0.35-0.24,0.57-0.24s0.42,0.08,0.58,0.24
								s0.24,0.35,0.24,0.58s-0.08,0.42-0.24,0.57s-0.35,0.23-0.58,0.23s-0.42-0.08-0.57-0.23S324.29,306.71,324.29,306.49z
								 M325.49,327.29h-0.79v-15.85h0.79V327.29z"/>
							<path class="st3" d="M335.35,326.03l5.7-14.59h0.85l-6.17,15.85h-0.78l-6.15-15.85h0.85L335.35,326.03z"/>
							<path class="st3" d="M350.52,327.58c-1.28,0-2.45-0.34-3.52-1.03s-1.91-1.63-2.51-2.83s-0.91-2.53-0.91-4v-0.66
								c0-1.46,0.29-2.81,0.88-4.03s1.39-2.17,2.42-2.86s2.14-1.03,3.35-1.03c1.77,0,3.21,0.63,4.34,1.89s1.68,2.92,1.68,4.97v0.83
								h-11.88v0.86c0,1.29,0.27,2.48,0.81,3.58c0.54,1.1,1.29,1.96,2.24,2.58s1.98,0.94,3.1,0.94c1.06,0,1.97-0.18,2.72-0.53
								c0.75-0.35,1.41-0.9,1.98-1.64l0.56,0.4C354.6,326.72,352.85,327.58,350.52,327.58z M350.23,311.93
								c-1.54,0-2.85,0.57-3.93,1.72s-1.7,2.61-1.89,4.39h11.04v-0.19c0-1.07-0.23-2.07-0.68-3s-1.08-1.64-1.88-2.15
								S351.22,311.93,350.23,311.93z"/>
							<path class="st3" d="M373.13,322.17c0-0.91-0.21-1.68-0.64-2.31s-1.09-1.19-2.01-1.67s-2.29-0.98-4.14-1.49
								s-3.23-1.02-4.15-1.54s-1.6-1.12-2.03-1.8s-0.64-1.51-0.64-2.49c0-1.55,0.65-2.81,1.96-3.77s3.01-1.44,5.11-1.44
								c1.37,0,2.6,0.27,3.68,0.8s1.93,1.28,2.53,2.24s0.89,2.05,0.89,3.26h-0.79c0-1.59-0.59-2.91-1.76-3.95s-2.69-1.56-4.56-1.56
								c-1.88,0-3.39,0.42-4.55,1.25s-1.74,1.88-1.74,3.14c0,1.28,0.5,2.31,1.51,3.09s2.67,1.47,4.98,2.07s4.01,1.3,5.08,2.09
								c1.37,1.01,2.05,2.35,2.05,4.04c0,1.07-0.3,2.02-0.91,2.85s-1.46,1.46-2.58,1.91s-2.36,0.67-3.75,0.67
								c-1.54,0-2.93-0.26-4.16-0.77s-2.16-1.24-2.78-2.19s-0.93-2.07-0.93-3.35h0.79c0,1.75,0.65,3.11,1.96,4.07
								s3.01,1.45,5.11,1.45c1.87,0,3.4-0.43,4.61-1.28S373.13,323.54,373.13,322.17z"/>
							<path class="st3" d="M389.8,319.51c0,2.47-0.53,4.43-1.6,5.89s-2.51,2.18-4.35,2.18c-1.2,0-2.27-0.24-3.21-0.73
								s-1.67-1.16-2.2-2.02v8.55h-0.79v-21.94h0.79v2.83c0.55-1.01,1.28-1.78,2.21-2.31s1.98-0.81,3.16-0.81
								c1.86,0,3.32,0.71,4.38,2.13s1.6,3.42,1.6,5.98V319.51z M388.99,319.2c0-2.28-0.45-4.06-1.35-5.34s-2.17-1.93-3.8-1.93
								c-1.33,0-2.46,0.34-3.38,1.03s-1.6,1.68-2.01,2.97v7.41c0.41,1.09,1.08,1.94,2.01,2.54s2.07,0.9,3.41,0.9
								c1.62,0,2.88-0.64,3.78-1.93S388.99,321.68,388.99,319.2z"/>
							<path class="st3" d="M395.08,327.29h-0.79v-22.5h0.79V327.29z"/>
							<path class="st3" d="M400.06,306.49c0-0.22,0.08-0.42,0.23-0.58s0.35-0.24,0.57-0.24s0.42,0.08,0.58,0.24
								s0.24,0.35,0.24,0.58s-0.08,0.42-0.24,0.57s-0.35,0.23-0.58,0.23s-0.42-0.08-0.57-0.23S400.06,306.71,400.06,306.49z
								 M401.27,327.29h-0.79v-15.85h0.79V327.29z"/>
							<path class="st3" d="M408.24,307.16v4.28h3.6v0.79h-3.6v11.26c0,1.12,0.18,1.96,0.55,2.49s0.98,0.81,1.84,0.81
								c0.43,0,0.95-0.04,1.57-0.13l0.13,0.75c-0.32,0.12-0.87,0.18-1.66,0.18c-1.15,0-1.98-0.32-2.48-0.96
								c-0.5-0.64-0.75-1.65-0.76-3.03v-11.36h-2.93v-0.79h2.93v-4.28H408.24z"/>
							<path class="st3" d="M437.15,306.75h-7.76v20.54h-0.79v-20.54h-7.76v-0.79h16.32V306.75z"/>
							<path class="st3" d="M440.26,306.49c0-0.22,0.08-0.42,0.23-0.58s0.35-0.24,0.57-0.24s0.42,0.08,0.58,0.24
								s0.24,0.35,0.24,0.58s-0.08,0.42-0.24,0.57s-0.35,0.23-0.58,0.23s-0.42-0.08-0.57-0.23S440.26,306.71,440.26,306.49z
								 M441.46,327.29h-0.79v-15.85h0.79V327.29z"/>
							<path class="st3" d="M458,327.29h-0.79v-10.64c-0.01-1.59-0.36-2.77-1.05-3.55s-1.78-1.16-3.29-1.16
								c-1.74,0-3.16,0.77-4.26,2.3c-0.65,0.92-1.09,1.93-1.3,3.04v10.01h-0.81v-15.85h0.81v3.75c0.54-1.29,1.3-2.29,2.3-2.99
								s2.1-1.05,3.31-1.05c1.33,0,2.41,0.29,3.26,0.88s1.4,1.54,1.66,2.87c0.47-1.14,1.23-2.05,2.29-2.73s2.24-1.02,3.54-1.02
								c1.71,0,2.98,0.48,3.82,1.45s1.26,2.42,1.27,4.35v10.34h-0.79v-10.27c0-1.74-0.35-3.02-1.05-3.86s-1.79-1.24-3.29-1.22
								c-1.92,0.03-3.45,0.79-4.57,2.3c-0.64,0.87-1,1.71-1.05,2.52V327.29z"/>
							<path class="st3" d="M479.25,327.58c-1.28,0-2.45-0.34-3.52-1.03s-1.91-1.63-2.51-2.83s-0.91-2.53-0.91-4v-0.66
								c0-1.46,0.29-2.81,0.88-4.03s1.39-2.17,2.42-2.86s2.14-1.03,3.35-1.03c1.77,0,3.21,0.63,4.34,1.89s1.68,2.92,1.68,4.97v0.83
								H473.1v0.86c0,1.29,0.27,2.48,0.81,3.58c0.54,1.1,1.29,1.96,2.24,2.58s1.98,0.94,3.1,0.94c1.06,0,1.97-0.18,2.72-0.53
								c0.75-0.35,1.41-0.9,1.98-1.64l0.56,0.4C483.33,326.72,481.58,327.58,479.25,327.58z M478.96,311.93
								c-1.54,0-2.85,0.57-3.93,1.72s-1.7,2.61-1.89,4.39h11.04v-0.19c0-1.07-0.23-2.07-0.68-3s-1.08-1.64-1.88-2.15
								S479.95,311.93,478.96,311.93z"/>
							<path class="st3" d="M495.66,312.02l-1.03-0.09c-1.35,0-2.48,0.44-3.38,1.31c-0.91,0.87-1.5,2.1-1.79,3.67v10.38h-0.79
								v-15.85h0.79v3.3c0.43-1.1,1.07-1.98,1.93-2.62s1.94-0.97,3.24-0.97c0.46,0,0.83,0.05,1.11,0.16L495.66,312.02z"/>
						</g>
					</g>
				</g>
				<g>
					<g>
						<path class="st1" d="M1750.36,368.63h-574.62c-3.73,0-6.75-3.02-6.75-6.75V146.55c0-3.73,3.02-6.75,6.75-6.75h574.62
							c3.73,0,6.75,3.02,6.75,6.75v215.33C1757.11,365.61,1754.09,368.63,1750.36,368.63z"/>
						<g>
							<path class="st2" d="M1757.11,195.41h-588.12v-44.27c0-6.26,5.08-11.34,11.34-11.34h565.44c6.26,0,11.34,5.08,11.34,11.34
								V195.41z"/>
							<g>
								<path class="st3" d="M1361.07,173.87c-0.54,0.74-1.48,1.36-2.83,1.85s-2.83,0.73-4.45,0.73c-1.58,0-2.99-0.39-4.23-1.16
									s-2.21-1.86-2.91-3.27s-1.06-3-1.08-4.78v-3.66c0-1.75,0.34-3.32,1.01-4.7s1.62-2.46,2.84-3.22s2.59-1.14,4.12-1.14
									c2.12,0,3.84,0.54,5.18,1.63s2.11,2.56,2.32,4.44h-0.79c-0.26-1.7-0.97-3-2.13-3.91s-2.68-1.36-4.58-1.36
									c-2.15,0-3.88,0.77-5.2,2.3s-1.98,3.55-1.98,6.05v3.4c0,1.67,0.31,3.16,0.93,4.47s1.49,2.32,2.62,3.04s2.42,1.08,3.87,1.08
									c1.43,0,2.75-0.21,3.97-0.63c1.22-0.42,2.06-0.93,2.52-1.53v-6.22h-6.52v-0.79h7.31V173.87z"/>
								<path class="st3" d="M1376.47,176.16c-0.2-0.67-0.29-1.64-0.29-2.9c-0.63,1.02-1.48,1.8-2.56,2.36s-2.31,0.83-3.68,0.83
									c-1.46,0-2.64-0.4-3.54-1.19s-1.34-1.83-1.34-3.11c0-1.46,0.66-2.62,1.97-3.49s3.06-1.32,5.24-1.34h3.91V165
									c0-1.33-0.42-2.36-1.25-3.09s-2.03-1.1-3.58-1.1c-1.45,0-2.65,0.37-3.62,1.11s-1.45,1.66-1.45,2.75l-0.79-0.03
									c0-1.29,0.57-2.38,1.7-3.28s2.52-1.35,4.16-1.35c1.71,0,3.07,0.43,4.07,1.28s1.52,2.06,1.55,3.61v7.57
									c0,1.74,0.14,2.92,0.41,3.54v0.13H1376.47z M1369.93,175.66c1.48,0,2.76-0.33,3.83-1s1.87-1.6,2.41-2.8v-3.76h-3.66
									c-2.27,0-4,0.45-5.2,1.35c-0.98,0.73-1.46,1.65-1.46,2.74c0,0.97,0.38,1.79,1.16,2.46S1368.75,175.66,1369.93,175.66z"/>
								<path class="st3" d="M1393.4,176.16h-0.79v-10.64c-0.01-1.59-0.36-2.77-1.05-3.55s-1.79-1.16-3.29-1.16
									c-1.74,0-3.16,0.77-4.26,2.3c-0.65,0.92-1.09,1.93-1.3,3.04v10.01h-0.8v-15.85h0.8v3.75c0.54-1.29,1.3-2.29,2.3-2.99
									s2.1-1.05,3.31-1.05c1.33,0,2.41,0.29,3.26,0.88s1.4,1.54,1.66,2.87c0.47-1.14,1.23-2.05,2.29-2.73s2.24-1.02,3.54-1.02
									c1.71,0,2.98,0.48,3.82,1.45s1.26,2.42,1.27,4.35v10.34h-0.79v-10.27c0-1.74-0.35-3.02-1.05-3.86s-1.79-1.24-3.29-1.22
									c-1.92,0.03-3.45,0.79-4.57,2.3c-0.64,0.87-1,1.71-1.05,2.52V176.16z"/>
								<path class="st3" d="M1408.74,155.36c0-0.22,0.08-0.42,0.23-0.58s0.35-0.24,0.57-0.24s0.42,0.08,0.58,0.24
									s0.24,0.35,0.24,0.58s-0.08,0.42-0.24,0.57s-0.35,0.23-0.58,0.23s-0.41-0.08-0.57-0.23S1408.74,155.58,1408.74,155.36z
									 M1409.94,176.16h-0.79v-15.85h0.79V176.16z"/>
								<path class="st3" d="M1415.93,164c0.52-1.23,1.28-2.2,2.29-2.92s2.12-1.07,3.34-1.07c1.7,0,2.96,0.48,3.79,1.44
									s1.24,2.41,1.25,4.36v10.34h-0.79V165.8c-0.01-1.7-0.36-2.95-1.04-3.77c-0.68-0.81-1.77-1.22-3.25-1.22
									c-1.37,0-2.55,0.49-3.55,1.46c-1,0.97-1.68,2.22-2.03,3.75v10.14h-0.79v-15.85h0.79V164z"/>
								<path class="st3" d="M1430.81,168.07c0-2.53,0.53-4.5,1.6-5.93s2.52-2.13,4.38-2.13c1.18,0,2.23,0.27,3.15,0.81
									s1.65,1.34,2.21,2.38v-2.9h0.81v15.57c0,2.09-0.54,3.72-1.61,4.9s-2.54,1.77-4.38,1.77c-1.06,0-2.04-0.23-2.92-0.69
									c-0.88-0.46-1.64-1.12-2.26-1.98l0.56-0.53c0.62,0.78,1.29,1.38,2.02,1.79c0.73,0.41,1.59,0.62,2.58,0.62
									c1.63,0,2.9-0.49,3.81-1.48c0.91-0.99,1.38-2.39,1.41-4.19v-2.43c-0.55,0.9-1.29,1.59-2.22,2.07s-1.99,0.73-3.17,0.73
									c-1.84,0-3.29-0.73-4.35-2.18s-1.6-3.45-1.6-5.99V168.07z M1431.62,168.38c0,2.27,0.45,4.05,1.35,5.34s2.16,1.94,3.78,1.94
									c1.34,0,2.47-0.31,3.41-0.93s1.6-1.49,1.99-2.61v-7.19c-0.86-2.74-2.65-4.12-5.38-4.12c-1.63,0-2.9,0.64-3.8,1.92
									S1431.62,165.89,1431.62,168.38z"/>
								<path class="st3" d="M1470.1,169.63c-0.21,2.2-0.96,3.88-2.27,5.06s-3.09,1.77-5.33,1.77c-1.51,0-2.85-0.38-4.02-1.15
									s-2.07-1.86-2.72-3.27s-0.97-3.02-0.98-4.84v-3.3c0-1.82,0.32-3.44,0.95-4.87s1.54-2.54,2.72-3.32s2.53-1.17,4.05-1.17
									c2.23,0,4,0.59,5.32,1.76s2.08,2.85,2.29,5.04h-0.79c-0.22-1.96-0.91-3.45-2.05-4.48s-2.73-1.53-4.76-1.53
									c-2.07,0-3.74,0.78-5.02,2.34s-1.91,3.66-1.91,6.28v3.13c0,1.68,0.28,3.17,0.85,4.46s1.38,2.3,2.44,3.02
									s2.27,1.08,3.64,1.08c2.04,0,3.63-0.5,4.78-1.51s1.82-2.51,2.03-4.53H1470.1z"/>
								<path class="st3" d="M1473.43,167.93c0-1.51,0.29-2.87,0.87-4.08s1.4-2.15,2.46-2.82s2.26-1.01,3.6-1.01
									c1.33,0,2.52,0.33,3.57,0.98s1.88,1.58,2.47,2.78s0.89,2.55,0.9,4.06v0.7c0,1.52-0.29,2.89-0.86,4.09s-1.39,2.14-2.45,2.81
									s-2.26,1.01-3.6,1.01s-2.54-0.33-3.6-1s-1.88-1.59-2.47-2.79s-0.88-2.54-0.89-4.04V167.93z M1474.22,168.54
									c0,1.32,0.26,2.53,0.78,3.63s1.25,1.96,2.18,2.57s2,0.92,3.2,0.92c1.81,0,3.28-0.68,4.42-2.04s1.71-3.11,1.71-5.24v-0.45
									c0-1.3-0.26-2.5-0.79-3.6s-1.26-1.97-2.19-2.59s-1.99-0.93-3.17-0.93c-1.81,0-3.28,0.69-4.42,2.07s-1.71,3.11-1.71,5.2
									V168.54z"/>
								<path class="st3" d="M1502.47,176.16h-0.79v-10.64c-0.01-1.59-0.36-2.77-1.05-3.55s-1.79-1.16-3.29-1.16
									c-1.74,0-3.16,0.77-4.26,2.3c-0.65,0.92-1.09,1.93-1.3,3.04v10.01h-0.8v-15.85h0.8v3.75c0.54-1.29,1.3-2.29,2.3-2.99
									s2.1-1.05,3.31-1.05c1.33,0,2.41,0.29,3.26,0.88s1.4,1.54,1.66,2.87c0.47-1.14,1.23-2.05,2.29-2.73s2.24-1.02,3.54-1.02
									c1.71,0,2.98,0.48,3.82,1.45s1.26,2.42,1.27,4.35v10.34h-0.79v-10.27c0-1.74-0.35-3.02-1.05-3.86s-1.79-1.24-3.29-1.22
									c-1.92,0.03-3.45,0.79-4.57,2.3c-0.64,0.87-1,1.71-1.05,2.52V176.16z"/>
								<path class="st3" d="M1530.14,168.38c0,2.47-0.53,4.43-1.6,5.89s-2.51,2.18-4.35,2.18c-1.2,0-2.27-0.24-3.21-0.73
									s-1.67-1.16-2.2-2.02v8.55H1518v-21.94h0.79v2.83c0.55-1.01,1.29-1.78,2.21-2.31s1.98-0.81,3.16-0.81
									c1.86,0,3.31,0.71,4.38,2.13s1.6,3.42,1.6,5.98V168.38z M1529.34,168.07c0-2.28-0.45-4.06-1.35-5.34s-2.17-1.93-3.8-1.93
									c-1.33,0-2.46,0.34-3.38,1.03s-1.6,1.68-2.01,2.97v7.41c0.41,1.09,1.08,1.94,2.01,2.54s2.07,0.9,3.41,0.9
									c1.62,0,2.88-0.64,3.78-1.93S1529.34,170.55,1529.34,168.07z"/>
								<path class="st3" d="M1545.07,176.16v-2.56c-0.47,0.88-1.15,1.57-2.05,2.09s-2.04,0.77-3.41,0.77
									c-1.73,0-3.03-0.51-3.89-1.52s-1.31-2.48-1.33-4.42v-10.21h0.79v10.24c0.02,1.68,0.4,2.95,1.14,3.82s1.83,1.3,3.25,1.3
									c1.51,0,2.74-0.36,3.69-1.07s1.55-1.76,1.8-3.13v-11.15h0.81v15.85H1545.07z"/>
								<path class="st3" d="M1552.64,156.03v4.28h3.6v0.79h-3.6v11.26c0,1.12,0.18,1.96,0.55,2.49s0.98,0.81,1.84,0.81
									c0.43,0,0.95-0.04,1.57-0.13l0.13,0.75c-0.32,0.12-0.87,0.18-1.65,0.18c-1.15,0-1.98-0.32-2.48-0.96
									c-0.5-0.64-0.75-1.65-0.76-3.03V161.1h-2.93v-0.79h2.93v-4.28H1552.64z"/>
								<path class="st3" d="M1566.06,176.45c-1.28,0-2.45-0.34-3.52-1.03s-1.91-1.63-2.51-2.83s-0.91-2.53-0.91-4v-0.66
									c0-1.46,0.29-2.81,0.88-4.03s1.39-2.17,2.42-2.86s2.14-1.03,3.36-1.03c1.77,0,3.21,0.63,4.34,1.89s1.68,2.92,1.68,4.97v0.83
									h-11.88v0.86c0,1.29,0.27,2.48,0.81,3.58c0.54,1.1,1.29,1.96,2.24,2.58s1.99,0.94,3.1,0.94c1.06,0,1.97-0.18,2.72-0.53
									c0.75-0.35,1.41-0.9,1.98-1.64l0.56,0.4C1570.14,175.6,1568.39,176.45,1566.06,176.45z M1565.77,160.81
									c-1.54,0-2.85,0.57-3.93,1.72s-1.71,2.61-1.89,4.39H1571v-0.19c0-1.07-0.23-2.07-0.68-3s-1.08-1.64-1.88-2.15
									S1566.76,160.81,1565.77,160.81z"/>
								<path class="st3" d="M1582.47,160.89l-1.03-0.09c-1.35,0-2.48,0.44-3.38,1.31c-0.91,0.87-1.5,2.1-1.79,3.67v10.38h-0.79
									v-15.85h0.79v3.3c0.43-1.1,1.07-1.98,1.93-2.62s1.94-0.97,3.24-0.97c0.46,0,0.83,0.05,1.11,0.16L1582.47,160.89z"/>
							</g>
						</g>
					</g>
					<g>
						<rect x="1189.67" y="215.26" class="st4" width="546.77" height="55.6"/>
						<g>
							<path class="st3" d="M1441.79,249.54c-0.54,0.74-1.48,1.36-2.83,1.85s-2.83,0.73-4.45,0.73c-1.58,0-2.99-0.39-4.23-1.16
								s-2.21-1.86-2.91-3.27s-1.06-3-1.08-4.78v-3.66c0-1.75,0.34-3.32,1.01-4.7s1.62-2.46,2.84-3.22s2.59-1.14,4.12-1.14
								c2.12,0,3.85,0.54,5.18,1.63s2.11,2.56,2.32,4.44h-0.79c-0.26-1.7-0.97-3-2.12-3.91s-2.68-1.36-4.58-1.36
								c-2.15,0-3.88,0.77-5.2,2.3s-1.98,3.55-1.98,6.05v3.4c0,1.67,0.31,3.16,0.93,4.47s1.49,2.32,2.62,3.04s2.42,1.08,3.87,1.08
								c1.43,0,2.75-0.21,3.97-0.63c1.22-0.42,2.06-0.93,2.52-1.53v-6.22h-6.52v-0.79h7.31V249.54z"/>
							<path class="st3" d="M1457.19,251.83c-0.2-0.67-0.29-1.64-0.29-2.9c-0.63,1.02-1.48,1.8-2.56,2.36s-2.31,0.83-3.68,0.83
								c-1.46,0-2.64-0.4-3.54-1.19s-1.34-1.83-1.34-3.11c0-1.46,0.66-2.62,1.97-3.49s3.06-1.32,5.24-1.34h3.91v-2.31
								c0-1.33-0.42-2.36-1.25-3.09s-2.03-1.1-3.58-1.1c-1.45,0-2.65,0.37-3.62,1.11s-1.45,1.66-1.45,2.75l-0.79-0.03
								c0-1.29,0.57-2.38,1.7-3.28s2.52-1.35,4.16-1.35c1.71,0,3.07,0.43,4.07,1.28s1.52,2.06,1.55,3.61v7.57
								c0,1.74,0.14,2.92,0.41,3.54v0.13H1457.19z M1450.65,251.33c1.48,0,2.76-0.33,3.83-1s1.87-1.6,2.41-2.8v-3.76h-3.66
								c-2.27,0-4,0.45-5.2,1.35c-0.98,0.73-1.46,1.65-1.46,2.74c0,0.97,0.39,1.79,1.16,2.46S1449.47,251.33,1450.65,251.33z"/>
							<path class="st3" d="M1474.12,251.83h-0.79v-10.64c-0.01-1.59-0.36-2.77-1.05-3.55s-1.79-1.16-3.29-1.16
								c-1.74,0-3.16,0.77-4.26,2.3c-0.65,0.92-1.09,1.93-1.3,3.04v10.01h-0.81v-15.85h0.81v3.75c0.54-1.29,1.3-2.29,2.3-2.99
								s2.1-1.05,3.31-1.05c1.33,0,2.42,0.29,3.26,0.88s1.4,1.54,1.66,2.87c0.47-1.14,1.23-2.05,2.29-2.73s2.24-1.02,3.54-1.02
								c1.71,0,2.98,0.48,3.82,1.45s1.26,2.42,1.27,4.35v10.34h-0.79v-10.27c0-1.74-0.35-3.02-1.05-3.86s-1.79-1.24-3.29-1.22
								c-1.92,0.03-3.45,0.79-4.57,2.3c-0.64,0.87-1,1.71-1.05,2.52V251.83z"/>
							<path class="st3" d="M1495.38,252.12c-1.28,0-2.45-0.34-3.52-1.03s-1.91-1.63-2.51-2.83s-0.91-2.53-0.91-4v-0.66
								c0-1.46,0.29-2.81,0.88-4.03s1.39-2.17,2.42-2.86s2.14-1.03,3.35-1.03c1.77,0,3.21,0.63,4.34,1.89s1.68,2.92,1.68,4.97v0.83
								h-11.88v0.86c0,1.29,0.27,2.48,0.81,3.58c0.54,1.1,1.29,1.96,2.24,2.58s1.98,0.94,3.1,0.94c1.06,0,1.97-0.18,2.72-0.53
								c0.75-0.35,1.41-0.9,1.98-1.64l0.56,0.4C1499.45,251.27,1497.7,252.12,1495.38,252.12z M1495.08,236.48
								c-1.54,0-2.85,0.57-3.93,1.72s-1.7,2.61-1.89,4.39h11.04v-0.19c0-1.07-0.23-2.07-0.68-3s-1.08-1.64-1.88-2.15
								S1496.07,236.48,1495.08,236.48z"/>
						</g>
					</g>
					<g>
						<rect x="1189.67" y="294.39" class="st5" width="546.77" height="55.6"/>
						<g>
							<path class="st3" d="M1440.36,330.17h10.94v0.79h-11.75v-21.33h0.81V330.17z"/>
							<path class="st3" d="M1467.81,325.84c0-0.91-0.21-1.68-0.64-2.31s-1.09-1.19-2.01-1.67s-2.29-0.98-4.14-1.49
								s-3.23-1.02-4.15-1.54s-1.6-1.12-2.03-1.8s-0.64-1.51-0.64-2.49c0-1.55,0.65-2.81,1.96-3.77s3.01-1.44,5.11-1.44
								c1.37,0,2.59,0.27,3.68,0.8s1.93,1.28,2.53,2.24s0.89,2.05,0.89,3.26h-0.79c0-1.59-0.59-2.91-1.76-3.95s-2.69-1.56-4.56-1.56
								c-1.88,0-3.39,0.42-4.55,1.25s-1.74,1.88-1.74,3.14c0,1.28,0.5,2.31,1.51,3.09s2.67,1.47,4.98,2.07s4.01,1.3,5.08,2.09
								c1.37,1.01,2.05,2.35,2.05,4.04c0,1.07-0.3,2.02-0.91,2.85s-1.46,1.46-2.58,1.91s-2.36,0.67-3.75,0.67
								c-1.54,0-2.93-0.26-4.16-0.77s-2.16-1.24-2.78-2.19s-0.93-2.07-0.93-3.35h0.79c0,1.75,0.65,3.11,1.96,4.07
								s3.01,1.45,5.11,1.45c1.87,0,3.4-0.43,4.61-1.28S1467.81,327.21,1467.81,325.84z"/>
							<path class="st3" d="M1480.9,321.83h-7.4v9.13h-0.79v-21.33h6.8c2.14,0,3.84,0.55,5.1,1.66s1.9,2.6,1.9,4.5
								c0,1.46-0.45,2.73-1.36,3.82s-2.05,1.77-3.45,2.03l5.7,9.13v0.21h-0.83L1480.9,321.83z M1473.5,321.04h6.72
								c1.64,0,2.97-0.5,3.98-1.49s1.52-2.25,1.52-3.76c0-1.66-0.56-2.97-1.68-3.93s-2.65-1.44-4.59-1.44h-5.95V321.04z"/>
						</g>
					</g>
				</g>
				<g>
					<g>
						<line class="st6" x1="1138.1" y1="254.22" x2="1135.1" y2="254.22"/>
						<line class="st7" x1="1129.13" y1="254.22" x2="750.02" y2="254.22"/>
						<line class="st6" x1="747.03" y1="254.22" x2="744.03" y2="254.22"/>
						<g>
							<polygon class="st2" points="748.7,238.26 721.07,254.22 748.7,270.17 							"/>
						</g>
					</g>
				</g>
			</g>
			<path class="st8" d="M1773.48,396.73H87.82c-5.79,0-10.48-4.69-10.48-10.48V62.89c0-5.79,4.69-10.48,10.48-10.48h1685.66
				c5.79,0,10.48,4.69,10.48,10.48v323.36C1783.96,392.04,1779.27,396.73,1773.48,396.73z"/>
			<g>
				<path class="st9" d="M117.15,90.98c0-0.73-0.28-1.3-0.83-1.71s-1.51-0.75-2.89-1.05s-2.46-0.64-3.27-1.05s-1.4-0.9-1.79-1.46
					s-0.58-1.24-0.58-2.02c0-1.3,0.55-2.4,1.65-3.3s2.5-1.35,4.21-1.35c1.8,0,3.25,0.46,4.37,1.39s1.68,2.11,1.68,3.56h-2.72
					c0-0.74-0.31-1.38-0.94-1.92s-1.42-0.81-2.38-0.81c-0.99,0-1.76,0.21-2.31,0.64s-0.83,0.99-0.83,1.68
					c0,0.65,0.26,1.15,0.78,1.48s1.45,0.65,2.81,0.95s2.45,0.66,3.29,1.08s1.46,0.93,1.87,1.52s0.61,1.31,0.61,2.16
					c0,1.42-0.57,2.55-1.7,3.41s-2.6,1.28-4.41,1.28c-1.27,0-2.39-0.22-3.37-0.67s-1.74-1.08-2.29-1.88s-0.83-1.68-0.83-2.61h2.71
					c0.05,0.91,0.41,1.63,1.09,2.16s1.57,0.8,2.69,0.8c1.03,0,1.85-0.21,2.47-0.62S117.15,91.68,117.15,90.98z"/>
				<path class="st9" d="M129.97,95.48c-2.15,0-3.9-0.71-5.24-2.12s-2.02-3.3-2.02-5.66v-0.5c0-1.57,0.3-2.98,0.9-4.21
					s1.44-2.2,2.52-2.9s2.25-1.05,3.51-1.05c2.06,0,3.66,0.68,4.8,2.04s1.71,3.3,1.71,5.83v1.13h-10.74
					c0.04,1.56,0.5,2.82,1.37,3.79s1.98,1.44,3.33,1.44c0.96,0,1.77-0.2,2.43-0.59s1.25-0.91,1.74-1.55l1.66,1.29
					C134.62,94.46,132.63,95.48,129.97,95.48z M129.63,81.27c-1.09,0-2.01,0.4-2.75,1.19s-1.2,1.91-1.38,3.35h7.94v-0.21
					c-0.08-1.38-0.45-2.44-1.11-3.2S130.77,81.27,129.63,81.27z"/>
				<path class="st9" d="M142.96,75.5v3.84h2.96v2.09h-2.96v9.84c0,0.64,0.13,1.11,0.4,1.43s0.71,0.48,1.35,0.48
					c0.31,0,0.74-0.06,1.29-0.18v2.18c-0.71,0.19-1.41,0.29-2.08,0.29c-1.21,0-2.12-0.37-2.74-1.1s-0.92-1.77-0.92-3.12v-9.83h-2.89
					v-2.09h2.89V75.5H142.96z"/>
				<path class="st9" d="M158.87,93.62c-1.05,1.24-2.6,1.86-4.64,1.86c-1.69,0-2.98-0.49-3.86-1.47s-1.33-2.43-1.34-4.36V79.34h2.71
					v10.24c0,2.4,0.98,3.6,2.93,3.6c2.07,0,3.45-0.77,4.13-2.31V79.34h2.71v15.85h-2.58L158.87,93.62z"/>
				<path class="st9" d="M179.01,87.44c0,2.41-0.55,4.36-1.66,5.83s-2.6,2.21-4.48,2.21c-1.92,0-3.44-0.61-4.54-1.83v7.63h-2.71
					V79.34h2.48l0.13,1.76c1.1-1.37,2.64-2.05,4.6-2.05c1.9,0,3.41,0.72,4.52,2.15s1.66,3.43,1.66,5.99V87.44z M176.3,87.13
					c0-1.79-0.38-3.2-1.14-4.23s-1.81-1.55-3.13-1.55c-1.64,0-2.87,0.73-3.69,2.18v7.57c0.81,1.45,2.05,2.17,3.72,2.17
					c1.3,0,2.33-0.52,3.1-1.55S176.3,89.16,176.3,87.13z"/>
				<path class="st9" d="M198.51,95.19h-2.72V77.13l-5.46,2.01v-2.46l7.76-2.92h0.42V95.19z"/>
			</g>
		</g>
		<g>
			<g>
				<g>
					<g>
						<path class="st1" d="M688.66,776.06H114.04c-3.73,0-6.75-3.02-6.75-6.75V553.98c0-3.73,3.02-6.75,6.75-6.75h574.62
							c3.73,0,6.75,3.02,6.75,6.75v215.33C695.41,773.04,692.38,776.06,688.66,776.06z"/>
						<g>
							<path class="st2" d="M695.41,602.83H107.29v-44.27c0-6.26,5.08-11.34,11.34-11.34h565.44c6.26,0,11.34,5.08,11.34,11.34
								V602.83z"/>
							<g>
								<path class="st3" d="M281.35,578.47c0-0.91-0.21-1.68-0.64-2.31s-1.09-1.19-2.01-1.67s-2.29-0.98-4.14-1.49
									s-3.23-1.02-4.15-1.54s-1.6-1.12-2.03-1.8s-0.64-1.51-0.64-2.49c0-1.55,0.65-2.81,1.96-3.77s3.01-1.44,5.11-1.44
									c1.37,0,2.6,0.27,3.68,0.8s1.93,1.28,2.53,2.24s0.89,2.05,0.89,3.26h-0.79c0-1.59-0.59-2.91-1.76-3.95s-2.69-1.56-4.56-1.56
									c-1.88,0-3.39,0.42-4.55,1.25s-1.74,1.88-1.74,3.14c0,1.28,0.5,2.31,1.51,3.09s2.67,1.47,4.98,2.07s4.01,1.3,5.08,2.09
									c1.37,1.01,2.05,2.35,2.05,4.04c0,1.07-0.3,2.02-0.91,2.85s-1.46,1.46-2.58,1.91s-2.36,0.67-3.75,0.67
									c-1.54,0-2.93-0.26-4.16-0.77s-2.16-1.24-2.78-2.19s-0.93-2.06-0.93-3.35h0.79c0,1.75,0.65,3.11,1.96,4.07
									s3.01,1.45,5.11,1.45c1.87,0,3.4-0.43,4.61-1.28S281.35,579.84,281.35,578.47z"/>
								<path class="st3" d="M287.68,563.46v4.28h3.6v0.79h-3.6v11.26c0,1.12,0.18,1.96,0.55,2.49s0.98,0.81,1.84,0.81
									c0.43,0,0.95-0.04,1.57-0.13l0.13,0.75c-0.32,0.12-0.87,0.18-1.66,0.18c-1.15,0-1.98-0.32-2.48-0.96
									c-0.5-0.64-0.75-1.65-0.76-3.03v-11.36h-2.93v-0.79h2.93v-4.28H287.68z"/>
								<path class="st3" d="M302.39,568.32l-1.03-0.09c-1.35,0-2.48,0.44-3.38,1.31s-1.5,2.1-1.79,3.67v10.38h-0.79v-15.85h0.79
									v3.3c0.43-1.1,1.07-1.98,1.93-2.62s1.94-0.97,3.24-0.97c0.46,0,0.83,0.05,1.11,0.16L302.39,568.32z"/>
								<path class="st3" d="M310.86,583.88c-1.28,0-2.45-0.34-3.52-1.03s-1.91-1.63-2.51-2.83s-0.91-2.53-0.91-4v-0.66
									c0-1.46,0.29-2.81,0.88-4.03s1.39-2.17,2.42-2.86s2.14-1.03,3.35-1.03c1.77,0,3.21,0.63,4.34,1.89s1.68,2.91,1.68,4.96v0.84
									H304.7v0.86c0,1.29,0.27,2.48,0.81,3.58c0.54,1.1,1.29,1.96,2.24,2.58c0.95,0.63,1.98,0.94,3.1,0.94
									c1.06,0,1.97-0.18,2.72-0.53c0.75-0.35,1.41-0.9,1.98-1.64l0.56,0.4C314.93,583.02,313.18,583.88,310.86,583.88z
									 M310.56,568.23c-1.54,0-2.85,0.57-3.93,1.72s-1.7,2.61-1.89,4.39h11.04v-0.19c0-1.07-0.23-2.07-0.68-3
									s-1.08-1.64-1.88-2.15S311.55,568.23,310.56,568.23z"/>
								<path class="st3" d="M330.51,583.58c-0.2-0.67-0.29-1.64-0.29-2.9c-0.63,1.02-1.48,1.8-2.56,2.36s-2.31,0.83-3.68,0.83
									c-1.46,0-2.64-0.4-3.54-1.19s-1.34-1.83-1.34-3.11c0-1.46,0.66-2.62,1.97-3.49s3.06-1.32,5.24-1.34h3.91v-2.31
									c0-1.33-0.42-2.36-1.25-3.09s-2.03-1.1-3.58-1.1c-1.45,0-2.65,0.37-3.62,1.11s-1.45,1.66-1.45,2.75l-0.79-0.03
									c0-1.29,0.57-2.38,1.7-3.28s2.52-1.35,4.16-1.35c1.71,0,3.07,0.43,4.07,1.28s1.52,2.06,1.55,3.61v7.57
									c0,1.74,0.14,2.92,0.41,3.54v0.13H330.51z M323.98,583.08c1.48,0,2.76-0.33,3.83-1s1.87-1.6,2.41-2.8v-3.77h-3.66
									c-2.27,0-4,0.45-5.2,1.35c-0.98,0.73-1.46,1.65-1.46,2.74c0,0.97,0.39,1.79,1.16,2.46S322.8,583.08,323.98,583.08z"/>
								<path class="st3" d="M347.45,583.58h-0.79v-10.64c-0.01-1.59-0.36-2.77-1.05-3.55s-1.78-1.16-3.29-1.16
									c-1.74,0-3.16,0.77-4.26,2.3c-0.65,0.92-1.09,1.93-1.3,3.04v10.01h-0.81v-15.85h0.81v3.75c0.54-1.29,1.3-2.29,2.3-2.99
									s2.1-1.05,3.31-1.05c1.33,0,2.41,0.29,3.26,0.88s1.4,1.54,1.66,2.87c0.47-1.14,1.23-2.05,2.29-2.73s2.24-1.02,3.54-1.02
									c1.71,0,2.98,0.48,3.82,1.45s1.26,2.42,1.27,4.35v10.34h-0.79v-10.27c0-1.74-0.35-3.02-1.05-3.86s-1.79-1.24-3.29-1.22
									c-1.92,0.03-3.45,0.79-4.57,2.3c-0.64,0.87-1,1.71-1.05,2.52V583.58z"/>
								<path class="st3" d="M362.78,562.78c0-0.22,0.08-0.42,0.23-0.58s0.35-0.24,0.57-0.24s0.42,0.08,0.58,0.24
									s0.24,0.35,0.24,0.58s-0.08,0.42-0.24,0.57s-0.35,0.23-0.58,0.23s-0.42-0.08-0.57-0.23S362.78,563.01,362.78,562.78z
									 M363.99,583.58h-0.79v-15.85h0.79V583.58z"/>
								<path class="st3" d="M369.98,571.42c0.52-1.23,1.28-2.2,2.29-2.91s2.12-1.07,3.34-1.07c1.7,0,2.96,0.48,3.79,1.44
									s1.24,2.41,1.25,4.36v10.34h-0.79v-10.36c-0.01-1.7-0.36-2.95-1.04-3.77s-1.77-1.22-3.25-1.22c-1.37,0-2.55,0.49-3.55,1.46
									s-1.68,2.22-2.03,3.75v10.14h-0.79v-15.85h0.79V571.42z"/>
								<path class="st3" d="M384.86,575.5c0-2.53,0.53-4.5,1.6-5.92s2.52-2.13,4.38-2.13c1.18,0,2.23,0.27,3.15,0.81
									s1.66,1.33,2.21,2.38v-2.9H397v15.57c0,2.09-0.54,3.72-1.61,4.9s-2.53,1.76-4.38,1.76c-1.06,0-2.04-0.23-2.92-0.69
									c-0.88-0.46-1.64-1.12-2.26-1.98l0.56-0.53c0.62,0.78,1.29,1.38,2.02,1.79c0.73,0.41,1.59,0.62,2.58,0.62
									c1.63,0,2.9-0.49,3.81-1.48s1.38-2.39,1.41-4.19v-2.43c-0.55,0.9-1.29,1.59-2.22,2.07s-1.99,0.72-3.17,0.72
									c-1.84,0-3.29-0.73-4.35-2.18s-1.6-3.45-1.6-5.99V575.5z M385.67,575.8c0,2.27,0.45,4.04,1.35,5.34s2.16,1.94,3.78,1.94
									c1.34,0,2.48-0.31,3.41-0.93s1.6-1.49,1.99-2.62v-7.19c-0.86-2.74-2.65-4.12-5.38-4.12c-1.63,0-2.9,0.64-3.8,1.92
									S385.67,573.31,385.67,575.8z"/>
								<path class="st3" d="M424.15,577.05c-0.21,2.2-0.96,3.88-2.27,5.06s-3.09,1.76-5.33,1.76c-1.51,0-2.85-0.38-4.02-1.15
									s-2.07-1.86-2.72-3.27s-0.97-3.03-0.98-4.84v-3.29c0-1.82,0.32-3.44,0.95-4.87s1.54-2.54,2.72-3.32s2.53-1.17,4.05-1.17
									c2.23,0,4,0.59,5.32,1.76s2.08,2.85,2.29,5.04h-0.79c-0.22-1.96-0.91-3.45-2.05-4.47s-2.73-1.53-4.76-1.53
									c-2.07,0-3.74,0.78-5.02,2.34s-1.91,3.66-1.91,6.29v3.13c0,1.68,0.28,3.17,0.85,4.46s1.38,2.3,2.44,3.02
									s2.27,1.08,3.64,1.08c2.04,0,3.64-0.5,4.78-1.51s1.82-2.52,2.03-4.53H424.15z"/>
								<path class="st3" d="M427.47,575.35c0-1.51,0.29-2.87,0.87-4.08s1.4-2.15,2.46-2.82s2.26-1.01,3.6-1.01
									c1.33,0,2.52,0.33,3.57,0.98s1.88,1.58,2.47,2.78s0.89,2.55,0.9,4.06v0.7c0,1.52-0.29,2.89-0.86,4.09s-1.39,2.14-2.45,2.81
									s-2.26,1.01-3.6,1.01s-2.54-0.33-3.6-1s-1.88-1.59-2.47-2.79s-0.88-2.54-0.89-4.04V575.35z M428.26,575.96
									c0,1.32,0.26,2.53,0.78,3.63s1.25,1.96,2.18,2.57s2,0.92,3.2,0.92c1.81,0,3.28-0.68,4.42-2.04s1.71-3.11,1.71-5.24v-0.46
									c0-1.3-0.26-2.5-0.79-3.6s-1.26-1.96-2.19-2.58s-1.99-0.93-3.17-0.93c-1.81,0-3.28,0.69-4.42,2.07s-1.71,3.11-1.71,5.2
									V575.96z"/>
								<path class="st3" d="M456.52,583.58h-0.79v-10.64c-0.01-1.59-0.36-2.77-1.05-3.55s-1.78-1.16-3.29-1.16
									c-1.74,0-3.16,0.77-4.26,2.3c-0.65,0.92-1.09,1.93-1.3,3.04v10.01h-0.81v-15.85h0.81v3.75c0.54-1.29,1.3-2.29,2.3-2.99
									s2.1-1.05,3.31-1.05c1.33,0,2.41,0.29,3.26,0.88s1.4,1.54,1.66,2.87c0.47-1.14,1.23-2.05,2.29-2.73s2.24-1.02,3.54-1.02
									c1.71,0,2.98,0.48,3.82,1.45s1.26,2.42,1.27,4.35v10.34h-0.79v-10.27c0-1.74-0.35-3.02-1.05-3.86s-1.79-1.24-3.29-1.22
									c-1.92,0.03-3.45,0.79-4.57,2.3c-0.64,0.87-1,1.71-1.05,2.52V583.58z"/>
								<path class="st3" d="M484.19,575.8c0,2.47-0.53,4.43-1.6,5.89s-2.51,2.18-4.35,2.18c-1.2,0-2.27-0.24-3.21-0.73
									s-1.67-1.16-2.2-2.02v8.55h-0.79v-21.94h0.79v2.83c0.55-1.01,1.28-1.78,2.21-2.31s1.98-0.81,3.16-0.81
									c1.86,0,3.32,0.71,4.38,2.13s1.6,3.42,1.6,5.98V575.8z M483.39,575.5c0-2.28-0.45-4.05-1.35-5.34s-2.17-1.93-3.8-1.93
									c-1.33,0-2.46,0.34-3.38,1.03s-1.6,1.68-2.01,2.97v7.41c0.41,1.09,1.08,1.94,2.01,2.54s2.07,0.9,3.41,0.9
									c1.62,0,2.88-0.64,3.78-1.93S483.39,577.98,483.39,575.5z"/>
								<path class="st3" d="M499.12,583.58v-2.56c-0.47,0.88-1.15,1.57-2.05,2.09s-2.04,0.77-3.41,0.77c-1.73,0-3.02-0.5-3.89-1.52
									s-1.31-2.48-1.33-4.42v-10.21h0.79v10.24c0.02,1.68,0.4,2.95,1.14,3.82s1.83,1.3,3.25,1.3c1.51,0,2.74-0.36,3.69-1.07
									s1.55-1.76,1.8-3.13v-11.15h0.81v15.85H499.12z"/>
								<path class="st3" d="M506.69,563.46v4.28h3.6v0.79h-3.6v11.26c0,1.12,0.18,1.96,0.55,2.49s0.98,0.81,1.84,0.81
									c0.43,0,0.95-0.04,1.57-0.13l0.13,0.75c-0.32,0.12-0.87,0.18-1.66,0.18c-1.15,0-1.98-0.32-2.48-0.96
									c-0.5-0.64-0.75-1.65-0.76-3.03v-11.36h-2.93v-0.79h2.93v-4.28H506.69z"/>
								<path class="st3" d="M520.11,583.88c-1.28,0-2.45-0.34-3.52-1.03s-1.91-1.63-2.51-2.83s-0.91-2.53-0.91-4v-0.66
									c0-1.46,0.29-2.81,0.88-4.03s1.39-2.17,2.42-2.86s2.14-1.03,3.35-1.03c1.77,0,3.21,0.63,4.34,1.89s1.68,2.91,1.68,4.96v0.84
									h-11.88v0.86c0,1.29,0.27,2.48,0.81,3.58c0.54,1.1,1.29,1.96,2.24,2.58c0.95,0.63,1.98,0.94,3.1,0.94
									c1.06,0,1.97-0.18,2.72-0.53c0.75-0.35,1.41-0.9,1.98-1.64l0.56,0.4C524.19,583.02,522.43,583.88,520.11,583.88z
									 M519.82,568.23c-1.54,0-2.85,0.57-3.93,1.72s-1.7,2.61-1.89,4.39h11.04v-0.19c0-1.07-0.23-2.07-0.68-3
									s-1.08-1.64-1.88-2.15S520.8,568.23,519.82,568.23z"/>
								<path class="st3" d="M536.52,568.32l-1.03-0.09c-1.35,0-2.48,0.44-3.38,1.31s-1.5,2.1-1.79,3.67v10.38h-0.79v-15.85h0.79
									v3.3c0.43-1.1,1.07-1.98,1.93-2.62s1.94-0.97,3.24-0.97c0.46,0,0.83,0.05,1.11,0.16L536.52,568.32z"/>
							</g>
						</g>
					</g>
					<g>
						<rect x="127.96" y="622.08" class="st4" width="546.77" height="55.6"/>
						<g>
							<path class="st3" d="M286.78,650.79c0,1.85-0.33,3.48-0.99,4.9s-1.6,2.52-2.82,3.3s-2.63,1.16-4.22,1.16
								c-2.4,0-4.35-0.85-5.83-2.56s-2.23-4.01-2.23-6.91v-3.08c0-1.84,0.33-3.47,0.99-4.89s1.6-2.53,2.83-3.3s2.63-1.17,4.21-1.17
								c1.59,0,3,0.39,4.23,1.17s2.17,1.88,2.83,3.31s1,3.06,1,4.88V650.79z M285.99,647.57c0-2.58-0.65-4.65-1.96-6.2
								s-3.08-2.34-5.3-2.34c-2.2,0-3.95,0.77-5.26,2.32s-1.96,3.65-1.96,6.32v3.12c0,1.7,0.3,3.2,0.89,4.5s1.43,2.31,2.53,3.01
								s2.37,1.05,3.84,1.05c2.23,0,3.99-0.78,5.29-2.33s1.95-3.67,1.95-6.36V647.57z"/>
							<path class="st3" d="M291.66,659.86v-21.33h5.61c2.29,0,4.03,0.47,5.21,1.4s1.77,2.29,1.77,4.06c0,1.29-0.33,2.36-0.98,3.21
								s-1.58,1.39-2.77,1.63c1.35,0.18,2.47,0.76,3.37,1.75s1.35,2.13,1.35,3.41c0,1.82-0.59,3.25-1.77,4.3s-2.81,1.57-4.91,1.57
								H291.66z M292.45,648.54h5.11c1.94,0,3.41-0.37,4.39-1.12s1.48-1.91,1.48-3.48c0-3.03-2-4.57-5.99-4.61h-5V648.54z
								 M292.45,649.33v9.74h6.17c1.81,0,3.23-0.45,4.26-1.34s1.55-2.13,1.55-3.71c0-1.35-0.5-2.46-1.49-3.33s-2.33-1.33-4-1.36
								H292.45z"/>
							<path class="st3" d="M322.53,654.75c0-0.91-0.21-1.68-0.64-2.31s-1.09-1.19-2.01-1.67s-2.29-0.98-4.14-1.49
								s-3.23-1.02-4.15-1.54s-1.6-1.12-2.03-1.8s-0.64-1.51-0.64-2.49c0-1.55,0.65-2.81,1.96-3.77s3.01-1.44,5.11-1.44
								c1.37,0,2.6,0.27,3.68,0.8s1.93,1.28,2.53,2.24s0.89,2.05,0.89,3.26h-0.79c0-1.59-0.59-2.91-1.76-3.95s-2.69-1.56-4.56-1.56
								c-1.88,0-3.39,0.42-4.55,1.25s-1.74,1.88-1.74,3.14c0,1.28,0.5,2.31,1.51,3.09s2.67,1.47,4.98,2.07s4.01,1.3,5.08,2.09
								c1.37,1.01,2.05,2.35,2.05,4.04c0,1.07-0.3,2.02-0.91,2.85s-1.46,1.46-2.58,1.91s-2.36,0.67-3.75,0.67
								c-1.54,0-2.93-0.26-4.16-0.77s-2.16-1.24-2.78-2.19s-0.93-2.07-0.93-3.35h0.79c0,1.75,0.65,3.11,1.96,4.07
								s3.01,1.45,5.11,1.45c1.87,0,3.4-0.43,4.61-1.28S322.53,656.11,322.53,654.75z"/>
							<path class="st3" d="M349.17,653.33c-0.21,2.2-0.96,3.88-2.27,5.06s-3.09,1.76-5.33,1.76c-1.51,0-2.85-0.38-4.02-1.15
								s-2.07-1.86-2.72-3.27s-0.97-3.03-0.98-4.84v-3.3c0-1.82,0.32-3.44,0.95-4.87s1.54-2.54,2.72-3.32s2.53-1.17,4.05-1.17
								c2.23,0,4,0.59,5.32,1.76s2.08,2.85,2.29,5.04h-0.79c-0.22-1.96-0.91-3.45-2.05-4.47s-2.73-1.53-4.76-1.53
								c-2.07,0-3.74,0.78-5.02,2.34s-1.91,3.66-1.91,6.28v3.13c0,1.68,0.28,3.17,0.85,4.46s1.38,2.3,2.44,3.02s2.27,1.08,3.64,1.08
								c2.04,0,3.64-0.5,4.78-1.51s1.82-2.51,2.03-4.53H349.17z"/>
							<path class="st3" d="M363.94,659.86c-0.2-0.67-0.29-1.64-0.29-2.9c-0.63,1.02-1.48,1.8-2.56,2.36s-2.31,0.83-3.68,0.83
								c-1.46,0-2.64-0.4-3.54-1.19s-1.34-1.83-1.34-3.11c0-1.46,0.66-2.62,1.97-3.49s3.06-1.32,5.24-1.34h3.91v-2.31
								c0-1.33-0.42-2.36-1.25-3.09s-2.03-1.1-3.58-1.1c-1.45,0-2.65,0.37-3.62,1.11s-1.45,1.66-1.45,2.75l-0.79-0.03
								c0-1.29,0.57-2.38,1.7-3.28s2.52-1.35,4.16-1.35c1.71,0,3.07,0.43,4.07,1.28s1.52,2.06,1.55,3.61v7.57
								c0,1.74,0.14,2.92,0.41,3.54v0.13H363.94z M357.4,659.36c1.48,0,2.76-0.33,3.83-1s1.87-1.6,2.41-2.8v-3.76h-3.66
								c-2.27,0-4,0.45-5.2,1.35c-0.98,0.73-1.46,1.65-1.46,2.74c0,0.97,0.39,1.79,1.16,2.46S356.22,659.36,357.4,659.36z"/>
							<path class="st3" d="M381.65,652.08c0,2.47-0.53,4.43-1.6,5.89s-2.51,2.18-4.35,2.18c-1.2,0-2.27-0.24-3.21-0.73
								s-1.67-1.16-2.2-2.02v8.55h-0.79v-21.94h0.79v2.83c0.55-1.01,1.28-1.78,2.21-2.31s1.98-0.81,3.16-0.81
								c1.86,0,3.32,0.71,4.38,2.13s1.6,3.42,1.6,5.98V652.08z M380.84,651.77c0-2.28-0.45-4.05-1.35-5.34s-2.17-1.93-3.8-1.93
								c-1.33,0-2.46,0.34-3.38,1.03s-1.6,1.68-2.01,2.97v7.41c0.41,1.09,1.08,1.94,2.01,2.54s2.07,0.9,3.41,0.9
								c1.62,0,2.88-0.64,3.78-1.93S380.84,654.25,380.84,651.77z"/>
							<path class="st3" d="M387.73,639.73v4.28h3.6v0.79h-3.6v11.26c0,1.12,0.18,1.96,0.55,2.49c0.37,0.54,0.98,0.81,1.84,0.81
								c0.43,0,0.95-0.04,1.57-0.13l0.13,0.75c-0.32,0.12-0.87,0.18-1.66,0.18c-1.15,0-1.98-0.32-2.48-0.96s-0.75-1.65-0.76-3.03
								V644.8h-2.93v-0.79h2.93v-4.28H387.73z"/>
							<path class="st3" d="M406.07,659.86v-2.56c-0.47,0.88-1.15,1.58-2.05,2.09s-2.04,0.77-3.41,0.77c-1.73,0-3.02-0.5-3.89-1.52
								s-1.31-2.48-1.33-4.42v-10.21h0.79v10.24c0.02,1.68,0.4,2.95,1.14,3.82s1.83,1.3,3.25,1.3c1.51,0,2.74-0.36,3.69-1.07
								s1.55-1.76,1.8-3.13v-11.15h0.81v15.85H406.07z"/>
							<path class="st3" d="M418.85,644.6l-1.03-0.09c-1.35,0-2.48,0.44-3.38,1.31c-0.91,0.87-1.5,2.09-1.79,3.67v10.38h-0.79
								v-15.85h0.79v3.3c0.43-1.1,1.07-1.98,1.93-2.62s1.94-0.97,3.24-0.97c0.46,0,0.83,0.05,1.11,0.16L418.85,644.6z"/>
							<path class="st3" d="M427.32,660.15c-1.28,0-2.45-0.34-3.52-1.03s-1.91-1.63-2.51-2.83s-0.91-2.53-0.91-4v-0.66
								c0-1.46,0.29-2.81,0.88-4.03s1.39-2.17,2.42-2.86s2.14-1.03,3.35-1.03c1.77,0,3.21,0.63,4.34,1.89s1.68,2.92,1.68,4.97v0.83
								h-11.88v0.86c0,1.29,0.27,2.48,0.81,3.58c0.54,1.1,1.29,1.96,2.24,2.58s1.98,0.94,3.1,0.94c1.06,0,1.97-0.18,2.72-0.53
								c0.75-0.35,1.41-0.9,1.98-1.64l0.56,0.4C431.4,659.3,429.65,660.15,427.32,660.15z M427.03,644.51
								c-1.54,0-2.85,0.57-3.93,1.72s-1.7,2.61-1.89,4.39h11.04v-0.19c0-1.07-0.23-2.07-0.68-3s-1.08-1.64-1.88-2.15
								S428.02,644.51,427.03,644.51z"/>
							<path class="st3" d="M447.58,648.11c-0.86-1.05-1.48-2-1.85-2.84s-0.56-1.67-0.56-2.5c0-1.38,0.41-2.48,1.24-3.3
								s1.9-1.24,3.23-1.24c1.22,0,2.2,0.36,2.94,1.08s1.11,1.65,1.11,2.79c0,1.33-0.92,2.75-2.75,4.28l-2.29,1.82l6.96,7.9
								c1.12-1.56,1.68-3.39,1.68-5.48h0.81c0,2.31-0.65,4.35-1.95,6.09l2.78,3.16h-0.98l-2.3-2.58c-1.91,1.91-3.98,2.87-6.2,2.87
								c-1.96,0-3.51-0.49-4.65-1.47s-1.71-2.31-1.71-3.98c0-0.96,0.28-1.9,0.83-2.83s1.53-1.99,2.92-3.17L447.58,648.11z
								 M449.44,659.36c1.08,0,2.12-0.23,3.1-0.7s1.84-1.13,2.59-1.99l-7.08-8.01l-0.76,0.6c-1.15,1-2.01,1.93-2.57,2.8
								s-0.84,1.75-0.84,2.64c0,1.39,0.51,2.51,1.52,3.37S447.75,659.36,449.44,659.36z M445.97,642.74c0,1.54,0.73,3.18,2.2,4.91
								l2.56-2.04c1.42-1.18,2.12-2.35,2.12-3.52c0-0.9-0.3-1.64-0.9-2.21s-1.37-0.86-2.32-0.86c-1.1,0-1.99,0.34-2.66,1.03
								S445.97,641.63,445.97,642.74z"/>
							<path class="st3" d="M482.55,654.75c0-0.91-0.21-1.68-0.64-2.31s-1.09-1.19-2.01-1.67s-2.29-0.98-4.14-1.49
								s-3.23-1.02-4.15-1.54s-1.6-1.12-2.03-1.8s-0.64-1.51-0.64-2.49c0-1.55,0.65-2.81,1.96-3.77s3.01-1.44,5.11-1.44
								c1.37,0,2.6,0.27,3.68,0.8s1.93,1.28,2.53,2.24s0.89,2.05,0.89,3.26h-0.79c0-1.59-0.59-2.91-1.76-3.95s-2.69-1.56-4.56-1.56
								c-1.88,0-3.39,0.42-4.55,1.25s-1.74,1.88-1.74,3.14c0,1.28,0.5,2.31,1.51,3.09s2.67,1.47,4.98,2.07s4.01,1.3,5.08,2.09
								c1.37,1.01,2.05,2.35,2.05,4.04c0,1.07-0.3,2.02-0.91,2.85s-1.46,1.46-2.58,1.91s-2.36,0.67-3.75,0.67
								c-1.54,0-2.93-0.26-4.16-0.77s-2.16-1.24-2.78-2.19s-0.93-2.07-0.93-3.35h0.79c0,1.75,0.65,3.11,1.96,4.07
								s3.01,1.45,5.11,1.45c1.87,0,3.4-0.43,4.61-1.28S482.55,656.11,482.55,654.75z"/>
							<path class="st3" d="M488.87,639.73v4.28h3.6v0.79h-3.6v11.26c0,1.12,0.18,1.96,0.55,2.49c0.37,0.54,0.98,0.81,1.84,0.81
								c0.43,0,0.95-0.04,1.57-0.13l0.13,0.75c-0.32,0.12-0.87,0.18-1.66,0.18c-1.15,0-1.98-0.32-2.48-0.96s-0.75-1.65-0.76-3.03
								V644.8h-2.93v-0.79h2.93v-4.28H488.87z"/>
							<path class="st3" d="M503.58,644.6l-1.03-0.09c-1.35,0-2.48,0.44-3.38,1.31c-0.91,0.87-1.5,2.09-1.79,3.67v10.38h-0.79
								v-15.85h0.79v3.3c0.43-1.1,1.07-1.98,1.93-2.62s1.94-0.97,3.24-0.97c0.46,0,0.83,0.05,1.11,0.16L503.58,644.6z"/>
							<path class="st3" d="M512.05,660.15c-1.28,0-2.45-0.34-3.52-1.03s-1.91-1.63-2.51-2.83s-0.91-2.53-0.91-4v-0.66
								c0-1.46,0.29-2.81,0.88-4.03s1.39-2.17,2.42-2.86s2.14-1.03,3.35-1.03c1.77,0,3.21,0.63,4.34,1.89s1.68,2.92,1.68,4.97v0.83
								H505.9v0.86c0,1.29,0.27,2.48,0.81,3.58c0.54,1.1,1.29,1.96,2.24,2.58s1.98,0.94,3.1,0.94c1.06,0,1.97-0.18,2.72-0.53
								c0.75-0.35,1.41-0.9,1.98-1.64l0.56,0.4C516.13,659.3,514.37,660.15,512.05,660.15z M511.76,644.51
								c-1.54,0-2.85,0.57-3.93,1.72s-1.7,2.61-1.89,4.39h11.04v-0.19c0-1.07-0.23-2.07-0.68-3s-1.08-1.64-1.88-2.15
								S512.74,644.51,511.76,644.51z"/>
							<path class="st3" d="M531.71,659.86c-0.2-0.67-0.29-1.64-0.29-2.9c-0.63,1.02-1.48,1.8-2.56,2.36s-2.31,0.83-3.68,0.83
								c-1.46,0-2.64-0.4-3.54-1.19s-1.34-1.83-1.34-3.11c0-1.46,0.66-2.62,1.97-3.49s3.06-1.32,5.24-1.34h3.91v-2.31
								c0-1.33-0.42-2.36-1.25-3.09s-2.03-1.1-3.58-1.1c-1.45,0-2.65,0.37-3.62,1.11s-1.45,1.66-1.45,2.75l-0.79-0.03
								c0-1.29,0.57-2.38,1.7-3.28s2.52-1.35,4.16-1.35c1.71,0,3.07,0.43,4.07,1.28s1.52,2.06,1.55,3.61v7.57
								c0,1.74,0.14,2.92,0.41,3.54v0.13H531.71z M525.17,659.36c1.48,0,2.76-0.33,3.83-1s1.87-1.6,2.41-2.8v-3.76h-3.66
								c-2.27,0-4,0.45-5.2,1.35c-0.98,0.73-1.46,1.65-1.46,2.74c0,0.97,0.39,1.79,1.16,2.46S523.99,659.36,525.17,659.36z"/>
							<path class="st3" d="M548.64,659.86h-0.79v-10.64c-0.01-1.59-0.36-2.77-1.05-3.55s-1.78-1.16-3.29-1.16
								c-1.74,0-3.16,0.77-4.26,2.3c-0.65,0.92-1.09,1.93-1.3,3.04v10.01h-0.81v-15.85h0.81v3.75c0.54-1.29,1.3-2.29,2.3-2.99
								s2.1-1.05,3.31-1.05c1.33,0,2.41,0.29,3.26,0.88s1.4,1.54,1.66,2.87c0.47-1.14,1.23-2.05,2.29-2.73s2.24-1.02,3.54-1.02
								c1.71,0,2.98,0.48,3.82,1.45s1.26,2.42,1.27,4.35v10.34h-0.79v-10.27c0-1.74-0.35-3.02-1.05-3.86s-1.79-1.24-3.29-1.22
								c-1.92,0.03-3.45,0.79-4.57,2.3c-0.64,0.87-1,1.71-1.05,2.52V659.86z"/>
						</g>
					</g>
					<g>
						<rect x="127.96" y="696.93" class="st4" width="546.77" height="55.6"/>
						<g>
							<path class="st3" d="M310.24,733.92h10.94v0.79h-11.75v-21.33h0.81V733.92z"/>
							<path class="st3" d="M324.29,713.91c0-0.22,0.08-0.42,0.23-0.58s0.35-0.24,0.57-0.24s0.42,0.08,0.58,0.24
								s0.24,0.35,0.24,0.58s-0.08,0.42-0.24,0.57s-0.35,0.23-0.58,0.23s-0.42-0.08-0.57-0.23S324.29,714.13,324.29,713.91z
								 M325.49,734.71h-0.79v-15.85h0.79V734.71z"/>
							<path class="st3" d="M335.35,733.45l5.7-14.59h0.85l-6.17,15.85h-0.78l-6.15-15.85h0.85L335.35,733.45z"/>
							<path class="st3" d="M350.52,735c-1.28,0-2.45-0.34-3.52-1.03s-1.91-1.63-2.51-2.83s-0.91-2.53-0.91-4v-0.66
								c0-1.46,0.29-2.81,0.88-4.03s1.39-2.17,2.42-2.86s2.14-1.03,3.35-1.03c1.77,0,3.21,0.63,4.34,1.89s1.68,2.92,1.68,4.97v0.83
								h-11.88v0.86c0,1.29,0.27,2.48,0.81,3.58s1.29,1.96,2.24,2.58s1.98,0.94,3.1,0.94c1.06,0,1.97-0.18,2.72-0.53
								s1.41-0.9,1.98-1.64l0.56,0.4C354.6,734.15,352.85,735,350.52,735z M350.23,719.36c-1.54,0-2.85,0.57-3.93,1.72
								s-1.7,2.61-1.89,4.39h11.04v-0.19c0-1.07-0.23-2.07-0.68-3s-1.08-1.64-1.88-2.15S351.22,719.36,350.23,719.36z"/>
							<path class="st3" d="M373.13,729.6c0-0.91-0.21-1.68-0.64-2.31s-1.09-1.19-2.01-1.67s-2.29-0.98-4.14-1.49
								s-3.23-1.02-4.15-1.54s-1.6-1.12-2.03-1.8s-0.64-1.51-0.64-2.49c0-1.55,0.65-2.81,1.96-3.77s3.01-1.44,5.11-1.44
								c1.37,0,2.6,0.27,3.68,0.8s1.93,1.28,2.53,2.24s0.89,2.05,0.89,3.26h-0.79c0-1.59-0.59-2.91-1.76-3.95s-2.69-1.56-4.56-1.56
								c-1.88,0-3.39,0.42-4.55,1.25s-1.74,1.88-1.74,3.14c0,1.28,0.5,2.31,1.51,3.09s2.67,1.47,4.98,2.07s4.01,1.3,5.08,2.09
								c1.37,1.01,2.05,2.35,2.05,4.04c0,1.07-0.3,2.02-0.91,2.85s-1.46,1.46-2.58,1.91s-2.36,0.67-3.75,0.67
								c-1.54,0-2.93-0.26-4.16-0.77s-2.16-1.24-2.78-2.19s-0.93-2.07-0.93-3.35h0.79c0,1.75,0.65,3.11,1.96,4.07
								s3.01,1.45,5.11,1.45c1.87,0,3.4-0.43,4.61-1.28S373.13,730.97,373.13,729.6z"/>
							<path class="st3" d="M389.8,726.93c0,2.47-0.53,4.43-1.6,5.89s-2.51,2.18-4.35,2.18c-1.2,0-2.27-0.24-3.21-0.73
								s-1.67-1.16-2.2-2.02v8.55h-0.79v-21.94h0.79v2.83c0.55-1.01,1.28-1.78,2.21-2.31s1.98-0.81,3.16-0.81
								c1.86,0,3.32,0.71,4.38,2.13s1.6,3.42,1.6,5.98V726.93z M388.99,726.63c0-2.28-0.45-4.06-1.35-5.34s-2.17-1.93-3.8-1.93
								c-1.33,0-2.46,0.34-3.38,1.03s-1.6,1.68-2.01,2.97v7.41c0.41,1.09,1.08,1.94,2.01,2.54s2.07,0.9,3.41,0.9
								c1.62,0,2.88-0.64,3.78-1.93S388.99,729.11,388.99,726.63z"/>
							<path class="st3" d="M395.08,734.71h-0.79v-22.5h0.79V734.71z"/>
							<path class="st3" d="M400.06,713.91c0-0.22,0.08-0.42,0.23-0.58s0.35-0.24,0.57-0.24s0.42,0.08,0.58,0.24
								s0.24,0.35,0.24,0.58s-0.08,0.42-0.24,0.57s-0.35,0.23-0.58,0.23s-0.42-0.08-0.57-0.23S400.06,714.13,400.06,713.91z
								 M401.27,734.71h-0.79v-15.85h0.79V734.71z"/>
							<path class="st3" d="M408.24,714.58v4.28h3.6v0.79h-3.6v11.26c0,1.12,0.18,1.96,0.55,2.49c0.37,0.54,0.98,0.81,1.84,0.81
								c0.43,0,0.95-0.04,1.57-0.13l0.13,0.75c-0.32,0.12-0.87,0.18-1.66,0.18c-1.15,0-1.98-0.32-2.48-0.96
								c-0.5-0.64-0.75-1.65-0.76-3.03v-11.36h-2.93v-0.79h2.93v-4.28H408.24z"/>
							<path class="st3" d="M437.15,714.17h-7.76v20.54h-0.79v-20.54h-7.76v-0.79h16.32V714.17z"/>
							<path class="st3" d="M440.26,713.91c0-0.22,0.08-0.42,0.23-0.58s0.35-0.24,0.57-0.24s0.42,0.08,0.58,0.24
								s0.24,0.35,0.24,0.58s-0.08,0.42-0.24,0.57s-0.35,0.23-0.58,0.23s-0.42-0.08-0.57-0.23S440.26,714.13,440.26,713.91z
								 M441.46,734.71h-0.79v-15.85h0.79V734.71z"/>
							<path class="st3" d="M458,734.71h-0.79v-10.64c-0.01-1.59-0.36-2.77-1.05-3.55s-1.78-1.16-3.29-1.16
								c-1.74,0-3.16,0.77-4.26,2.3c-0.65,0.92-1.09,1.93-1.3,3.04v10.01h-0.81v-15.85h0.81v3.75c0.54-1.29,1.3-2.29,2.3-2.99
								s2.1-1.05,3.31-1.05c1.33,0,2.41,0.29,3.26,0.88s1.4,1.54,1.66,2.87c0.47-1.14,1.23-2.05,2.29-2.73s2.24-1.02,3.54-1.02
								c1.71,0,2.98,0.48,3.82,1.45s1.26,2.42,1.27,4.35v10.34h-0.79v-10.27c0-1.74-0.35-3.02-1.05-3.86s-1.79-1.24-3.29-1.22
								c-1.92,0.03-3.45,0.79-4.57,2.3c-0.64,0.87-1,1.71-1.05,2.52V734.71z"/>
							<path class="st3" d="M479.25,735c-1.28,0-2.45-0.34-3.52-1.03s-1.91-1.63-2.51-2.83s-0.91-2.53-0.91-4v-0.66
								c0-1.46,0.29-2.81,0.88-4.03s1.39-2.17,2.42-2.86s2.14-1.03,3.35-1.03c1.77,0,3.21,0.63,4.34,1.89s1.68,2.92,1.68,4.97v0.83
								H473.1v0.86c0,1.29,0.27,2.48,0.81,3.58s1.29,1.96,2.24,2.58s1.98,0.94,3.1,0.94c1.06,0,1.97-0.18,2.72-0.53
								s1.41-0.9,1.98-1.64l0.56,0.4C483.33,734.15,481.58,735,479.25,735z M478.96,719.36c-1.54,0-2.85,0.57-3.93,1.72
								s-1.7,2.61-1.89,4.39h11.04v-0.19c0-1.07-0.23-2.07-0.68-3s-1.08-1.64-1.88-2.15S479.95,719.36,478.96,719.36z"/>
							<path class="st3" d="M495.66,719.45l-1.03-0.09c-1.35,0-2.48,0.44-3.38,1.31s-1.5,2.1-1.79,3.67v10.38h-0.79v-15.85h0.79v3.3
								c0.43-1.1,1.07-1.98,1.93-2.62s1.94-0.97,3.24-0.97c0.46,0,0.83,0.05,1.11,0.16L495.66,719.45z"/>
						</g>
					</g>
				</g>
				<g>
					<rect x="1187.97" y="582.79" class="st4" width="546.77" height="55.6"/>
					<g>
						<path class="st1" d="M1748.67,736.77h-574.62c-3.73,0-6.75-3.02-6.75-6.75V514.69c0-3.73,3.02-6.75,6.75-6.75h574.62
							c3.73,0,6.75,3.02,6.75,6.75v215.33C1755.42,733.75,1752.4,736.77,1748.67,736.77z"/>
						<g>
							<path class="st2" d="M1755.42,563.54H1167.3v-44.27c0-6.26,5.08-11.34,11.34-11.34h565.44c6.26,0,11.34,5.08,11.34,11.34
								V563.54z"/>
							<g>
								<path class="st3" d="M1420.16,543.5h10.94v0.79h-11.75v-21.33h0.81V543.5z"/>
								<path class="st3" d="M1444.67,544.3c-0.2-0.67-0.29-1.64-0.29-2.9c-0.63,1.02-1.48,1.8-2.56,2.36s-2.31,0.83-3.68,0.83
									c-1.46,0-2.64-0.4-3.54-1.19c-0.89-0.79-1.34-1.83-1.34-3.11c0-1.46,0.66-2.62,1.97-3.49c1.31-0.88,3.06-1.32,5.24-1.34
									h3.91v-2.31c0-1.33-0.42-2.36-1.25-3.09s-2.03-1.1-3.58-1.1c-1.45,0-2.65,0.37-3.62,1.11s-1.45,1.66-1.45,2.75l-0.79-0.03
									c0-1.29,0.57-2.38,1.7-3.28s2.52-1.35,4.16-1.35c1.71,0,3.07,0.43,4.07,1.28c1.01,0.85,1.52,2.06,1.55,3.61v7.57
									c0,1.74,0.14,2.92,0.41,3.54v0.13H1444.67z M1438.13,543.8c1.48,0,2.76-0.33,3.83-1s1.87-1.6,2.41-2.8v-3.76h-3.66
									c-2.27,0-4,0.45-5.2,1.35c-0.98,0.73-1.46,1.65-1.46,2.74c0,0.97,0.39,1.79,1.16,2.46S1436.95,543.8,1438.13,543.8z"/>
								<path class="st3" d="M1462.38,536.52c0,2.47-0.53,4.43-1.6,5.89s-2.51,2.18-4.35,2.18c-1.2,0-2.27-0.24-3.21-0.73
									s-1.67-1.16-2.2-2.02v8.55h-0.79v-21.94h0.79v2.83c0.55-1.01,1.28-1.78,2.21-2.31s1.98-0.81,3.16-0.81
									c1.86,0,3.32,0.71,4.38,2.13c1.06,1.42,1.6,3.42,1.6,5.98V536.52z M1461.57,536.21c0-2.28-0.45-4.06-1.35-5.34
									c-0.9-1.29-2.17-1.93-3.8-1.93c-1.33,0-2.46,0.34-3.38,1.03c-0.93,0.69-1.6,1.68-2.01,2.97v7.41
									c0.41,1.09,1.08,1.94,2.01,2.54c0.93,0.6,2.07,0.9,3.41,0.9c1.62,0,2.88-0.64,3.78-1.93S1461.57,538.69,1461.57,536.21z"/>
								<path class="st3" d="M1468.45,524.17v4.28h3.6v0.79h-3.6v11.26c0,1.13,0.18,1.96,0.55,2.49c0.37,0.54,0.98,0.81,1.84,0.81
									c0.43,0,0.95-0.04,1.57-0.13l0.13,0.75c-0.32,0.12-0.87,0.18-1.66,0.18c-1.15,0-1.98-0.32-2.48-0.96s-0.75-1.65-0.76-3.03
									v-11.36h-2.93v-0.79h2.93v-4.28H1468.45z"/>
								<path class="st3" d="M1474.68,536.06c0-1.51,0.29-2.87,0.87-4.08c0.58-1.21,1.4-2.15,2.46-2.82s2.26-1.01,3.6-1.01
									c1.33,0,2.52,0.33,3.57,0.98s1.88,1.58,2.47,2.78s0.89,2.55,0.9,4.06v0.7c0,1.52-0.29,2.89-0.86,4.09s-1.39,2.14-2.45,2.81
									s-2.26,1.01-3.6,1.01s-2.54-0.33-3.6-1s-1.88-1.59-2.47-2.79c-0.59-1.2-0.88-2.54-0.89-4.04V536.06z M1475.47,536.68
									c0,1.32,0.26,2.53,0.78,3.63c0.52,1.1,1.25,1.96,2.18,2.57s2,0.92,3.2,0.92c1.81,0,3.28-0.68,4.42-2.04s1.71-3.11,1.71-5.24
									v-0.45c0-1.3-0.26-2.5-0.79-3.6s-1.26-1.97-2.19-2.58c-0.93-0.62-1.99-0.93-3.17-0.93c-1.81,0-3.28,0.69-4.42,2.07
									s-1.71,3.11-1.71,5.2V536.68z"/>
								<path class="st3" d="M1504.5,536.52c0,2.47-0.53,4.43-1.6,5.89s-2.51,2.18-4.35,2.18c-1.2,0-2.27-0.24-3.21-0.73
									s-1.67-1.16-2.2-2.02v8.55h-0.79v-21.94h0.79v2.83c0.55-1.01,1.28-1.78,2.21-2.31s1.98-0.81,3.16-0.81
									c1.86,0,3.32,0.71,4.38,2.13c1.06,1.42,1.6,3.42,1.6,5.98V536.52z M1503.7,536.21c0-2.28-0.45-4.06-1.35-5.34
									c-0.9-1.29-2.17-1.93-3.8-1.93c-1.33,0-2.46,0.34-3.38,1.03c-0.93,0.69-1.6,1.68-2.01,2.97v7.41
									c0.41,1.09,1.08,1.94,2.01,2.54c0.93,0.6,2.07,0.9,3.41,0.9c1.62,0,2.88-0.64,3.78-1.93S1503.7,538.69,1503.7,536.21z"/>
							</g>
						</g>
					</g>
					<g>
						<path class="st3" d="M1443.88,614.04c-0.21,2.2-0.96,3.88-2.27,5.06s-3.09,1.77-5.33,1.77c-1.51,0-2.85-0.38-4.02-1.15
							s-2.07-1.86-2.72-3.27s-0.97-3.02-0.98-4.84v-3.3c0-1.82,0.32-3.44,0.95-4.87s1.54-2.54,2.72-3.32s2.53-1.17,4.05-1.17
							c2.23,0,4,0.59,5.32,1.76s2.08,2.85,2.29,5.04h-0.79c-0.22-1.96-0.91-3.46-2.05-4.48s-2.73-1.53-4.76-1.53
							c-2.07,0-3.74,0.78-5.02,2.34s-1.91,3.66-1.91,6.28v3.13c0,1.68,0.28,3.17,0.85,4.46s1.38,2.3,2.44,3.03s2.27,1.08,3.64,1.08
							c2.04,0,3.63-0.5,4.78-1.51s1.82-2.51,2.03-4.53H1443.88z"/>
						<path class="st3" d="M1449.2,608.42c0.52-1.23,1.28-2.2,2.29-2.92s2.12-1.07,3.34-1.07c1.7,0,2.96,0.48,3.79,1.44
							s1.24,2.42,1.25,4.36v10.34h-0.79v-10.36c-0.01-1.7-0.36-2.95-1.04-3.77s-1.77-1.22-3.25-1.22c-1.37,0-2.55,0.49-3.55,1.46
							s-1.68,2.22-2.03,3.75v10.14h-0.79v-22.5h0.79V608.42z"/>
						<path class="st3" d="M1475.07,620.57c-0.2-0.67-0.29-1.64-0.29-2.9c-0.63,1.02-1.48,1.8-2.56,2.36s-2.31,0.83-3.68,0.83
							c-1.46,0-2.64-0.4-3.54-1.19s-1.34-1.83-1.34-3.11c0-1.46,0.66-2.62,1.97-3.49s3.06-1.32,5.24-1.34h3.91v-2.31
							c0-1.33-0.42-2.36-1.25-3.09s-2.03-1.1-3.58-1.1c-1.45,0-2.65,0.37-3.62,1.11s-1.45,1.66-1.45,2.75l-0.79-0.03
							c0-1.29,0.57-2.38,1.7-3.28s2.52-1.35,4.16-1.35c1.71,0,3.07,0.43,4.07,1.28s1.52,2.06,1.55,3.61v7.57
							c0,1.74,0.14,2.92,0.41,3.54v0.13H1475.07z M1468.53,620.08c1.48,0,2.76-0.33,3.83-1s1.87-1.6,2.41-2.8v-3.76h-3.66
							c-2.27,0-4,0.45-5.2,1.35c-0.98,0.73-1.46,1.65-1.46,2.74c0,0.97,0.39,1.79,1.16,2.46S1467.35,620.08,1468.53,620.08z"/>
						<path class="st3" d="M1482.44,600.45v4.28h3.6v0.79h-3.6v11.26c0,1.12,0.18,1.96,0.55,2.49c0.37,0.54,0.98,0.81,1.84,0.81
							c0.43,0,0.95-0.04,1.57-0.13l0.13,0.75c-0.32,0.12-0.87,0.18-1.66,0.18c-1.15,0-1.98-0.32-2.48-0.96
							c-0.5-0.64-0.75-1.65-0.76-3.03v-11.36h-2.93v-0.79h2.93v-4.28H1482.44z"/>
					</g>
					<rect x="1187.97" y="662.53" class="st5" width="546.77" height="55.6"/>
					<g>
						<path class="st3" d="M1435.27,698.3h10.94v0.79h-11.75v-21.33h0.81V698.3z"/>
						<path class="st3" d="M1462.72,693.98c0-0.91-0.21-1.68-0.64-2.31s-1.09-1.19-2.01-1.67s-2.29-0.98-4.14-1.49
							s-3.23-1.02-4.15-1.54s-1.6-1.12-2.03-1.8s-0.64-1.51-0.64-2.49c0-1.55,0.65-2.81,1.96-3.77s3.01-1.44,5.11-1.44
							c1.37,0,2.6,0.27,3.68,0.8s1.93,1.28,2.53,2.24s0.89,2.05,0.89,3.26h-0.79c0-1.59-0.59-2.91-1.76-3.95s-2.69-1.56-4.56-1.56
							c-1.88,0-3.39,0.42-4.55,1.25s-1.74,1.88-1.74,3.14c0,1.28,0.5,2.31,1.51,3.09s2.67,1.47,4.98,2.07s4.01,1.3,5.08,2.09
							c1.37,1.01,2.05,2.35,2.05,4.04c0,1.07-0.3,2.02-0.91,2.85s-1.46,1.46-2.58,1.91s-2.36,0.67-3.75,0.67
							c-1.54,0-2.93-0.26-4.16-0.77s-2.16-1.24-2.78-2.19s-0.93-2.07-0.93-3.35h0.79c0,1.75,0.65,3.11,1.96,4.07
							s3.01,1.45,5.11,1.45c1.87,0,3.4-0.43,4.61-1.28S1462.72,695.35,1462.72,693.98z"/>
						<path class="st3" d="M1475.81,689.97h-7.4v9.13h-0.79v-21.33h6.8c2.14,0,3.84,0.55,5.11,1.66s1.9,2.6,1.9,4.5
							c0,1.46-0.45,2.73-1.35,3.82s-2.05,1.77-3.45,2.03l5.7,9.13v0.21h-0.83L1475.81,689.97z M1468.41,689.18h6.72
							c1.64,0,2.97-0.5,3.98-1.49s1.52-2.25,1.52-3.76c0-1.66-0.56-2.97-1.68-3.93s-2.65-1.44-4.59-1.44h-5.95V689.18z"/>
					</g>
				</g>
				<g>
					<rect x="1188.36" y="841.56" class="st4" width="546.77" height="55.6"/>
					<g>
						<path class="st10" d="M1750.33,917.48h-577.16c-3.03,0-5.48-2.45-5.48-5.48V772.19c0-3.03,2.45-5.48,5.48-5.48h577.16
							c3.03,0,5.48,2.45,5.48,5.48v139.82C1755.81,915.03,1753.35,917.48,1750.33,917.48z"/>
						<g>
							<path class="st2" d="M1755.81,822.32h-588.12v-44.27c0-6.26,5.08-11.34,11.34-11.34h565.44c6.26,0,11.34,5.08,11.34,11.34
								V822.32z"/>
							<g>
								<path class="st3" d="M1384.34,800.78c-0.54,0.74-1.48,1.36-2.83,1.85s-2.83,0.73-4.45,0.73c-1.58,0-2.99-0.39-4.23-1.16
									s-2.21-1.86-2.91-3.27s-1.06-3-1.08-4.78v-3.66c0-1.75,0.34-3.32,1.01-4.7s1.62-2.46,2.84-3.22s2.59-1.13,4.12-1.13
									c2.12,0,3.84,0.54,5.18,1.63s2.11,2.56,2.32,4.44h-0.79c-0.26-1.7-0.97-3-2.13-3.91s-2.68-1.36-4.58-1.36
									c-2.15,0-3.88,0.77-5.2,2.3s-1.98,3.55-1.98,6.05v3.4c0,1.67,0.31,3.16,0.93,4.47s1.49,2.32,2.62,3.04s2.42,1.08,3.87,1.08
									c1.43,0,2.75-0.21,3.97-0.63c1.22-0.42,2.06-0.93,2.52-1.53v-6.22h-6.52v-0.79h7.31V800.78z"/>
								<path class="st3" d="M1399.74,803.07c-0.2-0.67-0.29-1.64-0.29-2.9c-0.63,1.02-1.48,1.8-2.56,2.36s-2.31,0.83-3.68,0.83
									c-1.46,0-2.64-0.4-3.54-1.19s-1.34-1.83-1.34-3.11c0-1.46,0.66-2.62,1.97-3.49s3.06-1.32,5.24-1.34h3.91v-2.31
									c0-1.33-0.42-2.36-1.25-3.09s-2.03-1.1-3.58-1.1c-1.45,0-2.65,0.37-3.62,1.11s-1.45,1.66-1.45,2.75l-0.79-0.03
									c0-1.29,0.57-2.38,1.7-3.28s2.52-1.35,4.16-1.35c1.71,0,3.07,0.43,4.07,1.28s1.52,2.06,1.55,3.61v7.57
									c0,1.74,0.14,2.92,0.41,3.54v0.13H1399.74z M1393.21,802.57c1.48,0,2.76-0.33,3.83-1s1.87-1.6,2.41-2.8v-3.76h-3.66
									c-2.27,0-4,0.45-5.2,1.35c-0.98,0.73-1.46,1.65-1.46,2.74c0,0.97,0.38,1.79,1.16,2.46S1392.02,802.57,1393.21,802.57z"/>
								<path class="st3" d="M1416.67,803.07h-0.79v-10.64c-0.01-1.59-0.36-2.77-1.05-3.55s-1.79-1.16-3.29-1.16
									c-1.74,0-3.16,0.77-4.26,2.3c-0.65,0.92-1.09,1.93-1.3,3.04v10.01h-0.8v-15.85h0.8v3.75c0.54-1.29,1.3-2.29,2.3-2.99
									s2.1-1.05,3.31-1.05c1.33,0,2.41,0.29,3.26,0.88s1.4,1.54,1.66,2.87c0.47-1.14,1.23-2.05,2.29-2.73s2.24-1.02,3.54-1.02
									c1.71,0,2.98,0.48,3.82,1.45s1.26,2.42,1.27,4.35v10.34h-0.79v-10.27c0-1.74-0.35-3.02-1.05-3.86s-1.79-1.24-3.29-1.22
									c-1.92,0.03-3.45,0.79-4.57,2.3c-0.64,0.87-1,1.71-1.05,2.52V803.07z"/>
								<path class="st3" d="M1437.93,803.36c-1.28,0-2.45-0.34-3.52-1.03s-1.91-1.63-2.51-2.83s-0.91-2.53-0.91-4v-0.66
									c0-1.46,0.29-2.81,0.88-4.03s1.39-2.17,2.42-2.86s2.14-1.03,3.36-1.03c1.77,0,3.21,0.63,4.34,1.89s1.68,2.92,1.68,4.97v0.83
									h-11.88v0.86c0,1.29,0.27,2.48,0.81,3.58s1.29,1.96,2.24,2.58s1.99,0.94,3.1,0.94c1.06,0,1.97-0.18,2.72-0.53
									s1.41-0.9,1.98-1.64l0.56,0.4C1442,802.51,1440.25,803.36,1437.93,803.36z M1437.63,787.72c-1.54,0-2.85,0.57-3.93,1.72
									s-1.71,2.61-1.89,4.39h11.04v-0.19c0-1.07-0.23-2.07-0.68-3s-1.08-1.64-1.88-2.15S1438.62,787.72,1437.63,787.72z"/>
								<path class="st3" d="M1469.44,796.54c-0.21,2.2-0.96,3.88-2.27,5.06s-3.09,1.77-5.33,1.77c-1.51,0-2.85-0.38-4.02-1.15
									s-2.07-1.86-2.72-3.27s-0.97-3.02-0.98-4.84v-3.3c0-1.82,0.32-3.44,0.95-4.87s1.54-2.54,2.72-3.32s2.53-1.17,4.05-1.17
									c2.23,0,4,0.59,5.32,1.76s2.08,2.85,2.29,5.04h-0.79c-0.22-1.96-0.91-3.46-2.05-4.48s-2.73-1.53-4.76-1.53
									c-2.07,0-3.74,0.78-5.02,2.34s-1.91,3.66-1.91,6.28V794c0,1.68,0.28,3.17,0.85,4.46s1.38,2.3,2.44,3.03s2.27,1.08,3.64,1.08
									c2.04,0,3.63-0.5,4.78-1.51s1.82-2.51,2.03-4.53H1469.44z"/>
								<path class="st3" d="M1472.76,794.84c0-1.51,0.29-2.87,0.87-4.08s1.4-2.15,2.46-2.82s2.26-1.01,3.6-1.01
									c1.33,0,2.52,0.33,3.57,0.98s1.88,1.58,2.47,2.78s0.89,2.55,0.9,4.06v0.7c0,1.52-0.29,2.89-0.86,4.09s-1.39,2.14-2.45,2.81
									s-2.26,1.01-3.6,1.01s-2.54-0.33-3.6-1s-1.88-1.59-2.47-2.79s-0.88-2.54-0.89-4.04V794.84z M1473.55,795.45
									c0,1.32,0.26,2.53,0.78,3.63s1.25,1.96,2.18,2.57s2,0.92,3.2,0.92c1.81,0,3.28-0.68,4.42-2.04s1.71-3.11,1.71-5.24v-0.45
									c0-1.3-0.26-2.5-0.79-3.6s-1.26-1.97-2.19-2.59s-1.99-0.93-3.17-0.93c-1.81,0-3.28,0.69-4.42,2.07s-1.71,3.11-1.71,5.2
									V795.45z"/>
								<path class="st3" d="M1491.26,790.91c0.52-1.23,1.28-2.2,2.29-2.92s2.12-1.07,3.34-1.07c1.7,0,2.96,0.48,3.79,1.44
									s1.24,2.42,1.25,4.36v10.34h-0.79v-10.36c-0.01-1.7-0.36-2.95-1.04-3.77s-1.77-1.22-3.25-1.22c-1.37,0-2.55,0.49-3.55,1.46
									s-1.68,2.22-2.03,3.75v10.14h-0.79v-15.85h0.79V790.91z"/>
								<path class="st3" d="M1516.66,799.19c0-1.92-1.64-3.23-4.92-3.93c-1.97-0.42-3.34-0.96-4.12-1.62s-1.16-1.56-1.16-2.72
									c0-1.16,0.49-2.12,1.47-2.87s2.26-1.13,3.83-1.13c1.71,0,3.08,0.41,4.12,1.22s1.55,1.92,1.55,3.3h-0.81
									c0-1.06-0.45-1.95-1.35-2.67s-2.07-1.07-3.52-1.07c-1.39,0-2.48,0.3-3.29,0.91s-1.22,1.36-1.22,2.27
									c0,0.71,0.15,1.27,0.46,1.68s0.79,0.77,1.48,1.1s1.68,0.64,2.99,0.95s2.34,0.66,3.11,1.07s1.31,0.9,1.66,1.46
									s0.51,1.25,0.51,2.06c0,1.25-0.51,2.26-1.54,3.02s-2.37,1.14-4.03,1.14c-1.78,0-3.21-0.4-4.3-1.21s-1.63-1.84-1.63-3.11
									h0.79c0.08,1.11,0.57,1.98,1.47,2.6s2.13,0.93,3.67,0.93c1.42,0,2.57-0.33,3.45-0.99S1516.66,800.12,1516.66,799.19z"/>
								<path class="st3" d="M1520.62,794.84c0-1.51,0.29-2.87,0.87-4.08s1.4-2.15,2.46-2.82s2.26-1.01,3.6-1.01
									c1.33,0,2.52,0.33,3.57,0.98s1.88,1.58,2.47,2.78s0.89,2.55,0.9,4.06v0.7c0,1.52-0.29,2.89-0.87,4.09s-1.39,2.14-2.45,2.81
									s-2.26,1.01-3.6,1.01s-2.54-0.33-3.6-1s-1.88-1.59-2.47-2.79s-0.88-2.54-0.89-4.04V794.84z M1521.41,795.45
									c0,1.32,0.26,2.53,0.78,3.63s1.25,1.96,2.18,2.57s2,0.92,3.2,0.92c1.81,0,3.28-0.68,4.42-2.04s1.71-3.11,1.71-5.24v-0.45
									c0-1.3-0.26-2.5-0.79-3.6s-1.26-1.97-2.19-2.59s-1.99-0.93-3.17-0.93c-1.81,0-3.28,0.69-4.42,2.07s-1.71,3.11-1.71,5.2
									V795.45z"/>
								<path class="st3" d="M1539.31,803.07h-0.79v-22.5h0.79V803.07z"/>
								<path class="st3" d="M1550.21,803.36c-1.28,0-2.45-0.34-3.52-1.03s-1.91-1.63-2.51-2.83s-0.91-2.53-0.91-4v-0.66
									c0-1.46,0.29-2.81,0.88-4.03s1.39-2.17,2.42-2.86s2.14-1.03,3.35-1.03c1.77,0,3.21,0.63,4.34,1.89s1.69,2.92,1.69,4.97v0.83
									h-11.88v0.86c0,1.29,0.27,2.48,0.81,3.58s1.29,1.96,2.24,2.58s1.98,0.94,3.1,0.94c1.06,0,1.97-0.18,2.72-0.53
									s1.41-0.9,1.99-1.64l0.56,0.4C1554.29,802.51,1552.53,803.36,1550.21,803.36z M1549.91,787.72c-1.54,0-2.85,0.57-3.93,1.72
									s-1.7,2.61-1.89,4.39h11.04v-0.19c0-1.07-0.23-2.07-0.68-3s-1.08-1.64-1.88-2.15S1550.9,787.72,1549.91,787.72z"/>
							</g>
						</g>
					</g>
					<g>
						<path class="st3" d="M1444.41,877.06c-0.54,0.74-1.48,1.36-2.83,1.85s-2.83,0.73-4.45,0.73c-1.58,0-2.99-0.39-4.23-1.16
							s-2.21-1.86-2.91-3.27s-1.06-3-1.08-4.78v-3.66c0-1.75,0.34-3.32,1.01-4.7s1.62-2.46,2.84-3.21s2.59-1.13,4.12-1.13
							c2.12,0,3.84,0.54,5.18,1.63s2.11,2.56,2.32,4.44h-0.79c-0.26-1.7-0.97-3-2.12-3.91s-2.68-1.36-4.58-1.36
							c-2.15,0-3.88,0.77-5.2,2.3s-1.98,3.55-1.98,6.05v3.4c0,1.67,0.31,3.16,0.93,4.47s1.49,2.32,2.62,3.04s2.42,1.08,3.88,1.08
							c1.43,0,2.75-0.21,3.97-0.63c1.22-0.42,2.06-0.93,2.52-1.53v-6.22h-6.52v-0.79h7.31V877.06z"/>
						<path class="st3" d="M1459.8,879.35c-0.2-0.67-0.29-1.64-0.29-2.9c-0.63,1.02-1.48,1.8-2.56,2.36s-2.31,0.84-3.68,0.84
							c-1.46,0-2.64-0.4-3.54-1.19s-1.34-1.83-1.34-3.11c0-1.46,0.66-2.62,1.97-3.49s3.06-1.32,5.24-1.34h3.91v-2.31
							c0-1.33-0.42-2.36-1.25-3.09s-2.03-1.1-3.58-1.1c-1.45,0-2.65,0.37-3.62,1.11s-1.45,1.66-1.45,2.75l-0.79-0.03
							c0-1.29,0.57-2.38,1.7-3.28s2.52-1.35,4.16-1.35c1.71,0,3.07,0.43,4.07,1.28s1.52,2.06,1.55,3.61v7.57
							c0,1.74,0.14,2.92,0.41,3.54v0.13H1459.8z M1453.27,878.85c1.48,0,2.76-0.33,3.83-1s1.87-1.6,2.41-2.8v-3.76h-3.66
							c-2.27,0-4,0.45-5.2,1.35c-0.98,0.73-1.46,1.64-1.46,2.74c0,0.97,0.39,1.79,1.16,2.46S1452.09,878.85,1453.27,878.85z"/>
						<path class="st3" d="M1476.74,879.35h-0.79v-10.64c-0.01-1.59-0.36-2.77-1.05-3.55s-1.78-1.16-3.29-1.16
							c-1.74,0-3.16,0.77-4.26,2.3c-0.65,0.92-1.09,1.93-1.3,3.04v10.01h-0.81V863.5h0.81v3.75c0.54-1.29,1.3-2.29,2.3-2.99
							s2.1-1.05,3.31-1.05c1.33,0,2.41,0.29,3.26,0.88s1.4,1.54,1.66,2.87c0.47-1.14,1.23-2.05,2.29-2.73s2.24-1.02,3.54-1.02
							c1.71,0,2.98,0.48,3.82,1.45s1.26,2.42,1.27,4.35v10.34h-0.79v-10.27c0-1.74-0.35-3.02-1.05-3.86s-1.79-1.24-3.29-1.22
							c-1.92,0.03-3.45,0.79-4.57,2.3c-0.64,0.87-1,1.71-1.05,2.52V879.35z"/>
						<path class="st3" d="M1497.99,879.64c-1.28,0-2.45-0.34-3.52-1.03s-1.91-1.63-2.51-2.83s-0.91-2.54-0.91-4v-0.66
							c0-1.46,0.29-2.81,0.88-4.03s1.39-2.17,2.42-2.86s2.14-1.03,3.35-1.03c1.77,0,3.21,0.63,4.34,1.89s1.68,2.92,1.68,4.97v0.83
							h-11.88v0.86c0,1.29,0.27,2.48,0.81,3.58s1.29,1.96,2.24,2.58c0.95,0.62,1.99,0.94,3.1,0.94c1.06,0,1.97-0.18,2.72-0.53
							c0.75-0.35,1.41-0.9,1.99-1.64l0.56,0.39C1502.07,878.78,1500.32,879.64,1497.99,879.64z M1497.7,863.99
							c-1.54,0-2.85,0.57-3.93,1.72s-1.7,2.61-1.89,4.39h11.04v-0.19c0-1.07-0.23-2.07-0.68-3s-1.08-1.64-1.88-2.15
							S1498.69,863.99,1497.7,863.99z"/>
					</g>
				</g>
				<g>
					<g>
						<line class="st6" x1="1138.1" y1="638.39" x2="1135.1" y2="638.39"/>
						<line class="st7" x1="1129.13" y1="638.39" x2="750.02" y2="638.39"/>
						<line class="st6" x1="747.03" y1="638.39" x2="744.03" y2="638.39"/>
						<g>
							<polygon class="st2" points="748.7,622.44 721.07,638.39 748.7,654.35 							"/>
						</g>
					</g>
				</g>
				<g>
					<g>
						<path class="st11" d="M744.03,703.98h115.4c6.26,0,11.34,5.08,11.34,11.34v126.67c0,6.26,5.08,11.34,11.34,11.34h255.99"/>
						<g>
							<polygon class="st2" points="748.7,719.94 721.07,703.98 748.7,688.02 							"/>
						</g>
					</g>
				</g>
			</g>
			<path class="st12" d="M1771.22,947.43H90.08c-7.03,0-12.74-5.7-12.74-12.74V451.17c0-7.03,5.7-12.74,12.74-12.74h1681.14
				c7.03,0,12.74,5.7,12.74,12.74v483.52C1783.96,941.72,1778.26,947.43,1771.22,947.43z"/>
			<g>
				<path class="st9" d="M117.15,477c0-0.73-0.28-1.3-0.83-1.71s-1.51-0.75-2.89-1.05s-2.46-0.64-3.27-1.05s-1.4-0.9-1.79-1.46
					s-0.58-1.24-0.58-2.02c0-1.3,0.55-2.4,1.65-3.3s2.5-1.35,4.21-1.35c1.8,0,3.25,0.46,4.37,1.39s1.68,2.11,1.68,3.56h-2.72
					c0-0.74-0.31-1.38-0.94-1.92s-1.42-0.81-2.38-0.81c-0.99,0-1.76,0.21-2.31,0.64s-0.83,0.99-0.83,1.68
					c0,0.65,0.26,1.15,0.78,1.48s1.45,0.65,2.81,0.95s2.45,0.66,3.29,1.08s1.46,0.92,1.87,1.52s0.61,1.31,0.61,2.16
					c0,1.42-0.57,2.55-1.7,3.41s-2.6,1.28-4.41,1.28c-1.27,0-2.39-0.22-3.37-0.67s-1.74-1.08-2.29-1.88s-0.83-1.68-0.83-2.61h2.71
					c0.05,0.91,0.41,1.63,1.09,2.16s1.57,0.8,2.69,0.8c1.03,0,1.85-0.21,2.47-0.62S117.15,477.7,117.15,477z"/>
				<path class="st9" d="M129.97,481.5c-2.15,0-3.9-0.71-5.24-2.12s-2.02-3.3-2.02-5.66v-0.5c0-1.57,0.3-2.98,0.9-4.21
					s1.44-2.2,2.52-2.9s2.25-1.05,3.51-1.05c2.06,0,3.66,0.68,4.8,2.04s1.71,3.3,1.71,5.83v1.13h-10.74
					c0.04,1.56,0.5,2.82,1.37,3.79s1.98,1.44,3.33,1.44c0.96,0,1.77-0.2,2.43-0.59s1.25-0.91,1.74-1.55l1.66,1.29
					C134.62,480.48,132.63,481.5,129.97,481.5z M129.63,467.29c-1.09,0-2.01,0.4-2.75,1.19s-1.2,1.91-1.38,3.35h7.94v-0.21
					c-0.08-1.38-0.45-2.44-1.11-3.2S130.77,467.29,129.63,467.29z"/>
				<path class="st9" d="M142.96,461.52v3.84h2.96v2.09h-2.96v9.84c0,0.64,0.13,1.11,0.4,1.43c0.26,0.32,0.71,0.48,1.35,0.48
					c0.31,0,0.74-0.06,1.29-0.18v2.18c-0.71,0.19-1.41,0.29-2.08,0.29c-1.21,0-2.12-0.37-2.74-1.1s-0.92-1.77-0.92-3.12v-9.83h-2.89
					v-2.09h2.89v-3.84H142.96z"/>
				<path class="st9" d="M158.87,479.64c-1.05,1.24-2.6,1.86-4.64,1.86c-1.69,0-2.98-0.49-3.86-1.47s-1.33-2.43-1.34-4.36v-10.31
					h2.71v10.24c0,2.4,0.98,3.6,2.93,3.6c2.07,0,3.45-0.77,4.13-2.31v-11.53h2.71v15.85h-2.58L158.87,479.64z"/>
				<path class="st9" d="M179.01,473.46c0,2.41-0.55,4.36-1.66,5.83s-2.6,2.21-4.48,2.21c-1.92,0-3.44-0.61-4.54-1.83v7.63h-2.71
					v-21.94h2.48l0.13,1.76c1.1-1.37,2.64-2.05,4.6-2.05c1.9,0,3.41,0.72,4.52,2.15s1.66,3.43,1.66,5.99V473.46z M176.3,473.15
					c0-1.79-0.38-3.2-1.14-4.23s-1.81-1.55-3.13-1.55c-1.64,0-2.87,0.73-3.69,2.18v7.57c0.81,1.45,2.05,2.17,3.72,2.17
					c1.3,0,2.33-0.52,3.1-1.55S176.3,475.18,176.3,473.15z"/>
				<path class="st9" d="M203.58,481.21H189.6v-1.95l7.38-8.2c1.09-1.24,1.85-2.25,2.26-3.03s0.62-1.58,0.62-2.41
					c0-1.11-0.34-2.03-1.01-2.74s-1.57-1.07-2.7-1.07c-1.35,0-2.4,0.38-3.14,1.15s-1.12,1.83-1.12,3.2h-2.71
					c0-1.96,0.63-3.55,1.9-4.76s2.96-1.82,5.08-1.82c1.98,0,3.55,0.52,4.7,1.56s1.73,2.42,1.73,4.15c0,2.1-1.34,4.6-4.01,7.5
					l-5.71,6.2h10.71V481.21z"/>
			</g>
		</g>
	</g>
	<g>
	</g>
	<g>
	</g>
	<g>
	</g>
	<g>
	</g>
	<g>
	</g>
	<g>
	</g>
	<g>
	</g>
</g>
</svg>
